<mxfile host="app.diagrams.net" agent="Mozilla/5.0 (Windows NT 10.0; Win64; x64) AppleWebKit/537.36 (KHTML, like Gecko) Chrome/135.0.0.0 Safari/537.36 Edg/135.0.0.0" version="26.2.8">
  <diagram name="第 1 页" id="AxHA6zndrq5qxtYXRe3A">
    <mxGraphModel dx="1234" dy="299" grid="1" gridSize="10" guides="1" tooltips="1" connect="1" arrows="0" fold="1" page="1" pageScale="1" pageWidth="827" pageHeight="1169" math="0" shadow="0">
      <root>
        <mxCell id="0" />
        <mxCell id="1" parent="0" />
        <mxCell id="mLtvasxucz6L9ytkMCJB-6" value="" style="shape=image;verticalLabelPosition=bottom;labelBackgroundColor=default;verticalAlign=top;imageAspect=0;image=data:image/png,iVBORw0KGgoAAAANSUhEUgAAAy0AAAJDCAMAAAAxRwuqAAACB1BMVEUAAAAAADUAADoAAF4AAGYANV4ANYQAOjoAOmYAOpAAXqgAZmYAZpAAZrY1AAA1XoQ1Xqg1hMk6AAA6OgA6Ojo6OmY6ZmY6ZpA6ZrY6kJA6kLY6kNtNTU1NTW5NTY5Nbm5Nbo5NbqtNjqtNjshOeadeAABeNQBehKhehMleqMleqOtmAABmOgBmOjpmOmZmZmZmZpBmkLZmkNtmtrZmtttmtv9uTU1ubk1ubm5ubo5ujo5ujqtujshuq6tuq8huq+SENQCEyeuOTU2Obk2Obm6Ojm6Ojo6OjquOq8iOq+SOyOSOyP+QOgCQOjqQOmaQZjqQZmaQZraQkDqQkGaQkJCQtraQttuQ2/+oXgCoycmoyeuo6+urbk2rjm6rjo6ryOSr5P+2ZgC2Zjq2kDq2kGa2kJC2tma2tpC2tra2ttu2tv+225C227a229u22/+2///Ijk3Ijm7Iq27Iq47Iq6vIyMjIyOTI5KvI5MjI5OTI5P/I/+TI///JhDXJqF7JqITJyYTJyajJ6+vbkDrbkGbbtmbbtpDbtrbb25Db27bb29vb2//b/7bb/9vb///kq27kq47kyI7kyKvk5Kvk5Mjk5OTk5P/k/+Tk///rqF7ryYTryajr66jr68nr6+vyjiv/tmb/yI7/25D/27b/29v/5Kv/5Mj/5OT//7b//8j//9v//+T///+g+pOsAAAACXBIWXMAABkRAAAZEQGQh6VoAAAgAElEQVR4nO2d/YPUSHrfdWNsBl/wyyx74KDhxcSXxEAunGF2L0eOM7tJCGDjvLFOzPpoluSc2LCzucS5JWxsXx/YLDZtfOcL9tmkh2Ew9PQfmSqpSqqSSj2lUk2rqp/v55eZltRqPd3PR/UqKZkCAOxI+j4AAKIBtgBgC2wBwBbYAoAtsAUAW2ALALbAFgBsgS0A2AJbALAFtgBgC2wBwBbYAoAtsAUAW2ALALbAFgBsgS0A2NKLLa9PJsl+5fU4SfQFL1aS5Fzxx53NM13e7cIwSfY9mfeHgjnRiy2Tq3pODbgt6gKWc3s+7mzL5Jam4FyALYtMPzUxYYOAFzVJsvRBsUDa1NGWQQJbgE/6sYVXvc6pr5beSpLDxQKuz2HT+9oBW4Bf+rFF14GXNP9FzbKxVtI4A1uAX3rqExsoScXrXfuZP2XdbOAn5WAL8EtPtqgNl6x1wpWRdbNMHw8fAluAX3qyhRlS1LVyc4ZlaheN++KfcZaDD0+z13sPPTbvcnL7AO8sOHDmcbGTRO09eHjtLXW9rqQqa3FUbPXD0+wtb1+XC8d84eYpttMv5XvdzHYq9zmVtjzkm5RvAwtCT7YoDRfRAcayW5Y2RcGj2fJnV0X6mzsAvi/tSJKDT6Y1Wx6Uq5NDT8SnlI0j5dOnxUHsn8iPXL6bL+S25DvO3rp5tbLP3JY/q74NLAh9jeWXtSSefYczf2TyFutUW5ZPlelu6FUeJgqy97m0RVud7118bvGRh2s73D8o3iEOjR3HF0/WP0IZLhpqR+qjrwKEQ1+2DNX8ypKqSFhe7uQ+qLbw8/djcTqvtwz4lsvX+eJHpwqddCOXzvLq0svbK+Lz1CFSRVXlAHkxdZfXtoqPzI5jidWwHv03MUz09h22J17xEh9lfBtYEPqypWi4FEk7VlJSpK5uy9n8nQPTKVvpNSgbJKUtg2qngv455WdreyzKm6H8d6yWF4NEq03mOzW+DSwIfdlSNKuLFkzRdCiLHc0W2SQfm6pixq6owhZteId/8uHK0npFLEv1/cpbpNHFQm2yG3+RbWF8G1gQepuDLFO5OMNLf4psrtgiDSkragrG07i5B7ncfzGsY6iI6Z0A8iDHyseMtTJuWDaQ6m8DC0JvtsjKz0BtwPDkVjqXTZUmsy15g/tL/0HrXTbY8vKP/91bRcYXex0btNJKK/mZ6nHoxZk8VOPbwILQmy2i4qXUZ4Q/47KNodpStDvMKXhL9kIdLEc5NFsmD3/jQNGHVXYnHBYbmkorfTjm8FS3RXdR7sv4NrAg9GaLqHgpdSxRHxoYhikNtkzKsY7sZK6Ot4hhDmVPk1uJStlcET3BlcGW6c62VCYcyC1gyyLT37WTwyyT1N6qrK2tFh1tbJlObr9VGeYobcmvCeBr3j7zeZnCIvmHpvYNbAE1+rMlq3hpHUtZpqkn+la2THlt61pewuQbF7Zk2+49c+exfHG43NVhw6yX4mAkqIkBTn+2ZLOOteu92It9T9R0a9FuKciHCrMNtDkB9R7kqaiKZR9b2w9a+aBGf7awrF36QLuIMluiDn242KI33osB9vJTVHWy/rehsQDQ3qP0IBe2NPYg198GFoQe7/nCs1Sv/LP0/hV16MPaFq3KU7xQbSlP+MoQfLbp2avGlB5WNpOjk1pPtnl0svY2sCD0aAtz4Yv6JcUsGb+kVovsy5aB6aQ/qM+lmU4+ShK9qbTXWBHLp7CIz7mVGMZ9mme+LOVvmwxMsw5AxPRoS+3mFWJJqY+9Ldm0yewqk5cfFe3+Ylw9n1TJlr18kPebaS0jc0s8nx7JJ3I+KudMarZUZlUWn1l/G1gQ+rz7Xu3GSHk/V6lCi3aLNiW/nF+fFH3EGtpVzobBlqksdSpv0BsiDTP2/56htw4sBH3aos7XLZcoudumla9c7iUvwnqdX2hyThucXDrzkfoZ6izI6sHteySvVJHXelWa7ZvllSzK1WDlRWQHIcti0actL1aqfUZ8yX79pXWf2OQ/8wuRk70H75SLbvFP+Cr/99G1fOX1yl3KGm9ZlvUMZCOeS3JugKGT65G40viJ8rb908mD7G13pmCxoH4fZO1eMyq4HQWoQd2WcVNLHLaAGtRtGTSNH8IWUIO4LeZZLxzYAmrQtuVh823JYQuoQdcW0c/bpARsATXo2pIPju5pukEebAE1CNvCxzMPNskCW0AdwrYA0BLYAoAtsAUAW2ALALbAFgBsgS0A2AJbALAFtgBgC2wBwBbYAoAtsAUAW2ALALbAFgBsgS0A2AJbALAFtkynz58/7/sQ5gq1eP0BW+hlD7V4/QFb6GUPtXj9AVvoZQ+1eP0BW+hlD7V4/QFb6GUPtXj9AVvoZQ+1eP0BW+hlD7V4/QFb6GUPtXj9AVvoZQ+1eP0BW+hlD7V4/QFb6GUPtXj94W7L03fS9OilZ9qyVx+ulQu3b6Q5R+53OsRdh1r2UIvXH662SBWOq7qMhB7HMj3eXIQtQUItXn+42jJKVy+z8mUtvVAu21pLz/8oW3gif3n8WdPbg4Ja9lCL1x+OtrBy4wr/u6EWHOu5JWzh6s0pF+pE58ObC9Syh1q8/nC0RVrCKmRX5LLif/HPulruhAy17KEWrz8cbZHFSPmPQm7L9o2shIkAatlDLV5/ONsiyo1RWm+cbK1xT95cPPLd99N09Xy98fIcAAW3HOwBN1tY6SFs2TDYsp4tY23+nHoR0/evA8LCKQf7wNkW0Vwx2DJKs5WjdJUPvPzgvXoPct+/DggLpxzsA/+2MFm01v2bi6G39mP6vXxALV5/eK+JMVnOTytLAh93oZY91OL1h+dW/vYnaa0kMTVtgoJa9lCL1x+OtozMPciszOFD/DqwJTCoxesP59HJ3AB1dDKX5Wb5vyhkTEMyQdFT9gySpQ/6+FzY4ozPmS9MkCP3ilcjsWprTRUqRHqzZc/HfXwubHHG56zKkdZXzIQ6di/bJPCKWF/ZM4QtseFnxn42HlnM0GfwutfGmmFSf4jMP3te//p1bsu+J9PNa1+d82fDFnecrwbbVq8Gy2wpBu+FLeLasMuhy9JD9oyTZOnMg2Tfw1MJV2bOwBZXcKVxH9kzSErm39SHLa7All6y59Ht0yuZKm+feTzvz4YtzsCWvrJnyGRZ7qWZD1tcgS09ZQ+T5RdO9qMLbHEFtvSTPWPevB/30caHLe7All6y5/WprHXPWvuH5/3RsMUd2NJP9kxucU1e/5Prc/9k2OIObKGXPdTi9QdsoZc91OL1B2yhlz3U4vUHbKGXPdTi9QdsoZc91OL1B2yhlz3U4vUHbKGXPdTi9QdsoZc91OL1B2yhlz3U4vUHbKGXPdTi9QdsoZc91OL1B2yhlz3U4vUHbKGXPdTi9QdsoZc91OL1B2yhlz3U4vUHbKGXPdTi9QdsoZc91OL1B2yhlz3U4vUHbOHZkxADtrgBW9h3QA7Y4kYvtnR7pqd3WPaQIrh4+8hBJ1C28LIlnt/LB9Ti9QdsodfqpRavP2ALveyhFq8/YMuM7Nm8tpIkSwfv1tdMbh9gjeW9plXhA1tcgS3N2fNgJe9BWqo9vkuuSZJDu350/oEtrsCWxuwZlz2u5xrXJPvncYR+gS2uwJam7Hl9MkmWWU3r0amk8jjVbM2dab6qp6d4dwG2uAJbmrJnKB8XMblauRP+uChR+Kr4ChfY4gpsacgeJoIsNl6s6I9ZGZRVs+qqKIAtrsCWhuxh1S3pgSLOjK3iAba4Alsasmes1LEGtXa+BLaQArY021I0VoaNtozRbqEEbGnIHtWQcdMD71jRgj4xQsCWDrZMBjEWLbDFGdjibguXZU8vT7zvBmxxBbY428IHWyKsh8EWd2CLqy2bcQ7kT2GLO7DFsU+MT6xcjrAaNoUt7sAWt/GWIZ9/HN1ISw5scQW2OI3l30qaOpUjALa4AlvazxPLSpY4mywZsMUV2NJ+DjKvpe2J8qrJHNjiCmyZeX3LnYbrWyIuWWCLO7DF/tpJaclQu5NdfOLAFldgS3P2fL9yXb6whdfMYAtJYIv9PV+ELbyKBltIAlvoZQ+1eP0BW+hlD7V4/QFb6GUPtXj9AVvoZQ+1eP3hbsvTd9L06KVn2rJXH66pC02bBAi17KEWrz9cbdm+kWYcV10Y5cvSY/cbNwkRatlDLV5/uNoySlcvs8JjLb1QLttaS8//KFt4ommTIKGWPdTi9YejLW8uplf43430yP1i4XpuCVu4erNhkyChlj3U4vWHoy1SAVbbuiKXFf/n/5g2CRNq2UMtXn842iKLkfIfhdyPmZsEBbXsoRavP5xtEY2RkaERv7XGa2IzNunyRE+weLjlYA+42cJKD6HChsGWdb5s1iZ9/zpm/p8n+o4jPpxysA+cbRFtEYMto5SvnLVJ37+OGdjSF0452Af+bWGyXNhhk8AQv5cvW/oOZ0diys+w8F4TY7Kc32GT0IAtwA7PrfztT1K5ZmZHQFDAFmCHoy0jc/cwK1D4+P2sTQIEtgA7nEcn8/JCH3rkstycvUmIwBZgh8+ZL8yLI/dmbxIksAXY4XNW5Uj3IrZZlbAF7ICfGfvZeCQrTApO1DYJGNgC7HC+GmxbvdQrs2VrTbdF3yRgYAuwA1cawxZgC2yBLcAW2AJbgC2wBbYAW2ALbAG2wBbYAmyBLbAF2AJbYAuwBbbAFmALbIEtwBbYAluALbAFtgBbYAtsAbbAFtgCbIEtsAXYAltgC7AFtsAWYAtsgS3AFtgCW4AtsAW2AFtgC2wBtsAW2AJsgS2wBdgCW2ALsAW2wBZgC2yBLcAW2AJbgC2wBbYAW3qxxfXZt7uLL1v6jiM++shBJ1C2oGwBtsAW2AJsgS2wBdgCW2ALsAW2wBZgC2yBLcAW2AJbgC2wBbYAW2ALbAG2wBbYAmyBLbAF2AJbYAuwBbbAFmALbIEtwBbYAluALbAFtgBbYAtsAbbAFtgCbIEtsCVWxkmy70ll2eTh6ZUkSQ6cebwbnwhbYEukTK4yLc7pi25zVXIOVUXyAGyBLZHygpuxX12S+VNQK3e6A1tgS6QMk6W3kqUPygWZLMvXeR3s0emqSV6ALbAlTl6fTPY9SJLD5ZJBorx8UKumeQC2wJY4YW38w8yYPR/LBbxmprgz3IW6GGyBLXEy4LWwgVKAVPTgJt31/JmwBbZECStJmBvjsnXCWy1a1etztPJ3A9gSIcOs2sUUke18pk9ZK9slYAtsiRGpybBoq5jGKn0DW2BLjLCSZL/4K0qUsG15+k6aHr30rLZ8I72S/7N9I805ct/5Q+YCbIkP2bwvWyvj3RhgqeBqi1TheFWXrTVpy5uLsCVIFsCWsuu4KFJCLltG6eplVr6spRf05UwWacvWWk2lMIEt0TFWp7jk7fy8k2x3cbSFlRuZExt6wbH9HSaLtGWUnuh4cHMCtsSGPiEsb+ez4kadBsM28j8N2dEWaQmrkF0pl26xpsw3iiXr1XInVKjbsnlthZ2gDzYN5b0+qfbMPuQzsPae2e2z+GxerGi2ZMdXG29h5c8hz5/raMu6LDfW1QJkIz12r/Bn+8bqzY4HNyeI2/JApN7SV41bsywsbSlO6kve52C1YajMcSksqU51GWgTYbww05aXv/M7//WJsUQryo2R2s5/9alS2ry5eOS776fp6vndaLy0OR1Obh/gp0N1Y/0ESdsWpQlgMmAySEpb1BpQj7rolS5pSWWe2DjxP1o5w5YHb+WF3OuTy9WsZEoIWzaqvWKFLby9n1EvYtyf5yn4Pz+T/2Jf+EfG1X/7zeQnfqu6bZL8XLlavP1X1Xf5sqVzdHPlb34pSX7yPz1//kdfTpQvrSD7rorln7Hv7B9+7/nzP2Qb/9T3vB1D26TVu7+YJbk7Q20O8or/omWGLbdklbDWfFKbK822jNJVPhrzg/fqPchdv92/Ks9wv2xY/be/qfzAyrbJT+erv2l+O01bPpN5z7+Wn6+u/YPsVCO/TLaJOMEwx/RTTSfaJq1ex+IF3n75D6sxPM6uN052o0O50RYu6vK/X2G28IOofLCNLZI3F2ut/Y5fbpvTYbbtf3yeb5z/wCw/kp9lb//xN/W3k7SlFOD5X/9Mtbz48Zf5V/Xl4ltiW/y0WPWZ+UTlRsucrc4IK+pcr0+pbf9l/7PGmmzhlcCzov5f622wqokVjOpDmN0omnP8wGql7cOVoptkqo7wylMQKyrlm8Q56jnhdgu/pkqcCZUZigL2RS+d1Vr5BYMeGy7Dyqg9/0Xzg5ncKmWZ53X5g+yIRGt5XJtUYG7lc+q21ITqiD7vtFLqbfLTy8FTxQ+s/KpiY6XSK0aEKdui/rQ1A4ZLLOWMtmiXYc2Z+sl7UP6kL2/3cM8XkZHClnpSjow9yJzdt8X1dCjep/Y+ZlcUUbel+DaG1Sx8yb9mw5eZ3Vql1y7knmiwRZw7hC31M4k0oO6GXFJW1mpCdcTxdKjYol5ud462Leq3MTb2ItW+zEE23nJ2Fw8wWBxtaZj5MtX6xPJV5TRLTzidDqeFZepb8oYLbMlpY8ves/2O5veDY02scValOjqZHruXbeK/kd/2B+bIjnClaBINftiSY/dlTn7tQNY02PUpjAEyo5V/uLCl2gkxrc7YXy+NUDqX1xom9XfEzZbJQATBFTlb7Am2OJ16eGfKrl9NEh5NtozFwCT/osameQ7b6tVgRlumrz5kvhy97Hvmi9MPrEzg4DWJQ4/57JkEtjjaYhqyJkCTLbybbuk6t2XyUWDFrssPnIUjfl1euAi+Qt6WmY3ADLMtWtciGRrH8pWcSsI6jTjYwisOZQybYsh36ewYtszqYMxosMX8zS84zfPElPmmtVmVvdL+dMhn2KnzICZ8wugSq42hB3nm4JVcDFsEs2bsb17js5CXDt6Z29FY0fp0OGycB4HRyZkTI+QW8svUB3YJjk9GeIektqfDW0nTaRAzX3aadDfVvsxibnz2tt6mvvRHhLa0Oh3mc2FUo5T3iFKKtC28fbrMag+PTjXkv/JlZn0lfFgy606kVxGL0ZZWp8OsK/xuZaWoQ2yKuaukbalfO1npHFa/zE2l64fgcEvjWP5vfEXnnwbUhdzmdGgYFxjms5wmvO2f/eS0bZl+v3Jd/gxbiu7E3ZkQHzzN88R0gqqktjgdDrUoso2U2PKtiNtSvcnBLFvkLQ0a74iw2ERpi/3psHLjqXyj4gQpesap2wJsaWq3vPxc8u1rrOLy+a5cXOOO7emwYr3YaHKbd42/fV1sDluAHTat/BcryUJfzQBbgB1WfWLDsKa++Aa2ADusbJEPy1hQYEts/AMLduNzrWzp854FcwC2xEbQtszjkX49AltiI2hbduPR4wEBW2IjXFsmn3+04PMcYEtsBGZLdXQSfWKwJSDCtmWx7x4FW2IjNFtOHyh5e3dukxkMRG2JON7AbCFF/NnTjvjjhS2tsPm6rL/S+LOnHfHHC1taAVs6EH+8sKUVsKUD8cfrbAu/2U/lgczFRR0WA/A1W2pXtoR4fQts6UL88TraIsXQhtqLhIctsMVA/PE62jLMhkIerGg3c3ixYj9PpW6L2nes9CLDloCzpx3xx+tmCysIsgvTx5W7zdnPU+ml3eL+PE+JL1vUffrKnu7RzYdw4m2dQG62SEtYhUy5ceCgxa2e0MpfhHNtO+KP182WgSxFBkpxMrnaYlYXbFmE7GlH/PG62iJKkaHSzn99cs/vneZ3xbZpvNja8nlYM/ZhSwfij9fJFlYBE7aMFVterLSYODzjHvvfLm69d+At9IkFnT3tiD9eV1tEc0W1ZZgs8fGXPznl1IMsGa+gBzma7GlH/PF6tEXy+qRFa7/Jlhe6LMlB1MQCzp52xB+vqy2GmljB0OL64CZb+B1RD377ZLL0K7f5c7VCe1QHbOlA/PE62WJu5RcYFarQ/ARwvuv8kTYBXpYPWzoQf7xutgxNPcgFHWwRt0rNHwZVPsMhGGBLB+KP182WcfkgkyKdy+qZUaEKzbaIZ3/vn+rPrgsD2NKB+ON1s8U482UoXrCG+s4lwmxbxHO0lGfXBQJs6UD88brZYpxVyXKbP2rhgfkpcxWa2y3cFqFJePeqhC0diD9eR1v0GfuD/K8cKrEpD5r6xPKn/ZbSwJaQs6cd8cfraEv+6Hd5NZiwJX+6yd6zXWa+DPOmSt4pNg6uUwy2dCD+eF1t6UqTLfyiMGYI82TPnT85iVZ+2NnTjvjjDc2WzJOPi5peaPeqhC0diD/e4GyZPjyVNVlOBXmvStjSgfjjDc8WycOvfCW8e1XClg7EH284tgRnhgnY0oH44w3Gltcnl6+bNgwL2NKB+OMNyBZ+2WXoBQxs6QC1eP3RdD8xu9Ga3oAtHaAWrz8MrfxHp8UFYHfnfzi2wJYOUIvXH8Y+sWyCQNAFDGzpQPzx9nVYTT3IL2+thFzAwJYOxB9vX4c1Y7xF1MiCLGBgSwfij7evw5o5OilrZAfv7MZHdwG2dCD+ePs6rJ3G8kWNbOlMWAUMNVuyWeVLxmpxfdUj88bF1YERxLsDfR2Wxb0qH13D/cR6zp4H4oqlpa/uvGpyS97VSr8/Fh8agC3dsLmz6+S26V6VT99J06OXntW23kiv7LRJd2jZMi7v61a9dry+alAu0XQZJLClKzvaMnl4ynSvyu0bacbxqgtba9KWxk08QMoWXirwa8cfnar9DvVV/LaJvBK2eVW/zmKcwJbO7GDLQ9EvVmu2jNLVy6zwWEsv6MuZLNKWpk18QMqW4n5u4i5vM1cNk/KuWcrG+RQN2NKNWbZkDRbzmMubi7kTG+mR+8ri7e8wWYQtDZv4gZItTARZSLyo3JnEsGpQLFHva8VvsPBvYUtXGm3JuloY5hnJUgFW27pSLt1i7ZRvyCXmTTxByRbl/lSKHU2rzLawEufcELZ0xWzLy9u5Ko2TkdfTE5V/OBvpsXuFHOZNPEHJFjXrB3o737BKq4nJbV/wW2jBloxxh/uuGmzhXWAZbzcPSq7LxshIbcS/+lQpSsybeIKYLUX7Y1izpbqKN1CyVv61RC132L+whWN1T8omarYU962YNR7JlBAqbFRVkLbM2ARPaW3FZ0nyy/L/v0qSn99h1Y+/LDuQf/K3xKrfTL7wq/rGYcXbOmttDsv8Tt5l6NGWvPNkh8mUZVtkli1Nm8CWVrS05fmPv5nL8rPf09fAFlZtWjGMWdljsmX5+k7TXGDLrmaPTktbPisGJ7/wj7MVf/NLyU997zlsYQULa2L8/atebfk3FlcZd6yJdceXLdnOnoddj1fbKmN9wMWwij+mivfNvLwlz6IDMW6Jdss4Wb478WqLHc1NeLTyfcfaypZyNtj0QT68X2wDWzbv6A9vaY2jLaPG7uHCluZNPEDJllZ9YrU+Zdas3V95b+DxWtDhsPqwRdau6kOP2+XoZNMmHiBmi/14i6pT9mS3YaJzOPh4LehwWH3Y0jytpZADM1880Wosv1Y3gy06fdjSPGWyLEowq9IPreaJ1Uob2KLTiy36dPz1siFf2oIZ+55oMwdZGX0bVx6NgHYLpxdbptvqpV5GW/RN/ELKluwiljvN17doqwZqD7L21B3YwunHln4hZUv9AknxgPaGVQXLmlqwhQNbFt2W6fcrF9+XttRWFRP9ak8/hC0c2LLwtlRv7KLYYrrny+lsSXUGOWzhwJbFt8Ur8cfb4bBgC2xpRfzxdjgs2AJbWhF/vH0dFmxZhOxpR/zx9nVYsGURsqcd8cfb12HBlkXInnbEH29fhwVbFiF72hF/vH0dFmxZhOxpR/zx9nVYsGURsqcd8cfb12HBlkXInnZQi9cfsIVe9lCL1x+wJYrsoRZvoMCWKLKHWryBAluiyB5q8QYKbIkie6jFGyiwJYrsoRZvoMCWKLKHWryBAluiyB5q8QYKbIkie6jFGyiwJYrsoRZvoMCWKLKHWryBAluiyB5q8QYKbIkie6jFGyiwJYrsoRZvoMCWKLKHWryB0ost7s/zlPjKHnWfvrKne3TU4u0jB51A2RLFuZZavIECW6LIHmrxBgpsiSJ7qMUbKLAliuyhFm+gwJYosodavIECW6LIHmrxBgpsiSJ7qMUbKLAliuyhFm+gwJYosodavIECW6LIHmrxBgpsiSJ7qMUbKLAliuyhFm+gwJYosodavIECW6LIHmrxBgpsiSJ7qMUbKLAliuyhFm+gwJYosodavIECW6LIHmrxBgpsiSJ7qMUbKLAliuyhFm+gwJYosodavIECW6LIHmrxBgpsiSJ7qMUbKLAliuyhFm+gwJYosodavIECW6LIHmrxBgpsiSJ7qMUbKLAliuyhFm+gwJYosodavIECW6LIHmrxBoq7LU/fSdOjl541L9y+keYcud/lCI1Qyx5q8QaKqy1ShePPGhe+uQhbEO9C4WrLKF29zIqStfRC48KttePPGt7dGWrZQy3eQHG0hZUbV/jfDbXgqCwcpSe6H18D1LKHWryB4miLtITVva40LVzXyh2/UMseavEGiqMt67LcWFcKEH3h9o3Vmx0Prhlq2UMt3kBxtkWUGyOlna8vfHPxyHffT9PV8/XGi/vzPCW+skfdp6/s6R4dtXjdcrAH3GxhdS0hxkZpS2Xh1proEqsXMd2/38XOHmrxOuVgHzjbIporui3qwlG6ygdefvBevQe5+/e72NlDLV6nHOyD3bNF8ubiLrT2fWVPtrPn4dfjqcUbKLtXEysYpf7HXahlD7V4A2X3WvkFG7AF8S4GjraMTD3IxoWwBfEuDM6jk7kBldFJZWFZL1vfhTF9atlDLd5A2b2ZLyOxamtNEcoX1LKHWryBsnuzKpk7x+5lr3ZhciW17KEWb6D4mbG/nv/VF26sGSb1e4Ja9lCLN1CcrwbbVi/8WpctFu0SsVcfMl+OXt6NafvUsodavIGCK42jyB5q8QYKbIkie6jFGyiwJYrsoRZvoMCWKLKHWlcwMR0AAAvgSURBVLyBAluiyB5q8QYKbIkie6jFGyiwJYrsoRZvoMCWKLKHWryBAluiyB5q8QYKbIkie6jFGyiwJYrsoRZvoMCWKLKHWryBAluiyB5q8QYKbIkie6jFGyiwJYrsoRZvoMCWKLKHWryBAluiyB5q8QYKbIkie6jFGyiwJYrsoRZvoMCWKLKHWryBAluiyB5q8QYKbIkie6jFGyiwJYrsoRZvoMCWKLKHWryBAluiyB5q8QYKbIkie6jFGyiwJYrsoRZvoPRii/vzPCW+skfdp6/s6R4dtXj7yEEnULZEca6lFm+gwJYosodavIECW6LIHmrxBgpsiSJ7qMUbKLAliuyhFm+gwJYosodavIECW6LIHmrxBgpsiSJ7qMUbKLAliuyhFm+gwJYosodavIECW6LIHmrxBgpsiSJ7qMUbKLAliuyhFm+gwJYosodavIECW6LIHmrxBgpsiSJ7qMUbKLAliuyhFm+gwJYosodavIECW6LIHmrxBgpsiSJ7qMUbKLAliuyhFm+gwJYosodavIECW6LIHmrxBgpsiSJ7qMUbKLAliuyhFm+gwJYosodavIECW6LIHmrxBgpsiSJ7qMUbKLAliuyhFm+gwJYosodavIHibsvTd9L06KVnsxYaN/ECteyhFm+guNqyfSPNOP6scaFxE09Qyx5q8QaKqy2jdPUyKzzW0guNC42beIJa9lCLN1AcbXlzMb3C/26kR+43LDRu4gtq2UMt3kBxtEUqwGpbVxoWGjfxBbXsoRZvoDjasp6eqPxTW2jcxBfUsodavIHibItojIyURry+0LiJL6hlD7V4A8XNFla7EipslCroC42bCFyffVviK3vUffrKnu7RUYvXKQf7wNkW0RbRbVEWGjcRdP9+wSLhlIN9AFtA7zjlYB/0UhMLjJh+Lx9Qi9cfkbbyvUIte6jF6w9HW0am7mF9oXGTIKGWPdTi9Yfz6GQxF+xKw0LjJkFCLXuoxeuPSGe+eIVa9lCL1x+Rzqr0CrXsoRavP/zM2F/P/85vxr5XqGUPtXj94Xw12LZ6qde6FES7/mt7964G8wq17KEWrz8ivdLYK9Syh1q8/oAt9LKHWrz+gC30sodavP6ALfSyh1q8/oAt9LKHWrz+gC30sodavP6ALfSyh1q8/oAt9LKHWrz+gC30sodavP6ALQDYAlsAsAW2AGALbAHAFtgCgC2wBQBbYAsAtsAWAGyBLQDYAlsAsAW2AGALbAHAFtgCgC2wBQBbYAsAtsAWAGyJxZY3F/PbxKarX/vUuHr1ZufPUJ8GsLVW7HCUlvc9F0/XePXhO+xQ3hW34ZT3Ry/QV8+Rv/sO/+Da7UFN387O35iX73SxiM4WhuEu5N5tYZ93oViayuW5F9ufyCPht0Wv2VJdPT9GxQf/a205bPFERLbkGfl3n6SG58F4t6V8RtPWWvqu/D9/usYoXb30I/bqhx/mh1Kxpbp6bqyn6dd5wfvD91MfD5iCLTWis8X8rDH/thSPnRmlR/7X2nF5d/QTlUPhK3Rbaqvnxagsy54aC+CWwJYaEdpienySf1tkw4UtPLF9o/j/Cl9TfH6+kW5LbfWcYGVgeRQjD4+Ygi01IrYlb0t/7Vv56vyXVZextP3fvNV77Fv5+159uMZW3ctfbPM1q+eflatWL/1f1Rb5TObsg8UTZ/PsrzlQtaWfJNMehpsf/UZ6YWMtPXaz/HbSIsx8Wf07qn+noCBCW0RNrGjSnp8Wv6y2jKXtO0q3AMubrAGc7ebVe6I5fFNZdew9NevFU2YzNzfkR/KEZJm4+q2GY5saVs+H8onrGdmhbqT/bI0/bUp8O1tqmNIW7TsyfaegJDpbWCtf/vS8ZGBpn1eG8t9eXcaT4xvP+CvxGMzj96avbsiEP/Zpdq4Vq47dm27/91RrlYunzGZtjzcX+XYyIbOsO/qvfv9Z9dhyqqvnQ+UghOQ85r8U344I85M8zOIbU74j03cKFCKypegezbJCVjzy6nr+y+rLttbU+pOoyedJVdRasiqWrOSPUr21LlLsgmywFOnDazRpObBRHW+prJ4PldzOWk8bIiD57ahhFrZo31H9OwUKEdqSnn+mr6j9svky2YDIX60rFZWyOc8LkKIOU6tRZc8xF1W8C+UzzTl/8dtZDebYzdr7aqvng9mW3I9sXSXMoiamfEflvmCLkYhsyX/O7R++VyTtX/7P//Ev1lL9ly2Xyc6p7K1af5eq3pH75a5vaFmfNVxEJ/AW70Ner3TL8gEV9VnnFeTq+WCuiR0XhR/7diphFq38+/q7Td8pEERnS/Hv1nsy4ctfVlumZYKWTHa2cEPkkD7fvyF7ZJWlYRRS69TdZcyt/Ja2mL5TUBKhLXmnGKuTp+/+y0u//wOljq0vm1m2mIYTK7bwfYqKGP/MKxtqy0c9lKqJhgkBc8DYg9zOFtN3ChRitYUPGlZbpJVleibIapR4s3Iebmi3ZIYUo/Gs4SK6lDUFsr3q76utnhPaUeQtes2WhnaLfkapfadAJUJbstpR8Xq9rDVUlum2VPrEjuSjlNkJ2dwnxpPtnxdzK7fWflGWPOwMLGeYmGpitdXzoj7zRbOloU/MVFtdR03MTHy2/DAbG2DnweP3xCijUraoy3RbivEW0S7nI4jbn4g3m8Zb8sEImTB8JrJssrNk+tqnz/j8+LWsHKmUSdXVc6OYVflhKkdWVVv0MM1lS+07BSoR2aIPuGyIF9+4kVeGZLulXFZtwa4po/fiRaoMN6bpL+rtlsyQoi2wXs7rLafk553Z6ljQzfrq+fHnMioxY1+3RQ+zqd1S/U6BQny2yIus/uJ9lhVfv5dXpsQvqy2r9o5m88S+rs0TK159UpsnxllXpvJuqAXPq99+Ny3fXrGlunqOZFGVl6FVbNGmwxn7xEzfKSiJxRbgjcYOb7ATsIUMsrPOdMUDsAK2kGGUTaCcPp1z38MiAVvIkN1ggDPPCzoXC9hCh+2nvPPh3TnfWmORgC0A2AJbALAFtgBgC2wBwBbYAoAtsAUAW2ALALbAFgBsgS0A2AJbOjJ5eHolSZIDZx67vPv1yWTfE7aTq8mej7MFm9eznRavQUjAlk5MbnNVcg49af/+ii2TW8nhbLewJUhgSxdYVivsa69LxZZxAltCBrZ0IJNl+Tqvgz06zf7d33oPwhaJtAWECWzpwCBRsvsBe3Gu7R5gS1TAFnderGjJPXSoi8GWqIAt7lT0YJm/52723+Qhr5e9fT1fmTVCJrffSpKlg3flxpvX2MtDT7R2y1i0f84p7RaLXYG5AVuc4a0Wrer1uVBn85RI++W7Yrs9v7tSmJAxFP0Cf7qDLRa7AvMDtjjDKmLGjitWXkjybmG142zpA77JUL784mxbLHYF5ghscWbc0E5hbf+lM0/yoRjeS5al+NLZJ3w0JW+XcAl4YfFgRfQ7N/Ug77wrME9gizMNtrAiR5z1xX88xUUhNMyTvmjw8H6CGbZY7ArME9jizNicr0oaD7Lk5ykuigGW9EwOtkDWooYzbdl5V2CuwBZnGsqWQdn+Zhm9f6rKkac47zz7WF3QZMvOuwJzBbY4Y85XJaHrRUlhi3zjzJkvFrsCcwW2OMMyXe+WmvApMOoUr9yFWoorib6TLTvtCswV2OJMbbyF5fohlC2LDGxxpzrVJW+JK42NvB/AS7ulYVdgrsAWdyrzxMZJY0eWnuJKodS+Twy29Ahs6cBQm4Ms3DENklRSvCiU+DBly/EW2NIjsKUD2dD6Xn6NcT75MU9fdQBeqFBJ8Wws/850+tAwlp/twzSWb94VmCewpQuv5aTHfOZj3hgxTO6qpricEZb8gt7Kf7Gy4zwx2NIjsKUT2XwtQXFdfn3icC3FH+QTifU5yHLW5OFZc5BhS4/Alo68vF2/54u8KEW8MqX45rWV2vUtfNtrieiGrlzfMmNXYG7AFgBsgS0A2AJbALAFtgBgC2wBwBbYAoAtsAUAW2ALALbAFgBsgS0A2AJbALAFtgBgC2wBwBbYAoAtsAUAW2ALALbAFgBsgS0A2AJbALAFtgBgC2wBwJb/DyADJNUG7TWkAAAAAElFTkSuQmCC;" parent="1" vertex="1">
          <mxGeometry x="-20" y="41" width="160" height="130" as="geometry" />
        </mxCell>
        <mxCell id="CiWgiKEQsSCrlubR7PXY-5" value="" style="shape=image;verticalLabelPosition=bottom;labelBackgroundColor=default;verticalAlign=top;imageAspect=0;image=data:image/png,iVBORw0KGgoAAAANSUhEUgAAA94AAALuCAMAAABvvj4AAAABelBMVEUAAAAAADoAAGYAOjoAOmYAOpAAZmYAZpAAZrYAv8Q6AAA6AGY6OgA6Ojo6OmY6ZmY6ZpA6ZrY6kJA6kLY6kNtNTU1NTW5NTY5Nbm5Nbo5NbqtNjshmAABmOgBmOjpmOmZmZgBmZjpmZmZmZpBmkJBmkLZmkNtmtpBmtttmtv9uTU1ubm5ujqtujshuq8huq+R8rgCOTU2Obk2Obm6Oq8iOyMiOyOSOyP+QOgCQOmaQZgCQZjqQZmaQkDqQkGaQkLaQtpCQttuQtv+Q27aQ29uQ2/+rbk2rjm6r5P+2ZgC2Zjq2kDq2kGa2kJC2kLa2tma2tpC2tra2ttu225C229u22/+2/7a2/9u2///HfP/Ijk3Iq27Iq47I5P/I///bkDrbkGbbtmbbtpDbtrbb25Db27bb29vb2//b/7bb/9vb///kq27kyI7kyKvk5OTk///r6+v4dm3/tmb/yI7/25D/27b/29v/5Kv/5Mj//7b//8j//9v//+T///8xefXdAAAACXBIWXMAABkRAAAZEQGQh6VoAAAgAElEQVR4nO2di38Vx5mmW1x24CzYZsLBs0ZiJs4yA0ocI5LYypKdhE2MLYx3x7NmFzSJFUiwJ5BZQIiLOOr/fbuq77fq7uq6fF/3+/x+iQ/Subz9VT2q7urqPkEIAJgoge8AAABbQG8AJgv0BmCyQG8AJgv0BmCyQG8AJgv0BmCyQG8AJgv0BmCyQG8AJgv0BmCyQG8AJgv0BmCyzFHvg0Vw8rHDz9sLMo6/d7fz6as7iyBYu+ogGBFW28Gxe2TfjjVz1DvSbe0zt59X4FzX03fk06A3kbdjzQz1jpo/CM47/MCy3l0fHe1bBI7//ngGeltjhnrvB2tnnHaAvVzWRxud5u4HwSmXhw5gwsxQ753g2P9yuvNb0FvuOqiH7/1Z7ZgDq8xP78P14JT4n7tPLOotB2fls6E3MMb89Jb67KTG7eUyRQe9clx9eSM6+j1+Od5Bjv4QXF3dCIJ3xIz3I/Gb4OyVdN9ZPvOdm9GInMzEl16a0ax388dsJAfoItSr22IK/dz3lSDyb9PL6OHaP0Y/X92Onp3Nx5cSylyPLgUiY/rx8adeKf+zGri2pfJp0btUn1d8ebRh8RFPvIOSp8xPFrRUNj9YLj1BN37ydl0vL7Vs9Y06tr+tbOSYn947ovH3013kwjieWJhOhMWnpqLfXxFTcdFrRF+IOXEveUHMexuJ3uWXZjTq3fIx/5Dr/WCRPONKOYiIHM+/BefCl+tBPhNXSSg6ePqTc2mUmOToviVwdUv3F+UNzzes+PKdfMuichRSrl1penq+QZne5Sfoxi/orXp5oWWrb9S1/S1lI8js9I663CnZtsmAu5OOHMkYnE9zS2WiJ34oe0R6wipI/iVFzZBvVnlpRvXY+2r9udnHpB9ytfj2V0tBokf/aT157e+2i4kqCVfbQfk9Cu95PlQErrxPVLK1977++quNynFFfRvEf8WzP5P/+pvs8682Pz3ZoFTvyhN04+d6K19eaNnqG3Vsf1vZCDI7vZO98Z10p3y/8OB8fFpK7E2+3I6djTpBsCZ37kQji521V7fjv/jiNyfuxpPh8qnVlxY+Mu0Gq4cb8YvbPyYNlL79y4384+JniEfBucfhSvbC974PV19mb1pKKDu4+JSHi7hjileKf0f7BU0hUqrvk+XfKZ1wqL18X/w3nTuUKdP6NJUn36DEx+oTdOMX9Va8vNSypTfq2P7WdibI3PROj5PjQTws7J3vpLtpyQgV/wEQnSDWPztKj95CNHd2AmuVNHP1pRmV897J4N3yManee8W3P198hnh0Pn2QZheJqgnFK+PfJ+v0suP++Jltgavvs9M8StVfHv33/F7S50W4k9kGNHxavkGJj9Un6MYv6K16eallS2/Usf2t7UyQuemdzp/l0zk72b7iqdKSiPiZ0Y9rp8h3Ko0ed5/aSzNKesfzYYqP2U93Lwpvf6r4jOxR0vvCytF99uL899mBR/Fp7YEr7yNW+f3Xb6q/a3h5lOz4IvmMZFc92aLzqk2Of1V7gm78XG/Vy0tlbKtD0/b3KBsd5qZ34bAqaZqkjfbTP+np4WXUjKWD9Jjv/vTP8cqUfLo8eU7tpRmFY7Wzl79PXtH6Mfvp0JX+IH6YP6Nh3qDYc7OEhfdIHpV3rtsDV97nMD7SP/Hr0p5o08v387IWtkg+U7HJsTC1J+jGL86ct788//yWN2rb/o6y0WJmeictFZPtO+aNX/p92ar0bEkypVJu5fiZtfeOqY6t6o/J/s4U9I57f653tnNY0buUsNbBC38yGkPklN8nPEhP15242/HynaCeMv5cxSZnG1h+gm78Fr0rLy/pXX0j1fYrykaPmeldnO0u7dkmvfFgUWm7gmbiBHNw9t1f391JXlAeXmsvzajrrfqYPqN3i97lhF0dvD1w5X0iHt4olazt5XK66rNKyvhzFZsc+1h7gm78oXrX30i5/e1lI8jM9C7MkuwVZl7OF+ary7tbeSfcl9PV2Zuods4rNI7ebR8zQu9KwgF7t2Wq7xPz8qtLpe7c9PKdkumnis9UbHJt57y43cPjj9g577P9blc8jmReehd3tQ8W+dTKycc78S9qVxtlryj1lo6ptQp1vds/RjW11qF3LWFDBy8OrW2Ba++Tp9wovKLh5WJu+st8Wr8wWXhetcm1qbWGHP3jK/Qu7VgUW7b0Rh3b397OBJmX3nvF6zkKp77Xfrue/GIne0bFqrw3JpeLZ+dZ0hNj1ZcWPrV2Yqn1Y4onxvLzSuf76F1LWOvgWeT4HH9L4Or7lN6m0LNrL5dGpzPmYj/9XPqq+M9h2yYnb1t9gmb8Vr0rLy/OUJbeqGv7W9uZILPSu/zXOGvuqD3Ppr9I1yysHmSLr3LLxC7boxtBPp96Mll3Ip9TfWlGg96tH6Na1tI9epcT1jp4srAj/dCWwLX3ifrzCXFeSCzzKHTn2svjfr+fLyKJV5VsNJenpnf1CZrxW/WuvDz//MobdW1/azsTZFZ6l+/ClJ+Z3SkcVBZOUie9NP9TniMEVCxKrS7erPeC1o/JltHVF6V2HXtXE9Y6ePuqzpYTeUG2ACTIppZat2E/X2xWflHyqtZNTncKKk/Qjd+md31Rakubd21/WzsTZFZ6l/bNCztl+0HhF1njyemVUieMee/LSvd6L+1I5ZcWPrbhj3zbx+SrZP9YvaSkS+9qwnoHzz71XFOIlNqWZpPF6cUhTduQ/bWMJzVE3uSimBOfdVa2fElJ/IQR8Zv1Lr+8OA9T+2D19re0M0HmpHd1pmS/MMtb+IW82m/tnXiZUvH8150z4vLGb3K/8gtCTzW8NKNR79aPya/3ji87zC8I7TwxVknY0MHj9zxRvkKyFri2pas7ZwNxBeT3im3ID0n3gvQIVhxZFK6bbNnk/JC+9ATd+O16l15e1LvyRp3b31w2gsxJb1uwOlXiipI9wBPQW5d8TK7s8wMB9KYA9NZFnDURt+8Q86nUJ1A9AL0pAL11KU4NY/CuAb0pAL21yRcfd34zwQyB3hSA3vok86k9vldohkBvCkBvACYL9AZgskBvACYL9AZgskBvACYL9AZgskBvACYL9AZgskBvACYL9AZgskBvACYL9AZgskBvACYL9AZgskBvACYL9AZgskBvACYL9AZgskBvACYL9AZgskBvACYL9AZgskBvACYL9AZgskBvACYL9AZgskBvACYL9AZgskBvACYL9AZgskBvACYL9AZgskBvACYL9AZgskBvACYL9AZgskxa79XDS4sgWHvnpu8gAHhhyno/iNyOOXHXT4L94z9KP/nlr85cbXjGweJUuNo+di8MDzeC4FTju+ysfZY9l0ik/aDplbq8vCH+Cp/7vvCjOEDbPwsYLc7ILGarYoIJ670XaX3zcRi+urMI2hpkDM8F6qfsB8HJx/HDnaCx7XOXoicE5xvfpX8PviZwEalvRz4t6HrSH5M/w2tX8p9Z0Pu+wGoW6O2Og0XWNV+utwxCY3j+vNvvyKWk9x2un211SRJ1ms9a3qV3D752rdtvM5F6duTTp3v4HSUSg+Wr281/bTroXZz793v4PS4L9HbGarug9L754fv58x5+7wfvLuK/MXvH/nuXS+mgWqNvD752rYffZiL168inT/fw+3A92bzogzVaqW9x7t/v4ffILNDbGQeLtXzoOfzlrx+L6p/fXwQnoh+v7pwJguOXH8dPjBvycF00zn606yp20N5rPFp/rqb2/P3gB7Eiq+1Te7LtV7cX0ZGd/OCXl6Kh4s/JnvC+2CM8+SDe4ThYlHaJlT34mhpLkRQd+bSa2vP38v1/+XDv2P/ZCI79Tu4Bv9wI1v4xPViI/tr8Wfy7/HJVce53YDoL9HbGXlAbesTAJY88D9IDLNEzanr/t/h3TS01XO/ze8mHXJUuickqMdV3L0xCvFty6d/XZei9tdJOsWG9TUQyqPdO/s5yA/eO/UP0sX8RSpXzRPtjkvONLzei98gs0NsZO/XDbTGrdDf8Toh84mYYRn9+j92r6x2NX4/Fn+qmnTMNveNhb+/YPenSjkjwUh437IjPebAIknmseE9Y9q/qTvFOegKgaQZBQ28DkczpXZyoOhR/SvaC+AOlQyJPEGRKnby7+jLoX5yheo/NAr2dsVOf891P5kv2gkzo8w16n89/V0VDbylGtCMcCpcO1+Vnif8cLOJRseySNK+yI2xcbwORzOl9uJ4rIj813kEWDyt5VtvCteLzu4ozVO+xWaC3M1K9I0/T3ahkgi36y5v01b14T72sd/IHvGHnvohK6pzIJblbK9pduJTuQUYj4n56TFtySf5/ZUe47+yRSmrTkXp1ZNUueUZxvyD+qHhCQB4dlPIk5+KrevcrjmqX3FgW6O2MdOe8pLdsjdhjgXS5PrWW/05BH7ulS+J/O3Ik6OGS8Kg2YW145txEJHMz5/E4GCOHSDt695o5H5sFejujNPrGA3ZNb2l2i96dZ0Z62C09ivrAv6+LaZpeLkV7wdUdYdPnvU1EMnjeuzZbbUfvXue9R2aB3s4onRhr0XvM6N1z1dp50QH/Wbxz5UA36RqVA13xny8rO8KmV62ZiGRw1Vr1XHOuVO14d5TefVatjcwCvZ1RWtZS0rvl2PtgMeTYux/78ccGWVcpTVOfehw+rExTR89eO1P9YLNrzo1EMtmRKyvFcqWihvpBYSZ/rN72s0Bvd0S6/iAt/sNFQe/azHncQfaC7pnzoUiXDuMlsfFJ5ngmIO4bxROpmUsNH2xe79GR9tPpahP9Ob30J14lkiuVrU9wp/e4LEarYoTp6i1OUh6/8r24LHQjaq7/keudnPd+uJH26RN3w9WXQaq3+KvQct57KPER205xJCgsEbsRDRXVA93S9E6Ceb1HRzLbkV9FCYLjyVVaBaVEMwQn/iU68Hem96gs0NslBxvZOVHZewvTZsmf6HTYFvxtcux9YqPwO/dUuwwBPEfaN7EfZQhKWfowZb2jAVpcvBu8czmdLUu7aXHNuRzGo+E8m1r7Sz6auWd1m86f/gRvkQ4Wx+6KUdPXX1qqWQYwbb2Hs29iRk0bsZT5ZLyjkeNXd4+R0oXd5yo/91EcSlkGAL3L+NU7OiaObyxDqNd4jLSSx8FXqj/2UhxKWfoDvct41hsAk0DvMtAbTAjoXQZ6gwkBvQGYLNAbgMkCvQGYLNAbgMkCvQGYLNAbgMkCvQGYLNAbgMkCvQGYLNAbgMkCvQGYLNAbgMkCvQGYLNAbgMkCvQGYLNAbgMkCvQGYLNAbgMkCvQGYLNAbgMkCvQGYLNAbgMkCvQGYLNAbgMkCvQGYLNAbgMkCvQGYLNAbgMkCvQGYLNAbgMkCvQGYLNAbgMkCvQGYLNAbgMkCvQGYLNAbgMkCvQGYLNAbgMkCvQGYLNAbgMkCvQGYLPz1fvbMd4Le8ImKpObxkRR6O4RPVCQ1D/TWgU/7MoqKpOaB3jrwaV9GUZHUPNBbBz7tyygqkpoHeuvAp30ZRUVS80BvHfi0L6OoSGoe6K0Dn/ZlFBVJzQO9deDTvoyiIql5oLcOfNqXUVQkNQ/01oFP+zKKiqTmgd468GlfRlGR1DzQWwc+7csoKpKaB3rrwKd9GUVFUvNAbx34tC+jqEhqHuitA5/2ZRQVSc0DvXXg076MoiKpeaC3Dnzal1FUJDUP9NaBT/syioqk5oHeOvBpX0ZRkdQ49wWuPxR6O4RPVCQ1zf37PvyG3g7hExVJDXP/vhe/obdD+ERFUrPcv+/Hb+jtED5RkdQo96G3LizaN4ZPVCQ1xf0qTj8dejuET1QkHU9NbOitAd32rcEnKpKOoUVs6K0BxfZtgU9UJNWkzWnMnGtCrH1V8ImKpIPpGK292A29XcInKpIOoN9uuA+7obdL+ERF0n4MOb7GmnMd+PRERlGRtIvhM2fQWwc+PZFRVCRtZ7jYMdBbBz49kVFUJG1EU+wY6K0Dn57IKCqSVtAdsgtMTu9nAHCnTWzfudpwp7cT+Aw0jKIiqWD8iF1kcqO3E/j0REZR557UwL54DeitA5+eyCjqfJPaEDsGeuvApycyijrLpNbEjoHeOvDpiYyiziypvSG7APTWgU9PZBR1NkmdiB0DvXXg0xMZRZ1DUndix0BvHfj0REZRp53U4ZBdAHrrwKcnMoo61aR+xI6B3jrw6YmMok4wqUexY6C3Dnx6IqOobJJeE3Q8x+eQXQB668CmJ3KKyiXptWtKv4mIHQO9deDSE0NOUZkkvXat1W9KYsdAbx2Y9EQBn6g8kkZeS2fLfpMasgtAbx149EQJn6g8kiZ2C7/lv6mKHQO9deDREyV8ovJIei0T+BppsWOgtw48eqKET1QeSdtGa3JmS6C3Djx6ooRPVBZJ2YgdA711YNETY/hEJZ60TeyO82R+gd46EO+JRfhEJZu0dV/8WhnfORuA3jqQ7Yl1+ESlmLT7SJu24tBbB4o9sQU+UWklbXW6frhN2HDorQOtnqiET1QqSVW74oXfl19EVHHorQOVntgDPlH9J20dscvSNtgtoGg49NbBf0/sDZ+oPpMqj69rvrYnpaY49NaBjzOMovpJqp44E9RVVSYlZTj01oGPM4yiuk7aLbagydLOpGQUh9468HGGUVSHSXuJLWj2s0/SayQUh9468HGGUVQnSXuLLWlRs29S/4ZDbx34OMMoquWkw8QWtFo5IKnnQRx668DHGUZRrSUdLrak3ceBST0aDr114OMMo6gWkvabPWtE5aJGUk+KQ28d+DjDKKrRpCPEFqgt1Evqw3DorQMfZxhFNZR0pNiSDgP1k7pWHHrrwMcZRlFHJzUhtqDTvVFJnRoOvXXg4wyjqGOSGhJb0EO70TV1pjj01oGPM4yi6iU1KLakj3EmaurGcOitAx9nGEUdmtS02IJ+spmqqX3FobcOfJxhFLV/UhtiC/pqZrCm1+wqDr114OMMo6h9kpqaPWukt2GGa2rRcOitAx9nGEVVJ7UqtmCAXOZramsQh9468HGGUdS2pNbFlgzRyk5NbRgOvXXg4wyfqE3GOhFbMEwpezU1rTj01oGNM3yiVsR1JrZgqExWa2rUcOitAxdnQjZRc3+dii0ZLJL1mhpTHHrrwMQZAY+orcfXdsUWaCjkoqZmDIfeOvBwRsIjqh+zQy253dV0vOLQWwcezkh4RPUgtkRPHIc1HWk49NaBhzMSHlHdiy3QHRUd13SE4uT1Pvp8ufy7T+KHv99cXvj508Lvqj9wBQ9nJByiehi2Q325fdRU13Dqer+9vhR8LB7vyocX81/WfuAKDs4kMIjKzW5PNdVRnLreT5YXn4b/sXnhizB8vfn+H6L/Ew9jaj9wBgNnUshH9XHIPUpujzW9NlRx4nof3Xr/21BI/qkYq6P/C1/ko3XtB84g70wO8ai51R7s1n2115oOMpy43glC78T0t1sfJAfbtR+4g7gzRUhHLY3Z7pKOGrpD/zXtP4iz0Puvm5HBicaJ1GFY/4HkGWBDIrfjT02ccPyppqkY7jfMGL2fLJcffNtgM/TmjR+5J2K3hIzio/T+ceS3GL3jY+zdXO/KD9zhe+9sAFSj1qfSnCQdu18uIVTTjt10FjvnR/+2vNh39HYCofbtgmjUholyB0mNyE2upgrFWegtFYbeWpCM2ngWzH5SQ3YTrGmL4WY2dyAai1KjHXDMnGtBMGrLKW7bSU3JTbKmYZPi5rZ4CAP0Ttx9uxWZjPPeOpCL2rqAxW5Sk12dXE1TrjXjNsSQ0XtXrFp7c0so/GJ54Yvw9aZ0WlL7gTPItm8dalHbV6e5uAeKmTejVtMS3v0etOZ8S64rl2N4vsQ8GdSx5rwbWlFVS08tJjXcy2nVtA4fvcM3ny+XFz6SR9f5BWLprBquGOuEUlT1unLbNyg0936UatoGE71JwqF9E+hE7bpqxFZS812cTk1VQG9deLSvhEzUzkvCrN493Oh7kqmpEuitC4/2lRCJ2uN6TytJrfRvIjXtgsHMOU2YtK+ARNReF3NbSGqpe5OoaQ+82A29XUIgas9bNRhPaq13E6hpP3zYDb1d4j9q3/uwmE5qb+zyX9O+8FhzTg0+7es9av+bLJlNanPH1HdN+wO9deDTvp6jDrmDmtGkVo86+TQ/9NaBT/v6jTro/ogGk1qeU+LT/NBbBz7t6zPqwJufGktqfcKYT/NDbx34tK+/qIPvbGwqqf3TQXyaH3rrwKd9fUXVuG+5maQuzvXyaX7orQOf9vUUdbjcZpK6WcjBp/mhtw582tdLVB25jSR1tEyLT/NDbx34tK+HqHpyG0jqbA0mn+aH3jrwaV/nUTUOuhNGJnW4wJpP80NvHfi0r+uo2nKPTery8gk+zQ+9deDTvm6jjpB7XFK310bxaX7orQOf9nUZdZTco5I6vvCRT/NDbx34tK+7qPoH3QnaSZ1f1syn+aG3Dnza11nUsXJrJ/VwzwI+zQ+9deDTvo6ijpdbN6mPO5LwaX7orQOf9nUS1YTcekn93G6IT/NDbx34tK+LqGbs1kjqR25OzQ+9deDTvvajGpJbI6kvuxk1P/TWgU/72o5qTO7BSb3Jzan5obcOfNrXbtTRJ8OKDErqUW5OzQ+9deDTvlajmpR7WFKvdjNqfuitA5/2tRjVrNxDkvqVm1PzQ28d+LSvtaim5R6Q1LPcnJofeuvAp30tRTV60J3QM6nvoTvk1PzQWwc+7WsnqgW5eyYlIDen5ofeOvBpXxtRrcjdLykJuxk1P/TWgU/7mo9qSe4+SWnIzan5obcOfNrXdFQbB90JXUmpyM2p+aG3Dnza13BUe3J3JqVjN6Pmh9468Glfo1Ftyt2RlJDcnJofeuvAp30NRrUrtzIpKbk5NT/01oFP+xqLavGgO6E9KTG7GTU/9NaBT/uaimpd7vak1OTm1PzQWwc+7WsmqgO5W5OSk5tT80NvHfi0r4moTuRuSUpv6A45NT/01oFP+xqI6sjupqQk5ebU/NBbBz7tOzqqK7mbkhK1m1HzQ28d+LTvyKju5K4npSo3p+aH3jrwad9RUe2fDCtSTkpXbk7NT0fv1cNLi2P3Dn95d9ybPwOmSOT28tmJ3V4+GwylW++XG0EQRHqvB+fH+e0CPn++9aM6HbkFhaSUh+6QU/NTGb0jrU/8Jhq9V7eDtc+cJxoKn/bVjepc7kJS4nJzan4qeu8FpyLFj90Lw53oEXX4tK9eVLcH3QlpUvJ2M2p+InqvtqMxO9b7YHHysftMw+DTvlpRfcgdJk7Tl5tT8xPRW5od6x3/P234tK9GVC9yp1ozkJtT80NvHfi07+CofuRmZTej5iei92o7uJqIvR9g59wgw6J6OegOy3a7/uzh8Gl+InqHe5HUUu+XHM6M8WnfYVE9yV3S2/2HD4ZP81PROzkx9tsbi4D+vjmj9h0S1Zvc0NsWVPSOl7UIGJz2ZtS+/aP6k7t03A29TUJG73D14Gwk9/HL5A+8Q07t2zsqhf1y6G0aOnpzgk/79ozqS+6q2yzsZtT80FsHPu3bKyoBuVksZ0nh0/zU9P7eWYox8GnfHlE9nQyrjth87GbU/GT0Xt35z3JNyxqHg28+7dsd1d8K1MqAzaeoSKqiSe/VdhAvWQsYrGph1L5dUX3LXfgpn6IiqYrmZS1rV+SDBwssazGJMqoPuVvn0fgUFUlVtC1KjcGiVKMoovo46FbMkfMpKpKqaLukpPaQLHzaVxHVvdzq8198ioqkKhr1zharHSygt0HaolKTm1NRkVRF07H3TnDqcfbIaRod+LRvS1TncvdYuMKnqEiqoknvg0Vw/PI33z36aoPDonM+7dsY1fVBd79VaXyKiqQqGs97P1ikl5RccZ1nOHzatymqP7mVz+NTVCRV0bxq7dWdM/KSEg7r1vi0bz2qW7kHLCfnU1QkVYE15w6pRPUmd/eT+RQVSVVAb4eUo7q0e5DbIaeiIqmKFr1X3yXQ3z3n076lqA7lHrBTnsKnqEiqQj21FjC4GxOf9i1E9SN3/xfxKSqSqmjSez8IoLcN0qjuToZpDNwSPkVFUhXNa86P/Y78UvMMPu2bKu1D7oGv5FNUJFWhXpTKATbte7+E9Y/TdztkVFQkVaK+pIQDXNqXkdx8ioqkatq+QpAPTNrXpd0j3Q7ZFDVEUjXNt3OgfxOHHCbt60xu3dm0EkyKGiKpmpabMf2A/vnuFCbt60hvE26HbIoaIqmaxmNvnBgzjwu9jQzcEiZFDZFUDfR2hH29jbkdsilqiKRqmnbOX32XQ38nnUX7Wp9XM+l2yKSoEiRVgUtKXGDbbsNy8yhqDJKqgN4OsGu3cbdDFkVNQFIVLXonu+Zff/X3OPYeS+61hajmZtNKkC9qBpKqaNT7j7hizByFUdt4VDtuh/SLmoOkKjquGFs7R/7aEuLtW9wnNxvV0sAtIV7UAkiqovlGyCe+ebSx9rtH2xyWr9Fu39IBt8moFt0OqRe1CJKqaD7vfVU4fpXH6nPK7VuZTjMW1a7bIe2ilkFSFa1XjMmF5/v4GoMxVCfLDUW1LjfpolZAUhWtekuzD9fxFYL61E6FmYjqwO2QclGrIKmK1gtCDxaR2Rwu/SbbvvXz3KOj2pxNK0G2qDWQVEXz1Nr5ZAyvfIXgm58tlxc+ehqGb7eWMe9/m/7uSfyDT+1HrkC0fZtWsYyM6srtkGxRG0BSFS3fMXby8Wo7OPdou/T93q83pcEfPG3Sexd6F2lcozYmqrOBW0KzqE0gqYrGZS17YjVLfPb7av7To1vLnz4N31xffpz+5Elu89GtyHovkGzf5hWo+lGduh0SLWojbJKeFrj+0JbvGPsqGrQfbpS/QvDt1kXxn9ebF5MfvN7MlU5+6QGK7duyvFwzqmu3Q5pFbYZL0tOnffg9/JKSt1uJ1Ee3LnyR/fT15sdtL7AMvfZtvXhEK6oHuSkWtQ0mSU+f9uL3cL1fLC9WHsT/+MX15fIn5R30Z7MksbEHdv4AACAASURBVNvIexXcNvJ+wA+nc2x/VB+922/nkI3ZpcE7nTjPp9pmq7c5u69B7qlASu/bipsx7aYza6XB++jW8qOn4ZtbS/dH4LT2zpRXdQ+K6mWnPIVWUVXwSFrQ2+nnNt8IuVXvo91M4N2Gk2Bvt8rDtwtIta/6ng39o7o9DVaHVFGV8EhKSO9V+Wx3kXiQljSafHRr3np33JGlb1TPboe0iqqGR1JCerd/x9ibrfycd35+rMDM9e663VKvqP7dDkkVtQMOSU/7snvQd4y93brwSfaPJ6V98+RsWfFMuCvItG/3zdS6o/reKU8hU9ROGCT1Z3fzmvOW0bt0tL1bnDcXv/uovKLNGVTat8etEruiEnE7pFPUbugnTbwms2qt5TLQZMm5XHRe2A2PB+58PbpriLRvnxuhKqNSGbglRIraA+pJ80GbzJrzg/Xg3Q9jfpSL/mKp0Dt88/lyeeHnHtad02jfXnc5VkSl5HZIpah9IJ60sEtORe/VNr6EaBg972HeFpWY2yGNovaDdtLiATcVvXeCYO2d+uhNFALt2/cbCpqj0pObRFF7QjlpeTaNiN6H6xxukJrhv317f/9IQ1SKbocUitoXwkkrc+Vk9Ka/R17Ae/v2lbseldRsWgnvRe0N3aTVM2FE9F5tc9Lbtxu9h+6w2sBk3Q4pS1OFatL6aW4ieod7xXu0EMe3H0PsLjYw3YFbQlWaOkSTNixioaJ3eLt0lxbK+FZkkN15UNpuh2SlaYBm0qYlakT0Prx0RpwSOyt5h/R+umdNBsmd7WiQdzukKk0TFJM2rz+lovd6+wWhxLhmjx6frmU3B7lpStMMwaQtq8uJ6L3609c5/0r6vLdFvbtJ7NZ8te/SqSEoTQv0krZdO0JE7/DhXecxNDGq60AmLDdFadqglrT9wjAierP4XtAYo74OYszQ7btqPaAmTTvEkiou+ySiN6dlLfaUsWc39DYJqaTKi7qJ6M1o9PZ13nvYpJoEetuBUlL1HRuI6B0eLNZu1m6ATBV/dg98ESe7SUmjhlDSjvuxENF79asfcjkxJnBeNY2hW8LIbkrSdEAmaefNlojozei8t8B11XTt9r88fgBkpOmEStLuW6kR0Tt89d137d9SQg7HVdO3m05X7AZJB9LjRolU9OaF26qNkJtMV+wBkg6i111QobcOLqs2ZugOiXTFXiDpEPrd45iO3quHlxbB2js3Sa9ITXBYtZF2k+iK/UDSAfS8gzkZvV9uJBNrHE6Au6vaWLspdMWeIGlven89ARW9D9eDtfe+/vrrGwsGE+fOqjZabgJdsTdI2pf+Xz5CRe+94Fh8UclLDjdVdFQ1A3Z774r9QdKeDPhqISJ6r7azmzHtt35XKB3cVM2E3b674gCQtBeDvjeMiN6FS0o4XF3ipGom5IY0NvCZdNi3AkJvHRxUzcjQHUIaG3hMOvA7P4nojZ3zCqbshjQW8JZ08Bf6EtFbTK3FYzaL7yuxXjVjdkMaC/hKOthuMnqLE2OXv/nu0R2cGAtNHXZLII15PCUdbjcZvcODBZa1JJgbukNIYwMvSTXkJqR3uLojbnV+/DL5A+/QctWM2g1pLOAjqZbdBPRebdP+2oImbFbNrN2QxgIekurZTUBveSKMw9mwAharZlZuSGMD50k15aahd3S0Db1jDA/dIaSxgeuk2nYT0Hu1HRz/8IeLtXc/TPkR+cNvW1UzbzeksYDbpMo7HXfgX+9wP6hAfyC3VDULdkMaCzhNOkJuEnqHj36F0Tu0IzeksYHLpKPsJqF3yGOheQEbVbNjN6SxgLuk4+Qmo/dqnf5C8wIWqmbJbkhjAWdJx9pNRm9OX0Jko2qW5IY0NnCVdLTdVPSe+c65raE7hDQ2cJN0vNxk9J736G3RbkhjASdJTdhNRW9eXyFouGo27YY0FnCR1IjdVPSe81cI2pQb0tjAflIzcpPRe75fIWh16A4hjQ2sJzVlNxW9Z/sVgrbthjQWsJ3UmN1k9DbGM1YkdvuOAQgRy+07xSDc6e0EU38UbQ/dIcZEG1hNam7oDimN3uIrBI/dO/zlXcdpdDBTNes75gJIYx6bSY3aTUdv+RWCkd4cbpRqpmpO7IY0FrCX1KzcdPSOtD7xm2j0Xt3mcC9FE1VzYzeksYC1pKbtJqP3XnAqWZm6Ez2izviqOZIb0tjAVlLjdlPRWy5KjfU+WNC/eGx01ZzZDWksYCepebnJ6F24nyKHq0vGVs2d3bOXxgZWktqwG3prMbJq7uSevTRWsJB0zA3VFBDRW36FYCz25L9C0OHQHc5cGkuYT2pHbjJ6h3uR1FLvlxzOjI2pmlu7Zy2NLYwntWU3Gb2TE2O/vTH1rxB0bPecpbGG4aTW5Kajd7ysZfpfIehY7hlLYxGzSS3aTUfvcPXg7OS/QtD10B3OVxqbGE1q025CenNCs2oe7J6rNFYxmNSq3NBbD72q+bB7ntJYxlxSy3bT0Hv18MMPf3TTfRBttKrmQ+55SmOZ5wIj72TbbhJ6HyzknNoJDpeCxmhUzcvQHTKShk3S588N+W1dbhJ6C7vf/fCHHO6xljK8ar7sZiMNm6TPnxvy24HdFPTei5epsVjPkjC4at7s5iJNyCXp8+eG/HZhNwG9s28w4LAaNWFg1fzJzUUaAY+khvR2IjcFvbNLSA4WbPbOh1XNp91MpBHwSGpGb0d2U9Kbw6ViCYOq5tVuJtIIeCQ1orcru6G3FkOq5lVuLtIIWCR9/ny8387kht569K+a36E7ZCKNhEPS58/H++3QbuitRe+qebebhTQxDJI+rzH8PVzaDb216Fs1/3ZzkCaBftLE6MRrLcGdyk1E72/kV4s9Sh9M5jvG/MvNQZoU6klznZOkGn47tpuE3kEF+oN4r6oRGLpD+tLkEE9akDlLOlBwSzdUUwC9dehTNRp2U5emAO2kRZMLSYf47VxuCnpzpEfViNhNXJoilJOWh+li0v4DuAe7obcW3VUjIjdtacoQTlpxuJy0n98+5IbeenRVjcrQHZKWpgLdpNURupK0zwDux27orUVH1QjZTViaKmST1uytJe3025Pd0FsLddUo2U1XmhpEkzaMzfWk6gHcl9zQWw9V1UjJTVaaBmgmbRK3KanCb392Q28tFFUjZjdRaZogmbRxWG5M2jqAe7QbemvRXjVqdtOUphGCSVuUbUna+GyfckNvPVqrRk1uktK0QC9p24DclrTh+X7tht5atFSN3NAdUpSmDXJJW3e325NWX+LZbkJ6rx5eWhy7d/hLDrdDbq4aRbvpSdMKtaTtk2WqpMVX+ZabkN7yKwQjvVncL7WxaiTtJidNK95VKKM61aWsaf5C/3aT0Tv5AuB7q9scviK0qWok5eajt/urqZQoT2R31DR5KYUNoqL3XnAquZ/DTvSIOvWq0Ry6QzZ6nz5Nym/1MpWumoqX0tgaInrLm53Heh8s6N/uvFY1snYz0fv0aUp+dy0i764pEbup6C3NjvXmcE+matXo2k1e79N1fEfqvESku6bxhhj6osERQG8dKlWjKzdRvRucpmN59wVgXTVN5e66jMw+RPRebQdXE7E5fBdRqWqEh+6QkN69lCYgeY+rOztqmgTvc52obYjoLb9HUOrN4psEi1WjbbdnvTWd9md5LyfVNc0D+xecit7JibHf3lhUbrX25mfL5YWPnoqHT5aST7PfHf1+c3nh50/tpm2iUDXidvtoYB1vC//2aXk/IVU1LeX07jcVveNlLYLyae/Xm1LpD4TDu1W94x9ctJu2iaxq1OV21sCjx+Lab3xY3lNHRU2r+TwLTkbvcPXgbCT38culA++jW8ufPg3fXF9+LB5/UB6oX2++/4fo/y58YS9qC2nV6NtttYHHKl1/s2EfYXhzeqvYWtOmXF79pqN3I2+35Nj8evNi9jhnVw7kLzwM30nVGNhtvoGNOt03qQvJ+w+0bUmb8/gcwInrnfB2Kxq4X29+XPrh0a33v01/55i4agzkNtTAg5TW9a1HUpuWD7CwJWlrDn9+E9F79aevM/61/i1EcoR+sfzF9eXyJ5nLideJ5SnPHHC/gIvP88Mgpckk033PWMHRoVRvPubdadOld/WrSs5VjsDF8XUycZ7J7E3vKdtN1+lhWQe+1Xj/Oj522n536n3pjLD6bOZ3aWnLbjyztvzoafjmVnaonR6L75b0tk/RbqcfrIPsdH2e0xtrUTV3JE2EHXh43JC08+P8HIET2TkPVzvxiL26HZwLwweL4Gr2q6Pd4uTZ263U5ubR2zqc5FZcZklD6SLjuuKY+EPVqyXt9TE+/Kai9152GeieWLVWWJkaj9oZuc3Qu5NqB6fndAHrk4AtLxk+rlaT9qyXhwGciN7ygtAYeUFofl3Jm61lacI8t9nTzDkjvQfZ7MfpAia74oBN1JCukrR/5ZwLTkTvwmVihYvHQiHvhU/C5JHU+PVmZrOf897T09t3zAQLXbHHVusYV0o6qIau/Sajd2H0jsyW/yfYzdeg7sqptev5YP5ieeELsWr109AlE9Hbd7Y61rqi8m+bjm7FpEOr6VZwInqHO+nB9mpbHIXvJf9MlpzLReeF5efJSO5nzTkbu+v92ncgJba7ork/doWkGi936TcVvQ8Wwdrlb757dCf672erG0FyVeiLZa53+ObzZXKBWDqr5ueKMS52E7vFURcELn7p+RZZUr3aOhzAqegt/M6uGDtcp31LByZ2h4P7rVfcdsUxlqdJtWvrzG8yeidXjJ0VV4ytfnWTst2+75HQF152uy5qrJiW5UnSEbV1NYDT0ZsTLPRmZrfjopYEU0necpHq2NuYu/EbeuvAQe+k+3GIGuM0aePw2U/yIbvxQxOYhpDe38V8/dXfc7tTKkXS7scgaoLLpEq11JYbsrsrhBnI6P3HRXY5CbsbIRMk6370o6a4S9pv4FTusY+Xu3eOMVDRez+/GHTtHO15tZCDM1n/ox81xVnSYVZZ1Nu+4FT03glOfPNoY+13j7YZ3AeZvjN59yMfNcNVUi2lLOlt228ieh+uiytAd6L/K1xcQhfqzhR6H/WoOW6SjvPJuN6WBSejtzjgTq4F5fgNoaQ4Db3bGC2Tcb2tTrGR0luafbhOesWahLYzpc5HO2oRF0kNDJXG7bY5gBPRO94lr1zqTRfSzpQ7H+moJRwkNaKRcbtDewM4Eb2jw+7zyRieXQtKGMrOVDof5ahlrCc1NUiat9vaAE5F74NFcPLxajs492ib9uUkEsLOVIcWwlEr2E5qziArSa34TUXvcE+sZonPfl9t+j0p6DpT23GkG7WK5aQGx0c7SW0M4GT0Dl99FQ3aDzeCtSuO42hA15najiPdqFWsJjXqjq2k5v2movfDu85jjICsM/XDQrJRa9hManZktJbU+ABORG8Wi1lyqDrTMOlDNWodi0kNa4OkKtR3SuUAUWeaztgQjdqAvaScxkQm+xkKMHrbofF8LM2oTdg9ojV5SGu3pibzEtE7PFis3ax9MShZSDrTvNqCZNRGLCW1MCHt5hSeiXciovfqVz8McL33KFrWUlGM2gxON2UYC01E79IXAENvDdpWShKM2oKNpHYWg3FZPktG7/DVdzn0d9LpOdO6Dppe1DYsJGW81NNMdCp684KcM+1XOZCL2or5pLauxHJ5Zfq494DeOpBzpv0qB3JRWzGd1JbczmpqYAPo6L16eGlx7N7hLzksX6PmjOIaJmpR2zGc1J7dru8KN+INyOj9ckNOqh2u415rg1FdoUgsqgKzSS3aTe6eru1Q0TvS+sRvotF7dTtgsMCFljPK2wvQiqrCaFKLcvu4I7vullDRey84laxM3cG91oahvnkIqahKDCa1OXSHFL5PpS9E9JaLUmO95R2ZiEPJmY5bA1GKqsZcUst2u67piM0horc0O9abw9UlhJzpuvEXoagdGEtq2273NdXeIOitAx1nOm/rRydqF4aSWpfbR011N4qI3qvt4Gp2N2TsnPem+6adZKJ2YiapA7u91FRvs4joHe5FUku9X3I4M0bGme6bdpKJ2omRpC7s9lNTrS2jondyYuy3NxYMrigh40yPW/JSidqNiaQu5PZWU42No6J3vKxFfkEo/dPeVJzpc8NtIlF7MD6pk6E79FfT4dtHRu9w9eBsJPfxy+QPvEMqzvT6tgwaUfswOqkruz3WdOgW0tGbEySc6fddOCSi9mJsUmd2+6zpwI2E3jpQcKbnN11RiNqPcUndye25poM2lIjeh+vvcbhSLIWAM32/x45A1J6MSurSbs81HbKpZPSODruvcDjslvh3pve3VPqP2pcxSZ3a7b2m/beWiN7h6sGZIAje+cZ5GC18t29/u/1H7c2IpE7lplDTvhtMRe+IV7cXQbCGmfMeDPiGad9R+6Od1O3QHZKoac9tJqR3KL9BkMUQ7rt9B3zDtO+o/dFN6txuGjXttdW09I520u9wWLbmuX2HfH88ia7YC82k7u0mUtM+G05M74eXxu6fP5s+0m7fIYiQ9HHfMfxAZtt76S0Pvk/cHOG2K7z++R5w4B1SGWn6oJPUw9AdEqpp5+bTGb3FcffaOfpfYSDw2b7D7KbTFTvRSOrHbko17SgAEb1XYuDmc+LbY/sOtJtSV+xgeFI/ctOqqfovHBG9D9cDTsvW/LXvULtJdUU1Q5N6GrpDajVV1YGI3qv/yWXglnhr38F2E+uKKgYm9Wc3tZoqKkFE7xKvyKvuq32H202tKyoYltSj3fRq2loMcnqvHpzBee82httNryu2MiSpT7lJ1rSlHsT0fnkD3+/djobdFLtiCwOS+rWbZE2bS0JJ7/iykuD4FadpdPDTvjp2k+yKzfRP6tluojVtKgodveWiFiZnvr20r8aBd0i1KzbRO6lnucnWtOGvHhW95cUkwRqHJWuhn6rp2U21KzbQM6nvoTskXNNaaUjoHQ/cx/+JwfeTxHiomqbddLtijX5JCdhNuKbV6hDQWw7cYqecw9cPxbivmq7dhLtilV5JKdhNuqbl+vjXW9yHKb7EG3q3om036a5YpkdSEnITr2mpRiT0PnH5+/gR9G5G327aXbFEd1IidlOvaaFM/vVexQfeVx5D7zZG2E29KxboTErFbvI1zQrlpV61qTVxE4doD/1/Q+9mRthNvivmdCWlIjeHmj4v4vizmy4pubPg8v1iArftO8ZuBl0xRZ2UzNAd8qipP7+bl7XI9ajB2mUsa6kwym4WXTFGmZSS3Txq6s3v1jXn8doWLEotMebAO2TSFSWqpKTsZlJTcnonC1zoH4E7bN+RdjPpioL2pLTk5lJTgnpHPLoEvXPG2s2kKwpak1Kzm0lNaerNAWftO9puJl1R0JaUnN1Magq9dXHVvuPtZtIVBS1JycnNpqakZs454ah9DdjNpSuGLUnpDd0hn5qSOe/NDJd6j3wPLl2xOSlJu/nU1EvxoHc/TNjNpys2JaVpN++aWgd698KI3Zy7IlG5WdfUAdC7DyYOvEPOXZGs3Yxr6gLo3QNDdvPtinTt5ltTJ0DvbkzZzbYr0pWbb03dAL07MWY3065IeOgOudbUFdC7C3N28+yKtO3mWVNnQO8ODNrNsisSt5tlTd0BvdWYtJthV6QuN8eaugR6qzFpN7+uSN9ufjV1CvRWYtRudl2Rgd3sauoW6K3CrN18umJsNQO5GdUUemthsWpGD7xDPl2xcHUydbvZ1BR662Gvaqbt5tIVOdnNpaYh9NbCXic0bjeTrsjKbiY1FUDv4djrhubtJtwVnzfjO1YP6Na0CvQejL2OaMFuOl2xxWbobRPoPRR7PdGG3d66Yl+bobdNoPdQrHVOK3a7amBtm6G3TaD3UKx1Wit2W2pg4x5zsht6K5mj3t2d3I7dZhrY6IYqP8JAWPtAbxXQuwFpd38bBqX1sYlukvoBeqvgrbd6P1LXhtNVvc140+s1upm1UzUDacxDXu83P1suL3z0tPIw5slS8qnZeJ2M8KyN/nYPEqzxl6M+RfFhY4E05qGu9+tNafAHT0sPE3b96G10P1K+lwG7rWJoW9VAGvMQ1/vo1vKnT8M315cfFx9mvyyo7hTDVWs6JTZ5m2tAGvMQ1/vt1kXxn9ebF4sPy7/0gNmqDTvhPRWba0Aa8xDXO+HtVjZOFx6+3vy47QWWMVo1Q8tZuNlcA9KYh4feL5YXGx/+4vpy+ZPyDvozdki7rbxzwWkr7w+AZJzeR7cufFF/mE6cv/8ta73t2V3w29L7AyAYp/duPp22W5xZW370NHxza+n+CNzgPo+lxWoJxPfHS2CX1zwMds6PdjOBCw8z3m6Vh28XmKuanetIcvjYDWksQF/veJCuPiz+nrHetu1GV7QBkqoYtmptK9sdLzwswFlv+3ajK1oASVUM0fvt1oVP6g+Tf8tTZK833S9uMVQ1B3ajK1oASVUM0Xs3X3K6W119uiun1q43DemWMVM1F3ajK1oASVUM0DtZZy5WmhceJgN3fRG6K4xUzYnd6IoWQFIVA/R+scycLjxM98vffL5cXvi5h3XnJqrmxm50RQsgqQrm13uHBvUe/zZdoCuaB0lVQO/Qmd3oihZAUhXQ253d6IoWQFIV0NvVgXeIrmgDJFUBvd3Zja5oASRVMXu9HdqNrmgBJFUxd71d2o2uaAEkVTFzvZ3aja5oASRVMW+93dqNrmgBJFUBvd3Zja5oASRVMWu9HduNrmgBJFUxZ71d242uaAEkVTFjvR0feIfoijZAUhXz1du93eiKFkBSFbPV24Pd6IoWQFIVc9Xbh93oihZAUhUz1duL3eiKFkBSFfPU24/d6IoWQFIVs9Tbk93oihZAUhXz1dtClC7QFc2DpCrmqLcvu9EVLYCkKmaotze70RUtgKQq5qe3rwPvEF3RBkiqYnZ6e7QbXdECSKpibnr7tBtd0QJIqmJmenu1G13RAkiqYl56+7UbXdECSKpiVnp7thtd0QJIqmJ+eluM0gW6onmQVMWc9PZtN7qiBZBUxYz09m43uqIFkFTFfPT2feAdoivaAElVzEZvAnajK1oASVXMRW8KdqMrWgBJVcxEbxJ2oytaAElVzENvGnajK1oASVXMQm8idqMrWgBJVcxBbyp2oytaAElVzEZvF1G6QFc0D5KqmIHeZOxGV7QAkqqYvt507EZXtACSqpi83mQOvEN0RRsgqYqp603JbnRFCyCpionrTcpudEULIKmKaetNy250RQsgqYpJ603MbnRFCyCpCqt6P/NLbLfnEAA4xZ3eTmj/o0hs7MZIYwMkVTFhvcnZja5oASRVMV296dmNrmgBJFUxWb2pTasJ0BXNg6Qqpqo3RbvRFS2ApComqjdJu9EVLYCkKqapN0270RUtgKQqJqk3UbvRFS2ApCqmqDdVu9EVLYCkKiaoN1m70RUtgKQqpqq3lyhdoCuaB0lVTE9vunajK1oASVVMTm/CdqMrWgBJVUxNb7oH3iG6og2QVMXE9CZtN7qiBZBUxbT0pm03uqIFkFTFpPQmbje6ogWQVMWU9KZuN7qiBZBUxYT0Jm83uqIFkFTF1PT2GqULdEXzIKmK6ehN3250RQsgqYrJ6M3AbnRFCyCpiqnoTf/AO0RXtAGSqpiI3izsRle0AJKqmIbePOxGV7QAkqpgr/fpDN9JukFXNA+SquCuNye70RUtgKQqmOvNym50RQsgqQreep+G3nZAUvNA76FAb0sgqXmg91CgtyWQ1DzQeyjQ2xJIah7oPRTobQkkNQ/0Hgwru9EVLYCkKpjrHXKyG13RAkiqgrveLK4US0FXNA+SqmCvN6P2ZRQVSc0DvXXg076MoiKpeaC3Dnzal1FUJDUP9NaBT/syioqk5oHeOvBpX0ZRkdQ80FsHPu3LKCqSmgd668CnfRlFRVLzQG8d+LQvo6hIah7orQOf9mUUFUnNA7114NO+jKIiqXmgtw582pdRVCQ1D/TWgU/7MoqKpOYhr/ebny2XFz56Kh4e/X5zeeHnT/Pf1X7gCj7tyygqkpqHut6vN5eCD4TDu/LhxfyXtR+4gk/7MoqKpOYhrvfRreVPn4Zvri8/Fqa//4fo/y58kf6y9gNn8GlfRlGR1DzE9X67Jcfm15sXxVj9afTwRT5a137gDD7tyygqkpqHuN4Jb7c+eHp06/1vk4fxD2s/cAef9mUUFUnNw0NvMUInGidSh2H9B5JnAAC3jNP76FZ0fA29AaDJOL13xcxachge7uZ6V34AAPDOQL2PduXkWc/RGwDgk2F6H91aylUt0BsABgxbtbYl9szDholyjzPnAIAWhuj9duvCJ8lDQue9AQAtDNE7VljyYnnhC7FItf0HAADfDNA7WXIeLzrPl5gnO+Te1pwDAFoYoPeLZUHv/AKxdFbN1xVjAIAW+F/vDQBoAXoDMFmgNwCTBXoDMFmgNwCThb/eb7d4nGsv3KiOOEefL5d/90n382jwgsVaiyfxSSfXUdnrfXSLRfOWblRHm7fXZdKPfefox9stFu2/C711iOxm0bzFG9UR58ny4tPwP3zcNk+HXRbtf3TLz9915nr/dfPCjzk0b+lGdbRJrg56wqKs0a45i/ZP74fgGt56H936L39g0g9j+FxSx6OskTYsgr7e9LPXxlvv8P9x6YcJbC6p++smi79Du+9/y6L9Xyx/cX25/InzkjLXO+Slt7xRHQOeLJcfcLgvx+vNT3m0fzJx7vxmJ9DbJbsMZtYET37MYo5fTlhxaP/4Lkdvbjnfd4Pe7khuVMeCo39jkPWJ2Bfi0/7h2y3Xwzf0dkZ6ozoeMLhtXjxfxab9fdQUersiu1EdE+jf0/pJegMC8kkToPdwmOhduFEdbZJzd+53JAfDR++kpq+dn46A3o7Y5REzFEkvepkG0oRF++/KqTX3axahtxtKN6qjzdstJkFjWLS/rysOoLcbSjeqI86bz7lc2ybg0f6ypu5vRchfbwBAC9AbgMkCvQGYW8zhQQAAAi1JREFULNAbgMkCvQGYLNAbgMkCvQGYLNAbgMkCvQGYLNAbgMkCvQGYLNB7fhyuBynv3Hys9x6r7eCq2VTAAtB7fhT0DoKTen5DbxZA7/lxuL72Wfzo1e0gOK/1HtCbBdB7fuR6h+GO5vANvVkAvedHUe+DxbF7Ou8BvVkAvedHUe/9INZ7dedMEBy/LEfyVPnoGP2q/Nf/Fb88cTN+xcsbi2Dt8l+gNweg9/xo2Dk/WMQTbfIXVb3XzsS/lEfp+/EzT2xAbwZA7/mR6/3oRiAtjUQWg/OfN+RYXtU7CH7wOHwZ/0488264+jIIoDcDoPf8KJ0YOyd+shdkQp9v0FsO29Eo/ln+zD3ozQHoPT+Ky1q+ET9Ybaenx/bEvnpt5/yz7F/ZM+PfAeJA7/mR7JxHu9vRfnb8g9RVOdNWm1rL/5U9EzPnLIDe8yM99o4ULQzMEuky9J4M0Ht+ZFNrkaxSXYzeUwV6z4985nw/CE6FrcfeB4ua3jj25gX0nh+F89478QR4deY8/n08O14eyzFzzgroPT8KekfOimUtyXnvh03ntst647w3K6D3/CgvSpV726VVa2JoFvxt/dg7e+bf4NibA9B7fhT1TmfPi2vO5TAeDecNU2vimbex5pwN0BuAyQK9AZgs0BuAyQK9AZgs0BuAyQK9AZgs0BuAyQK9AZgs0BuAyQK9AZgs0BuAyQK9AZgs0BuAyQK9AZgs0BuAyQK9AZgs0BuAyfL/Af0HT0YaLZh+AAAAAElFTkSuQmCC;" parent="1" vertex="1">
          <mxGeometry x="-20" y="173" width="167.64" height="127" as="geometry" />
        </mxCell>
        <mxCell id="CiWgiKEQsSCrlubR7PXY-16" value="" style="group" parent="1" vertex="1" connectable="0">
          <mxGeometry x="-20" y="287" width="182" height="143" as="geometry" />
        </mxCell>
        <mxCell id="CiWgiKEQsSCrlubR7PXY-3" value="" style="shape=image;verticalLabelPosition=bottom;labelBackgroundColor=default;verticalAlign=top;aspect=fixed;imageAspect=0;image=data:image/png,iVBORw0KGgoAAAANSUhEUgAAA9QAAALOCAMAAAB/MKv/AAABdFBMVEUAAAAAADoAAGYAOjoAOmYAOpAAZmYAZpAAZrY3frg6AAA6AGY6OgA6Ojo6OmY6OpA6ZmY6ZpA6ZrY6kJA6kLY6kNtNTU1NTW5NTY5Nbm5Nbo5NbqtNjshNr0pmAABmOgBmOjpmOmZmZgBmZjpmZmZmZpBmkJBmkLZmkNtmtttmtv9uTU1ubm5ujshuq8huq+SOTU2Obk2Obm6Oq8iOyOSOyP+QOgCQOjqQOmaQZgCQZjqQZmaQkDqQkGaQkLaQtpCQtraQttuQtv+Q27aQ29uQ2/+YTqOrbk2rjm6r5P+2ZgC2Zjq2kDq2kGa2kJC2tpC2tra2ttu225C229u22/+2/7a2/9u2///Ijk3Iq27Iq47I5P/I///bkDrbkGbbtmbbtpDbtrbb25Db27bb29vb2//b/7bb/9vb///kGhzkq27kyI7kyKvk5OTk///r6+v/tmb/yI7/25D/27b/29v/5Kv/5Mj//7b//8j//9v//+T////L7fJ4AAAACXBIWXMAABkRAAAZEQGQh6VoAAAgAElEQVR4nO2di3vc5nWnQYnaUrOy19aaUrYJSbVN1rHUi3sJN1WatN46UjOyXHet1t4mjFRLTqRka49J2fRo/vnF/Y4ZYIAP57zgeZ/HFsmZwbwcnB+/gw83b2UYxqTwpAUMwxgWC7VhTAwLtWFMDAu1YUwMC7VhTAwLtWFMDAu1YUwMC7VhTAwLtWFMDAu1YUwMC7VhTAwLtWFMDAu1YUyMQUN9fvja93/2ee4HLz/8k2v7vRZ54mVcfv29bRfz8rn/v+Wxd+mT9q85P/SKXHnedRFFTmf+Emp/o7q3Oj8sv5P/rGABLVk+vDXzl/Ta259vfq4xKQYOtV9Fe7kfzP3vhwu1z+5WiVo+CPMhHOrl8c7PV/W/Ud1brRaFj3LVLdTLu9nCrrf/S2BMgeFDnSv68PtBQ91lqEpJkigc6pMopHW/UW2o/fe6XRZq++ufzvp+aAaX4UOdq8SFd3nWO9Th8Bby9G5h6a3p1TMHrx4kFKezSGLNb1R6q+QVCe1DHa6I198L/jKEb9FvHRgwhg717lGuaZx7/3PIUIej3F7zc5vQEep5/Ems+Y1Kb+V/W/jw2ofa3+zZSecf/FE7/47G5Bk61Fc+yAJ0fnjp/wwbar8+twiYilCfzuJfZM1vVH6rRdG7dahLMT6xofpiMXioP5ul/eTC2ztNQ31219/Mu/x2WpRP74Zzs++EPwir+emtsGcsLrIpAmsXlz7+TvDlPNqw3M+F++UD/9Gd69G8cPObZw/nvgkW4f+ie/5b+Mv4YfDDB/5r33xUeOe3y+mbJ0vpEGr/bfaL3155fnYrNc+F/HSW3y6Ze+XX7UUb7reD+bPXH9V+Avmvst8v/bUMDoOH+rfHST8ZTPSkoU6mh3ai2ssmZ3fjKawryU+uFxZZjMA8aVbXLy57PCjmaqgfx9NIO++s1r558mvUhjqei7q+OotmudKBuGCW+2j21/5GlbeKHs1/H//NzMzn6aJOSvOTxX772fP4x+8ce9FMZvUTqIT6NP9OBonBQ/08ra9gnicJdTblG5XbPJuaDWp6eZybqy2kIReB5ZOj5NENi/N7hIT9mlBnj4ZLa37z6G3rQ/1f4gnrnfeTl+/VmSUscvmr+42qb1V8VfzxXp7lRRfJiLw8zs81NGyk+C//fuxZ/QQqof6D4/wzDBLDhzrtBINdOHGog7/6QSN3dhztXwk2+oJO+eWDaOAIcxU84cmsNBVW3gEUPrhpccHkb/C4Px7FS8/v0goe3Q1efbTpzUMaQh3u/l2GfzDe/Hy1/CBaVtksZZ4OpbW/Uc1bxb9oro8O3zUwf3qU7vSKnr8oRG9RP50YvDyaPqv5BCqhLr6TQWL4UCejRribNa7KbI53HpbfSVKE/pOCsSjIVfSE8ihTikB0HMWmxS1yXfrtSqhPoq48etf9dW+eLLM21Pvxbxy/NmqFy2Y1C6n9jWreKl78XuG7+NtA+fYqG/XnhRm1Rf3EWPDy5M9t5ROohvpK+gwbqmEMH+pk+y7cyxqFOjf9fFqaDp8noY77zHJd5yOQzNpsXFxxs7Uc6mxL1H/13ro3r/4wC3VkkL02fM9Gs1w6636jureq/iB91/TPVvwmxeznZrvTLYtAMnt5zSdQCXXyjIa/EIZiHIQ6HZ33kqrLFV1+6+/Zf/z0yEtCXayqlCSffqe4k8wob1xcceAqhTr3DtGXzW9e/WEW6vhn6VuFog1mpVBXf6O6t6r+IDfbHX8ZP17svnPtdznU6ei74RMovtMWhwYYkjgIdVQYwQ6UXKhzhOUS7YJK6m1zqMP6jB/ZtLjyMoqhzhVsOeVdQp122aVQl80icuN23W9U91bFxce/917pmYu6P2LZVkR9qDd/AjXvZHBwEOqobBfJxNF+3ZHIwZ5d77U3fvZo3jbUuS3KTYtbH+qBRuraUDcecl0X6txvVPdWxcXHzy9HLdxTVh5Mc216/i27jdQWai4uQh1W8Dy30Vdp4RbpBFH7UIeJuR2/zfrFjdF+N43U9b1qTfud/43q3qr6g9xC0i+DPdmL8lxW6eCTXqG29puHi1AHlfGbsPuuTpSFFIqodaiDCaDas60qi0sngqKK3DxRNlSoy2b5T6Ym1OlvVPdW1R8UJ8r24y92fj4vv+mitJe8FOo1n0Dcude9k4HBRaiDIvppMgUelkQ2dIRVlJXXSett6lVu39OmxaUzRQsv/zcl26WV7a6p26FTpEuoy2Z1C6n9jWreKv5Ai7Nt8dLPj3J/tt46rsRuXjgS7OyoFOqaTyBe3Dw7FfR6omRng9BwEupw0zKsxtLBJ8vHs3hAC/vl8LTA9qFO29VNi4sPPokfTkemLJHrD70o0inUJbOM/MEnNb9RzVvlPr7s442PkskdEnLiXZ5VYhcdPPJecGT3s4fXyhNllU8gOasrONo7DXXlnQwKTkIdTrqGtVo9TDRMQ+EAjNutQx0UX1iEGxZXPEw0PlB03WGig4W6bJaSbffW/0b17198bu7g1OJ2eVU6iGuO3Z+vCpPepU8g+/4PckeUld/JoOAk1Nm2YuWEjmhGK93V8uYHGzrgSlmXDrGuXVz2eNRDLqKMpVu8v15/OkORbqEumeXNa0/oKMyAV96/ckJHeppFoYOv2ehdPswm4uPd4fkzN4ufQLz7wA//v2X7qeNzPnYt0zjchDrdoCydernz+sfRd8ugKdx58+NsKqtVqLMpoLWLSx7fTU6l/HU4nGXTWNHpkU0nHhbpGOqSWUrDqZeFSa3y+1dPvdxbBadeFk7sPGkYS5dPwgsPXn7z4+zl2dILn4DPk1th+PMHnwSjffUUUkM/dongkTitbvluZNEwl56nENWhcLJQYyws1GMx77y/d1md1q7iZJeThRqNhXosug/VbQbqJ7M+l2pqwkKNxkI9Gicdh+pl+RLBFRbZBP+wWKjRWKhH4/yw21BduZh/hXAq3EX6LNRoLNTjEd12py3V2+5Un3Lk6PYbFmo0FmrDmBgWasOYGBZqw5gYFmrDmBgWasOYGBZqw5gYFmrDmBgWasOYGBZqw5gYFmrDmBgWasOYGLRQf/mltEFLKKIUT46oPBZqR1BEKZ4cUXks1I6giFI8OaLyWKgdQRGleHJE5bFQO4IiSvHkiMpjoXYERZTiyRGVx0LtCIooxZMjKo+F2hEUUYonR1QeC7UjKKIUT46oPBZqR1BEKZ4cUXks1I6giFI8OaLyWKgdQRGleHJE5bFQO4IiSvHkiMpjoXYERZTiyRGVx0LtCIooxZMjKo+F2hEUUYonR1QeC7UjKKIUT46oPBZqR1BEKZ4cUXks1I6giFI8OaLyWKgdQRGleHJE5bFQO4IiSvHkiMpjoXYERZTiyRGVBxbqewHSEq2g1CDFkyMqDyvU9+5hUk2pQYonR1QeVKjv3eOkmlKDFE+OqDykUN+7B0o1pQYpnhxReSzUjqDUIMWTIyqPhdoRlBqkeHJE5bFQO4JSgxRPjqg8FmpHUGqQ4skRlYcUapv9dgDFkyMqDyrUtp96eCieHFF5UKE+OAgzfXAgLdICSg1SPDmi8pBCfZAhrbIZSg1SPDmi8lioHUGpQYonR1QeC7UjKDVI8eSIymOhdgSlBimeHFF5LNSOoNQgxZMjKg8p1CtQpjE1SPHkiMqDCnWSasKeakoNUjw5ovKwQh2lemWhHg6KJ0dUHlio/VVrI/WgUDw5ovLwQh0dVybtsRFKDVI8OaLyIENN6L8pNUjx5IjKgww1of+m1CDFkyMqDzDUKwv1gFA8OaLyUEOtPtWUGqR4ckTlYYYaMFRTapDiyRGVhxhqRP9NqUGKJ0dUHmyotaeaUoMUT46oPNBQ6x+qKTVI8eSIyoMMNaH/ptQgxZMjKg831MpTTalBiidHVB5qqNUP1ZQapHhyROVhhhrQf1NqkOLJEZUHHGrdqabUIMWTIyoPNtTah2pKDVI8OaLyQEOtv/+m1CDFkyMqDznUqlNNqUGKJ0dUHm6olQ/VlBqkeHJE5aGGWn3/TalBiidHVB50qDWnmlKDFE+OqDzgUOseqik1SPHkiMqDDbX2/ptSgxRPjqg87FArTjWlBimeHFF5yKFWPVRTapDiyRGVhxtq5f03pQYpnhxReeCh1ptqSg1SPDmi8qBDrXmoptQgxZMjKg841Lr7b0oNUjw5ovLQQ6021ZQapHhyROVhh1rxUE2pQYonR1QecqhV99+UGqR4ckTlwYdaa6opNUjx5IjKAw+13qGaUoMUT46oPOhQa+6/KTVI8eSIysMPtdJUU2qQ4skRlWfIUH85OmH/Pf7bGpNlwDjIwR6pFffflPqgeHJE5bFQO4JSgxRPjqg8Ewi1zlRTapDiyRGVBx9qrUM1pQYpnhxReeCh1tt/U2qQ4skRlWcKoVaZakoNUjw5ovLwQ610qKbUIMWTIyoPPdRq+29KDVI8OaLyTCLUGlNNqUGKJ0dUngmEWudQTalBiidHVB58qLX235QapHhyROWZRqgVpppSgxRPjqg8Uwi1yqGaUoMUT46oPPxQK+2/KTVI8eSIyjORUOtLNaUGKZ4cUXkmEWqNQzWlBimeHFF5JhBqnf03pQYpnhxReaYSanWpptQgxZMjKg8s1C8Cyj9U2X9TapDiyRGVhxXqF1cDalJtod4WiidHVB5UqKNMV1Otsf+m1CDFkyMqDynUSaYrqdbYf1NqkOLJEZWHFOqrGaVHLNRbQ/HkiMoznVArSzWlBimeHFF5phJqdUM1pQYpnhxReaYRaoX9N6UGKZ4cUXkmFGpdqabUIMWTIyoPKdSrxkwr7L8pNUjx5IjKgwr1qinTCvtvSg1SPDmi8rBCvVobalWpptQgxZMjKg8s1MGqbQi1sqGaUoMUT46oPMhQVw7+Xunrvyk1SPHkiMqDDDWh/6bUIMWTIyoPMNSM/ptSgxRPjqg8zFAD+m9KDVI8OaLyMEMN6L8pNUjx5IjKQwx1/VCtrP+m1CDFkyMqDzTU+o8/odQgxZMjKg8y1E1TZRbq7lA8OaLyUENd239r2qim1CDFkyMqDzXU6odqSg1SPDmi8jBDDei/KTVI8eSIyoMNtfb+m1KDFE+OqDzYUGsfqik1SPHkiMoDDbX+/ptSgxRPjqg83FAr778pNUjx5IjKww218qGaUoMUT46oPNRQNw/Vo+o0Q6lBiidHVB5wqGuGakX9N6UGKZ4cUXmwodY+VUapQYonR1QecqhV99+UGqR4ckTlIYdadf9NqUGKJ0dUHm6olffflBqkeHJE5UGHWnP/TalBiidHVB50qDX335QapHhyROUBh1r3UE2pQYonR1QedqgbhurxdJqh1CDFkyMqDznUtVNlWvpvSg1SPDmi8sBDrbf/ptQgxZMjKg881Hr7b0oNUjw5ovKgQ625/6bUIMWTIyoPPdRq+29KDVI8OaLy0EOttv+m1CDFkyMqDzvUtUO1jv6bUoMUT46oPPhQax2qKTVI8eSIygMPdeNU2Tg2a6DUIMWTIyoPP9RK+29KDVI8OaLy8EOtdKim1CDFkyMqDz3UavtvSg1SPDmi8kwg1Dr7b0oNUjw5ovJMINQ6h2pKDVI8OaLy4EPdOFSPotMMpQYpnhxReSzUjqDUIMWTIyrPFEJd13+Lb1RTapDiyRGVhx9qpUM1pQYpnhxReSYR6upQbaFuC8WTIyrPBEJdv6tauv+m1CDFkyMqzzRCrbD/ptQgxZMjKs80Qq2w/6bUIMWTIyrPFEKtsv+m1CDFkyMqz0RCra//ptQgxZMjKs9EQq2v/6bUIMWTIyrPJEJdP1TL9t+UGqR4ckTlmUqo1Q3VlBqkeHJE5ZlGqOumyizUraB4ckTlmUyotfXflBqkeHJE5ZlMqLUN1ZQapHhyROWZSKj19d+UGqR4ckTlmU6oK/237EWNKDVI8eSIyjOdUCsbqik1SPHkiMozlVA3DdWOdZqh1CDFkyMqz4RCXRmqRftvSg1SPDmi8kwm1Nqmyig1SPHkiMozpVCr6r8pNUjx5IjKM6VQq+q/KTVI8eSIyjOdUCvrvyk1SPHkiMozqVBr6r8pNUjx5IjKM6lQa+q/KTVI8eSIyjOhUOsaqik1SPHkiMpjoXYEpQYpnhxReaYVakX9N6UGKZ4cUXmmFGpVQzWlBimeHFF5Jhbq2qHaoU4zlBqkeHJE5akP9fLJrdmlT85//Kj442/+6saNm3/2RfDlq3+/c+PmX3/h3K/M+lWrqP+m1CDFkyMqT22oz448z/NDfejt53/89Z0bAd8Novxp+OX3RnHMsynUavpvSg1SPDmi8tSF2g/z7t/7I/Xygbfz8+zHr+7f+PMvVt/85Y2/CPL9nV/6/7v5i9FEYzaFWk3/TalBiidHVJ66UJ94e36wL32yWs39r1K+fTccmL++871goP6R/+VX4w/VG1Ztdai2UK+H4skRlacm1Mtjf3yOQn06u/K8/PC37373i1f3v/Or+MsRHPN0DrXURUUpNUjx5IjKUxPqMM9RqKP/FwmG5zjNcbYTvpTH77/LPwqGagkVg4i7pI1I51C/uu9vSKsNtZ/qF6WfWKiN9jiM2njUtt/e7TjOC6/Sfn8azJPFm9erTwuhHoNNH3vdVJlI/02pD4onR1Se+omyK8/DUJ+V9mn5Y/On4dxY/Ug9BhtXrZb5b0oNUjw5ovKs2aX1j3dnXqn7fnX/RnjsiepQ65j/ptQgxZMjKk/zwScB+d3UPt+8G/TeqzTN+ma/9fTflBqkeHJE5Wk4TPTxa36kL79d3KD+9t2bfxN/qXU/9UpN/02pQYonR1SeLid0REkO+erGzV8Eh43+aN3zXdAm1Cr6b0oNUjw5ovJ0CHV86Hd08LfOY78DlPTflBqkeHJE5WkI9bOEz7OffXUjF2qdZ2mF6BiqKTVI8eSIylMb6gdeSvWIMllahbo8VFuom6F4ckTlqd9PjQ513VTZ+P03pQYpnhxReeqPKKuexqGFdqFW0H9TapDiyRGVp/bY79LuaU20C7WC/ptSgxRPjqg8TSd0aKXVqtXQf1NqkOLJEZWnbpt6Dh+pVfTflBqkeHJE5ak/9pu9Ta2i/6bUIMWTIypP7S6t00Pvje9H/EBZvNut2pqheuz+m1KDFE+OqDx1oV4es3dpqei/KTVI8VQnGlxG2/N2Xn9PWqRK7TZ14AofqcX7b2012ATFU5vo41ky7u0+2vzscamd/S5fGkERLVetfP+trAYboXgqEz3xw/yeP+C9fFi56IA8k9ylpWGo1lWDzVA8dYmeztKB7+wwfx1tFdQeUcYPdXVXtYW6HoqnKtHlcS7IC3VDdf2x37dH92hL+1AL99+aanAdFE9Voqez3KEc5z/+2fMg2vuLmbfr/3j58Fp6gZHTWRR4f5P2dnQdz1/72+JvOt4Krz9La+cdt++6Pe1DLTxUa6rBdVA8VYmeVM+OWHhv+HH1f3w6y10KrBLqv40ecztq1m1T37oWvPFrIa8r6yxar9rKUG2hroXiqUp0Xt2MXviJfrR6Fl61873V6rMjL7rFTTHUnnf9eXAJQLcNe/3sN30/9Uq+/9ZUg+ugeKoSnVf3D/mBDYffEy+N8X5NqPezx9xRN1H2Hx9l/AtyP/VKvv/WVIProHiqEk1CnYx/++l02fI4yetJ1IsXQx2PkTXt+5B0ufCgBtqvWuH+W1MNroPiqUo0ab8LoQ5zGqU3IExwdaIse8wdUw51Zages//WVIProHiqEi2MtNHgXAl1mOeGUCc/dsR0Qy28q1pTDa6D4qlKtLBLqyHUakbq+IaXU5gok+6/NdXgOiieqkQLB58UQt2wTX06k9umnlioa/rvYW3WoKkG10Hx1CXqh/StJJZPZrlQV2a/oyH9xBOc/X4ZXOf75bNnddf9VkGXVVsdqkfcqFZVg2ugeCoTfex5l9/5PDgB88jzdv53Fup4P/WTaF908N2j1fIDLwl18LdAYj+1avqFesShWlcNNkPx1CZ6epR2s9eDNOcmwfI3l4wvt/3f423q3aO6G08OTTHUy59oO3+6TLdQC/bfymqwEYqnPtEnd4P4vv52MveVbCbnj/0Oh2x/6E4nyn77YObtXHccspptatV0WrWS/be6GmyA4skRbWYx0gX1Jx7q0lA9Yv9NqUGKJ0e0GQt1Pd1WrWD/TalBiidHtBkLdT1dQy3Wf1NqkOLJEW3GQl1P11CL9d+UGqR4ckSbkQq1d/m1AtjzqSPk+m9KDVI8OaLyVEJdQtvI3TnUUv03pQYpnhxRecqh3kluzYG+7neKXP9NqUGKJ0dUnmlvU9cP1cPZrIFSgxRPjqg8FzHUo6SaUoMUT46oPNMPtVD/TalBiidHVJ6ph1qs/6bUIMWTIyrPBQh1eagep/+m1CDFkyMqT+ksrf/QdvXQMt1XrVD/TalBiidHVJ4pn08dIdR/U2qQ4skRlecihFqk/6bUIMWTIyrP9ENdGarH6b8pNUjx5IjKcwFDPU7/TalBiidHVJ4LEWqJ/ptSgxRPjqg8FyDUMv03pQYpnhxReS5GqKtD9TA2a6DUIMWTIyrPRQh1dVf1CP03pQYpnhxReRpCvZzCxfxTJPpvSg1SPDmi8tSG+vFsKhdJiJDovyk1SPHkiMpTF+rFdK58ElMZqt3335QapHhyROWpCfXy2Lv0vtZDwAcKtfuhmlKDFE+OqDw1oT4/dHyrnz5sG+rR+29KDVI8OaLy1IZaW8+dY8tVO37/TalBiidHtIHF5R88ir88+8m12zXPOJ3t+W1yeLPMIy93A+w883jADZ7bSG37PbmRujJUu++/KTVI8dQt+iJg/VMWXnrV73l4Y9sKWaj9JzTcwXrbUK9O3N4SuxfbrloLdQMUT9WiL15sTvUivYPt+eFrjaEO8ZPdNKxuHerlsfeWtv3TCduHeuT+W3MN5qF4ahZ98aJFqhfeG7NosDy59HebQt14J49tQ124or+2zevtQz3yUK24BgtQPBWLvnjRJtUL760oq8vjvZMw1MvsXtVntzzv+mdx+x3uUr7yOOqXT2eFttlCnac0VFuoYyie2kRfrKf6goW3fxIm8nR2Owx1MBvms/tJ8KPgqzcKof7NYfgn4KQ4wbV1+/3yWYa2NnyoUDvfqaWsBhuheGoT3SbU0ah7cumTMNRz78qj1dlxMM099/wB+/HMiyfKovY7zG+5E5+nw23HUGumR6hL/bfjjWplNdgIxVOxaNv2ez9MqN99r4JQx3uOg39OZ9GgXAx1+Ceg1H1bqIuM3H/rrcEiFE/Foq1DHfbSCz/QQaiTBtofkBfJ5nMh1OH/S9339u23v7wnt/xt+Nff03ewaJ9QV4bq3jZr0FuDRSiemkVbzn7vh//N/dS2CnUQ6Mo8+PahPjuKh3h9R6H0WLXj9t+Ka7AAxVO1aLv91Pt+r33lN4d7q5ah9lvvcve9fajPD72dNz/66KO7M3WT3/1CPWb/rbkG81A8dYu2OqJsP8jkT4M5stI29flh3TZ18M8H5WG1xxFll6KjVM8O1R1b1ivUY/bfqmswB8WTI9pAGOpFtJO4Ovu993z1pDT77T9751r5KJTtj/1Oj3dZeI2HtgjRZ9WO2n9TapDiyRFtIAy13wQHYYz2Ux+mR4JEX75Rar+DH5cH1e0PPkmbbn0nbPUL9Yj9N6UGKZ4c0QaiDed5OGBWjyi763nXy9vUdadWWahLjNp/U2qQ4skRHY54W7szF6n9rgzVLvtvSg1SPDmig7F8UHvex2YaJsqi8bmmp5dm0FC7HKopNUjx5IgOhD+2RkNq/pKB7ULetEvr7Y+fPX04rV1a4/bflBqkeHJEh2Lu7YY7oYYJdXzSyNQOPlmN2n9TapDiyRGVp+Ew0YfX/EhfflvZBvWqf6gLQ7XL/ptSgxRPjqg8F+eEjpDx+m9KDVI8OaLyXLhQj9V/U2qQ4skRlefChXqs/ptSgxRPjqg8xVCHB5tM83JGMdWhut/yGqHUIMWTIyqPhdpRqik1SPHkiMpTar9fBtckm+Q1ymJG678pNUjx5IjKc8G2qcfrvyk1SPHkiMpTd+z3T36Q7J8++8mbynZVDxDq4lDtqv+m1CDFkyMqz0U6SytipP6bUoMUT46oPKVQn3300Uf/PNv5h48iPpjcRNlo/TelBimeHFF5SqEuzHxvuLqwCEOEepT+m1KDFE+OqDzl9vukEOmd/6ZsoB5i1RaHalf9N6UGKZ4cUXkuyE3n84zTf1NqkOLJEZVn/ey3PgYJ9Rj9N6UGKZ4cUXku3H7q1Uj9N6UGKZ4cUXnWhVrb0WQBw4S6PFT3X2YFSg1SPDmi8tSGevnwv4YXI97Rd5WEQVbtGP03pQYpnhxReepCvTxOrzCu7WKiQ4Xaff9NqUGKJ0dUnvqrie68E37xeDatq4kmjNF/U2qQ4skRbWBx+QeP4i/PfnKt7gqC6cX8V+dHTUeILNpce/BCXfc7pTRUW6gBqBa9erV8pdoKi6zvnddfFjQLdXBr+frhdNtQT/zY74BKqIdPteoazEHxVC169ermVC/Si/OeH77WGOoQP9lNl/HdPtTplYFPZ1MNtfP+W3MN5qF4aha9erVFqhfeG/HNpk8u/d2mUDc2yNuGOrqxZvLV5kWMykCr1n3/rbgGC1A8FYtevdom1QvvreS203vVG+Td8rzrn8Xtd3j1/iuPkzvR7xeXsmWoT2fe5eAOHR8e6buav6tQD55qvTVYhOKpTfTqeqovWHj7J2GcTme3o1vZHoXnV+x+ktw9441CqH8T34m+GMGtQx3MescndLyzze/rksFC7br/VlaDjVA8tYluE+po1D259En1pvP+gP24dNP58K615U58+1CvXsZ36NB3TNlQq9Z5/62sBhuheCoWbdt+74cJ9bvv8P7U8SR08M/pLBqUi6EO/wSUuu8+odbLcKHOrwAH/bfeGixC8VQs2jrUYS8dxDIIdTIt5g/Ii2TzuRDq8P+l7ttCvYeUW2EAAB4fSURBVBbX/bfeGixC8dQs2nL2ez/8b+6ntlWog0BX5sH7hDq+QPBHH/5Rh11aX5Lw++/cd36oxUwMRbSv9jzt9lPv+732ld8c7q1ahtpvvcvdd49Q/3qWXvtkmvupV+77b8UDSwGKp27RVkeU7QcJ/mmQytI29flh3TZ18M8H5d1PW4c6d5freDeaHoZbtY6nylTXYA6KJ0e0gTDUi2iYrM5+7z1fPSnNfvvP3rlWPgqlx8Enux8/Pdp5/+mxuvM5LNRDQ/HkiDYQhvr8MDycK9pPfZj2wtGXb5Ta7+DH5QCmA+66bNceJhr9HbntL3yqB5+snPfflBqkeHJEG4g2nOdhGqtHlN31vOvlbeq6/G0f6qhDCLuFiR4mGuB2qKbUIMWTIzoc8bZ2ZxpDHeZ526W6Y9BQl4bqwZYcQKlBiidHdDCWD9psQNdQez51MOiHR7lM9dTLCKf9N6UGKZ4c0YFYHscnYOfmrVuGvH6ibD8er6d66mWE0/6bUoMUT47oUMy93fBSKcOE+nTm/4nw/1Bcf3o80SufRDjtvyk1SPHkiMpTe/DJSTDPvujwp2E8Bl21haF64P6bUoMUT46oPA1naX3oD9BPjqZ76mWEy/6bUoMUT46oPBf2hI4Al/03pQYpnhxReS50qF3235QapHhyROWpD/Xyya3ZpU/Of/yo9lFJhg61s6GaUoMUT46oPLWhPjsKj0mtOfRUnIFXrYWa4skRlacu1H6Yd//eH6mXDyZ74cEEd/03pQYpnhxReepvu7MXH0s22UsEJ7jrvyk1SPHkiMrTdJhoFOr4imiKGHrVlofqwRZMqUGKJ0dUnqYTOqJQT/vY7wBn/TelBimeHFF5LNSO+m9KDVI8OaLyNN31Mjn/curtt7P+m1KDFE+OqDz1E2VXnoehPtO3T8t5qIdKNaUGKZ4cUXnW7NL6x7szdRcTdRFqN/03pQYpnhxReZoPPgkvJqptN7WDVeuo/6bUIMWTIypPw2Gij18L76WlbIN65SbUuaHaQq0WjKg8F/uEjpDCUD3YRjWlBimeHFF5NoX6pbLB2nWoBxuqKTVI8eSIyrM+1MsH2mbKnITaRf9NqUGKJ0dUnnKolw9n2b3mnxypm/52sWqd9N+UGqR4ckSbObsbhOt6/q7v4cX7G7/NMY8nrZP76q2jFOrguqQB11fhZYe96R98snLUf1NqkOKpW/QgYNOTkvtO5i8SNkaoT/w8P3t6N7jgYLBfa+LXKItx0n+rrsEcFE/VogcHLVK98LPlD9IvH2x1Oc/tQ72Mb4k39/ZO/T8rbyobpleOVq2L/ltzDeaheGoWPThokerzw+Soj62upr99qJM39t9W46VEV85CPfxQrbgGC1A8FYseHLRJ9Ul2yHX45cmlfz3yLr0f9tt+V7zzw+T+eMvjK58F3xdf3ifU0d+Q4NaaV/RdoGzlatVaqPWjTPRgPdUXzLPDM8Ngnlz6Yz9kvz0Ob4STv5NtMq+1X/vyXqHWNkMW4yrUg/ffymqwEYqnNtGuoc5PgYX3nTwJD8KOU3z9+eqx56WhvvJo+UEpgfP01jvbh1rfUd8RrkI9+FCtrAYboXgqFm3VfudvIBsGPGrHgy/j6wudpKEOwle+4ewQoda2fzrB0arND9UWapXoFW0V6uRG8unX8Y3n/RRHt6NfZdvU0fVJSqEeoP2+2KEeINV6a7AIxVOzaJt5smj8jQiHZgt1irNQD91/K67BAhRP1aJt9lNXZr9HDPXHz3yexv8+e/Z5w+ukcLVqB++/NddgHoqnbtEWx56U91Nnoa5sUw8daq+EthHbXaizoXqQ/lt1DeageHJEmygdUZaFennsvfV89XhmoR6aoftvSg1SPDmijTxOjv0OjyvJQh3vp/YchVo/DkM9bP9NqUGKJ0e0mZcP/PRejs/SyoU6PM9i959n+xbqYRm6/6bUIMWTI7oti8Eu3WuhThh4qKbUIMWTI9qZ09mlR8FoPdgBXxbqBAu1bjCinclfxCDPIje31elkTQt1wsD9N6UGKZ4c0e4sw23tykmRFur+DDtUU2qQ4skRlcdCnWKhVg1GVB4Ldcqw/TelBimeHFF5LNQZgw7VlBqkeHJE5bFQZ5SG6n4Lo9QgxZMjKk9DqJfPnl2sEzpCckN17/6bUoMUT46oPLWhTg5SvUjHfgcM2X9TapDiyRGVpy7U+f1jFyzUw/XflBqkeHJE5akJ9fLYu/S+zssOul61A/bflBqkeHJE5akJtd6rDq5GDHXfoZpSgxRPjqg8taHW1nPncB3qwfpvSg1SPDmi8tS23xd2pB6w/6bUIMWTIypP3UTZyWAndg6P81APNVRTapDiyRGVpy7UwTWTtO2fTnC9aotDdY8FUWqQ4skRlad2m/qi7tJaWaj1ghGVx0JdJN9/99qoptQgxZMjKk9d+/3yWYa2Ntz5qh1qqKbUIMWTIyqPndBRwkKtFIyoPBbqEkP135QapHhyROVpCHXcfH/04R9dsG3qwYZqSg1SPDmi8tSG+tcX9CytkNxQbaFWBEa0mbO7frB2rufnqfL3oq9+m2PR4dqDG87S2rmu7MyOEVbtMP03pQYpnrpF791rUSrJWLmTu27oaKGee7sfPz3aef/psb5Dy0YJ9RD9t+oazEHxVC16716LVJdukNeRnqE+PwxeP/f/p/Ao8FFCPUT/rbkG81A8NYveu9ci1eVb2Xakd6ij2+fuB0vafDeucRlj1eaG6u37b8U1WIDiqVj03r02qa7cdP7Svx55l95PbpC388PspvNXPjuKb42ZMUiowzyXb70nz8ih3n6o1luDRSie2kTvraf6gnnW9YZ3rjy59Meed+W32a1s30hDHW16Fzd9e4Y6arrD29vrO7V6nFAP0H8rq8FGKJ7aRLuGOj8FFo6VJ14QszjF15+vHmf3p/auPFp+4BXH0/4TZfvxeL1V9++UUVbtEP23shpshOKpWLRV+51vesOAR+148GU4fgZNeRLqIO3lJrlvqP1u4Mrz4M/H02PvIrbfg/TfemuwCMVTsWirUPtbys8LX2c3nY9vTJ1tU9fddL5vqP338xe76H63vREYKdT9+2+9NViE4qlZtM08WX5PUjg0jx3q1csP/QU+OSrsJtfBOKt2gP5bcQ0WoHiqFm2zn7oy+z12qPUyVqh7D9WaazAPxVO3aItjT8r7qbNQV7apLdROyIZqC7USMKJNlI4oy0IdXD7seXBbHLehXj655f81Of/xoz6/hBNGD/W2/TelBimeHNFGkrtZRceVZKGO91N7G0Id0yLbtaE+OwrPzzo/vJDHfgf0778pNUjx5Ig28/KBn97L8VlauVCHgdv959m+w1D7Yd79e3+kXj7wLuKx3yG9+29KDVI8OaLbshhsCK2/7vdefCzZ/EIe+x3Qu/+m1CDFkyPamdPZpUfBaD3YCNp0mGgU6nheThHjhbpn/02pQYonR7QzycHe10s/z999ttPxIk0ndEShvpjHfof07b8pNUjx5Ih2Zxlua1eOCbFQD01uqN6q/6bUIMWTIypP/f2pb6fnX17U9rv3UE2pQYonR1Se+omyK8/DUJ/p26dloR4YiidHVJ41u7T+8e5M3cVERw11r/6bUoMUT46oPM0Hn4THvmjbTT3mqu03VFNqkOLJEZWn4TDRx6/5kb78trIN6pWFenAonhxReeyEjkb69d+UGqR4ckTlsVA302uoptQgxZMjKo+FuplsqLZQy4MRlacY6uX/eq3E68qmv0ddtdlQbaEWByMqTynUx14Jbfu0xELdNdWUGqR4ckTlKbXfJ97O9wv8QNkE+Mih3r7/ptQgxZMjKk8p1MEx5K+/pyzIecZdtT36b0oNUjw5ovJUJsqe3PJzvas213Kh7phqSg1SPDmi8tTNfmvO9dih3rr/ptQgxZMjKk/ThQeDA0V3f6Yv1yOv2u37b0oNUjw5ovI07qeOcn35h8pyLRjqbqmm1CDFkyMqz7qDT5YPq6dpffvuj8J/X/37nRs3//oLd2INjB7qbftvSg1SPDmi8jSH+uXDa9X91K/u34hC/emNgO85datj7FW7df9NqUGKJ0dUnoZQv3wYXl/8zfeKP/YzHYX66zvf+aX/v5u/cO1XZvxQJ0N1x/6bUoMUT46oPHWhPvtpkOidNz8uP/D7Ozf/NAr1p+E/X40/VI++atOhumP/TalBiidHVJ5KqM/uzsJTqT+vPvfV/T/85e/CNL+6/51frYIN7O+OvVUtF+qO/TelBimeHFF5ao4oa96V9Z+rVRTqOM1xthO+nCJ+/x1/5fffoibGCDiK2bhUjv3e/YdnecoD9oULtZ/qF9EXBxbq6eM2bSNRCvV801laSaijjelPC6Eeg/E/9i37b0p9UDw5ovJ0PfVy3Ug9BhKh3mr+m1KDFE+OqDxdr3xy8UK95fw3pQYpnhxRebYL9QWa/S4O1e1fRalBiidHVJ7tQn2B9lOvckN1l/6bUoMUT46oPFuG+qsbN3+x+vpOfMzoiIiGukv/TalBiidHVJ4tQ31hjv0O2Kr/ptQgxZMjKs+2ob4gZ2lFbNN/U2qQ4skRlceu+92CbfpvSg1SPDmi8lioW7BN/02pQYonR1QeC3Ubtui/KTVI8eSIymOhbkM6VLfvvyk1SPHkiMpjoW5FMlRbqMXAiMpjoW5F9/6bUoMUT46oPBbqVnTvvyk1SPHkiMpjoW5H5/6bUoMUT46oPBbqdnTuvyk1SPHkiMpjoW5H5/6bUoMUT46oPBbqlnTtvyk1SPHkiMpjoW5JOlRbqGXAiMpjoW5LMlS33Kim1CDFkyMqj4W6LR37b0oNUjw5ovJYqNvSsf+m1CDFkyMqj4W6Nd36b0oNUjw5ovJYqFvTrf+m1CDFkyMqj4W6Nd36b0oNUjw5ovJYqNvTqf+m1CDFkyMqj4W6PZ36b0oNUjw5ovJYqNvTqf+m1CDFkyMqj4W6A136b0oNUjw5ovJYqDuQDNVt+m9KDVI8OaLyWKi7kA3VG59KqUGKJ0dUHgt1Fzr035QapHhyROWxUHehQ/9NqUGKJ0dUHgt1J9r335QapHhyROWxUHeiff9NqUGKJ0dUHgt1J9r335QapHhyROWxUHejdf8tLdoWiidHVB4LdTeSoXpj/y0t2haKJ0dUHgt1R+KhemP/LS7aEoonR1QeC3VH2vbf4qItoXhyROWxUHekbf8tLtoSiidHVB4LdVda9t/you2geHJE5bFQd6Vl/y0v2g6KJ0dUHgt1V1r23/Ki7aB4ckTlsVB3pl3/rUC0FRRPjqg8FurOZEP1umcpEG0FxZMjKo+FujvxUL2+/9Yg2gaKJ0dUHgt1d1r13xpE20Dx5IjKY6HuTqv+W4NoGyieHFF5LNRb0Kb/ViHaAoonR1QeC/UWtOm/VYi2gOLJEZXHQr0FbfpvFaItoHhyROWxUG9D2n83P0WH6GYonhxReSzU29Bio1qH6GYonhxReSzU23B181CtQ3QzFE+OqDwW6q2wUI8ORlQeC/VWxFNla/pvJaIboXhyROWxUG/HxqFai+gmKJ4cUXks1NthoR4bjKg8Furt2Nh/axHdBMWTIyqPhXpLNg3VakQ3QPHkiMpjod4SC/XIYETlsVBvyab+W43oBiieHFF5LNTbsmGo1iO6HoonR1QeC/W2pEN1/cN6RNdD8eSIymOh3ppoqG7qvxWJroXiyRGVx0K9Nev7b0Wia6F4ckTlsVBvzfr+W5HoWiieHFF5LNTbs7b/1iS6DoonR1QeC/X2rO2/NYmug+LJEZXHQr09a/tvTaLroHhyROWxUPdgXf+tSnQNFE+OqDwW6h6sG6pVia6B4skRlcdC3YdkqK55SJdoMxRPjqg8Fuo+rOm/dYk2Q/HkiMpjoe7Dmv5bl2gzFE+OqDwW6l4099/KRBuheHJE5bFQ96K5/1Ym2gjFkyMqj4W6F839tzLRRiieHFF5LNT9aOy/tYk2QfHkiMpjoe5HY/+tTbQJiidHVB4LdT+uNg3V2kSboHhyROWxUPfEQj0SGFF5LNQ9iabKqv23OtEGKJ4cUXks1H1pGKr1idZD8eSIymOh7ouFehwwovJYqPvS0H/rE62H4skRlcdC3Zv6oVqhaC0UT46oPBbq3lioRwEjKo+FujfRrup79w4KP1UoWgvFkyMqj4W6P3Goi0O1RtE6KJ4cUXks1P1JpsoKP9QoWgfFkyMqj4V6AOr6b5WiNVA8OaLyWKgHoK7/VilaA8WTIyqPhXoA6vpvlaI1UDw5ovJYqIcgHqrzP9IpWoXiyRGVx0I9BDX9t07RKhRPjqg8FuohqOm/dYpWoXhyROWxUA9Ctf9WKlqB4skRlcdCPQjhUF3ov5WKVqB4ckTlsVAPQ2Wo1ipahuLJEZXHQj0MFmrXYETlsVAPQ6X/1ipahuLJEZXHQj0Q5aFarWgJiidHVB4L9UBYqB2DEZXHQj0Q5f5brWgJiidHVB4L9VCUhmq9okUonhxReSzUQ2GhdgtGVJ4hQ/3lhSa4qtGXfv8t7WH0YcA4yGEj9WAUh2rFogUonhxReSzUgxFPlcXfKRYtQPHkiMpjoR6OYKhO5781i+aheHJE5bFQD0eh/9YsmofiyRGVx0I9HIX+W7NoHoonR1QeC/WA5Ptv1aI5KJ4cUXks1AOS779Vi+ageHJE5bFQD8jVaKgOv1YtmoPiyRGVx0I9JLn+W7doBsWTIyqPhXpIclNlukUzKJ4cUXks1IOS9d/KRVMonhxReSzUg5L138pFUyieHFF5LNSDkvXfykVTKJ4cUXks1MOS9t/aRRMonhxReSzUwxKF+kC/aALFkyMqj4V6WIJd1eFGtXbRBIonR1QeC/XAJP23etEYiidHVB4L9cAEU2VB/61eNIbiyRGVx0I9NHH/rV80guLJEZXHQj00cf+tXzSC4skRlcdCPTRx/61fNILiyRGVx0I9OFH/DRANoXhyROWxUA9O1H8DREMonhxReSzUg5P039Ie7QB8oBEYUXks1MMT9N8HAdIibSB8oAGYD1QBFurh8UN9cC+AUISED3QVZ9pS3Q4L9fBcvRplmpBqSFQODizV7bFQOyDJtP5UQ6JycGCp7oCF2gH3MqRV1nMQbyZoj4qFuhMWagfkQn0wKAN7HqSbCcMv2RUDi04SC7UD7vXBXR6qiLzpdiSa0uuWgIXaAb1CPeIfg36vXsfAH6i7lmKSWKgdkAtLrxePyPAfwqBQPHVgoXaBRA1K/CloxN3vNvCSJ4mF2gUv4gp8IS0SHrTaiETc+yL9eRKwUDvgxYsoL1dfuE71ushuJpeVfgtat2QL9ehYqB3wIi3unqEeIF5rF59lup+nC/E8FupOWKgdkCvHF0WanrYtfUUdZXpoLNSdsFA7YIC0DpLZFqYKM/2iiruWYpJYqB3QMrI11dswpjtWHem9Sqz99RtS3Xd75mJgoXZAx7G2fW0PrzrCH5Au4W2wGW/mcRJYqB0wRAM9TtKH/GMxQHjXLDvubQYxnToWahe42igeOjFbBsxdeDe96SDLmjwWaieMNdEVsH281idPJLzrf0u3bzEZLNRuEJyACumaSDXhbYSy5hVgoXaERlFEeJvQ+IEqxULtCIKo3gTXQPhAlWChdgRB1EI9TSzUjkCIgjLN+EB1YKF2BEOUk2nIB6oCC7UjIKKYTFM+UA1YqB1BEaV4ckTlsVA7giJK8eSIymOhdgRFlOLJEZXHQu0IiijFkyMqj4XaERRRiidHVB4LtSMoohRPjqg8FmpHUEQpnhxReSzUjqCIUjw5ovJYqB1BEaV4ckTlsVA7giJK8eSIymOhdgRFlOLJEZXHQu0IiijFkyMqj4XaERRRiidHVB4LtSMoohRPjqg8FmpHUEQpnhxReSzUjqCIUjw5ovJYqB1BEaV4ckTlsVA7giJK8eSIymOhdgRFlOLJEZXHQu0IiijFkyMqj4XaERRRiidHVB5aqA3D2ICF2jAmhoXaMCaGhdowJoaF2jAmhoXaMCaGhdowJoaF2jAmhoXaMCaGhdowJoaF2jAmhoXaMCaGhdowJobeUP/uRsT/+LMvVqtPb6R8r/zEb9/9kYRfSjvRb/7qxo2bwTPEaOf56p/8Z/yNkGJE6zW/+uqG7KpXiv5Qhytzzap9dV94zbYS/fpO+LPvCqa6lee3fxn+7C+kJAParnn/z7mFug7NoY5W2P+7c/MX4RffvlsXCT/T4qHeLOpb/vkXq2/+UjItrT7Q39343hfZM2RouebDwFuoa9Afav+LKAm1q/b3d27+qZJQrxP99t1wmPn6TrWFHI02nq/uf+dX+aeK0G7NB8239KpXCjzUr+7/4S9lK7B9Da59ZAQ6eCJC7f+hlF71StEf6t+vbcL+U7oC24qGfFUz2TMa7T1/f0dy27+t6Kff+ZX0qleK5lCXJkiaalB6zbYW9fsKyW3Vtp7+8777q1HNqgItRL++8yPxVa8U/aFO969oD/VG0dWnorPKbT1/96eys/TtRF/d938mveqVojnU/gr75v7NdJ+p3lC3E331qWTz3eEDXb36v6KmrUR/FzQ90qteKcpDnd8VqTrUm0Vf3b8heuxJ+w80nQQXoo3o13f+YiW/6pWiPdSrr24k9aU71JtEv3lX9oiODh/oKpyEGsmqhjai6Xa3pKhW1Ic62xBVHur1ot++e1P22Mt2nvGPvn1XQajXilqo16A/1F9v2gOjJdRrRT+VbxRben7vC397Vn6betVizYuveqXoD3Vw5GL4r/ZQrxOND/0WnVZu9YH6W7LSx6i3X/Piq14pgFAnMybqQ71G9KsbikK99gP95p+kzyZrv+bFV71S9IbaMIytsFAbxsTghTrtZG8oP/GOIkrx5IhKY6F2BkWU4skRlYYXasMw1mKhNoyJYaE2jIlhoTaMiWGhNoyJYaE2jIlhoTaMiWGh7sX5oZfw+nvPO754+Xm4hJ2fd3sjn0uftHxZ08s7mhooLNS9KITlSrdUP57dXlmojeGxUPciy9bLB5633+Wly2Pvdte3O511ivLALzcgWKh7kR8w592Gagu14QgLdS/yoT6ddWprLdSGIyzUvciHehFvqy4fXvO8nevxqH1291o4i5Z8N/O/eeR/dRJu3e6nSwhfdfnt8FX+n4d/C77dfa/0dlkqo5cFf0eeHPmv858Y/vtO9GhRofryRdJUzP0/LME3v/a13ny09sUGBgt1L2ra77OjaDYqeuAkmZy6Hny3mEUP3a6E+nSWe5Ufvmte/HiBmlD/XfTEd05yLygq1Lx8eRx9cX7o/x3yQ/23qVbziw0MFupeZKF+etcL22m/q979OBiSw3Hbz2ow5PlBCZ53fuhdebQ6Ow7TH7ff0RL8R4Jh+bOj5FXeW8+DV5Ua+mqovWD5/hKTf4MXFBVqX34SpX/h7QX/i158tP7FBgYLdS8Ku4rCwfgk62z3s+/89IWjcxgU/0W3S6GOHwke2g+fvR+9qjRc1oQ6DmeQzuTxokLty09n4VOC7jt48X723o0vNjBYqHuRP/jk4+AH2fTXIj8ZHuW4kJN8qP2v40fCTCXhi16Voxrq6Pvob0b8ggaFwsuj/jvsvtO5gPC9m19sYLBQ9yJuv/3WdfdR/IPKMR7PPvrwT2ZeIW0B+VBn6Q0Tlsyjtwh19MTCX4EahcrLo/477L6z9C7Cg1rsGBU8FupepHPXx14aq0IoTo+S726XMlof6jCmI4Q67L/D7jsLdbA0C/UEsFD3Ip0o88OQ215OCSahXvv+2//y2WzUkbphB3gu1EH/HXXflZG6895zQxkW6l5ks9/xXFW2dbyKvtvLTZQl29Tz4Klrt6n7hLqoUP/ysP+Ouu/KNrXNj9GxUPcit596Hu3SOvEuRVvXQUTSVEYPtp/97hPqokL9y4On7kXdd2X2u+HFBgYLdS9yoQ52Qj8P/9l5z4/sg3hq7Mqj+HiO27n91PEO4f10CfF+6ifJfupeoS4o1L/cZ75zLXpxsImQ7RVvfLGBwULdi+JhomFKk2PDwm8W8ddvHecfi17jj95+/1t/RFmvUBcVal++yvZt+1/sHuW0ml5sYLBQ9yIf6mQGPDp2Oj6S+smt6Ou4mQ2P/Y4fWt71wg699tjvXqEuKtS9PL/whXfltw9m2dHeDS82MFioLyrnh+mkt208TwsL9UXlJOmvLdRTw0J9QTnL7YyzUE8LC/WFZJ6bCLNQTw0L9YXkJDzbMsJCPTUs1IYxMSzUhjExLNSGMTEs1IYxMSzUhjExLNSGMTEs1IYxMSzUhjExLNSGMTEs1IYxMSzUhjExLNSGMTH+Pwpv+Pv+HN2nAAAAAElFTkSuQmCC;" parent="CiWgiKEQsSCrlubR7PXY-16" vertex="1">
          <mxGeometry y="3.8819710829153142" width="178.40310507346825" height="130.71000831716108" as="geometry" />
        </mxCell>
        <mxCell id="CiWgiKEQsSCrlubR7PXY-14" value="&lt;font style=&quot;font-size: 7px;&quot;&gt;***&lt;/font&gt;" style="text;html=1;align=center;verticalAlign=middle;whiteSpace=wrap;rounded=0;" parent="CiWgiKEQsSCrlubR7PXY-16" vertex="1">
          <mxGeometry x="2.9152650969085383" width="58.305301938170764" height="29.132172788082965" as="geometry" />
        </mxCell>
        <mxCell id="CiWgiKEQsSCrlubR7PXY-15" value="&lt;font style=&quot;font-size: 7px;&quot;&gt;*&lt;/font&gt;" style="text;html=1;align=center;verticalAlign=middle;whiteSpace=wrap;rounded=0;" parent="CiWgiKEQsSCrlubR7PXY-16" vertex="1">
          <mxGeometry x="66.07934219659353" y="97.10724262694322" width="58.305301938170764" height="29.132172788082965" as="geometry" />
        </mxCell>
        <mxCell id="V1H4tHCDxBhfa8CFtdOd-7" value="&lt;b&gt;G&lt;/b&gt;" style="text;html=1;align=center;verticalAlign=middle;whiteSpace=wrap;rounded=0;" parent="CiWgiKEQsSCrlubR7PXY-16" vertex="1">
          <mxGeometry x="-20" width="60" height="29.733850845578043" as="geometry" />
        </mxCell>
        <mxCell id="PGVrQWEKwm920lTrFXq_-1" value="" style="shape=image;verticalLabelPosition=bottom;labelBackgroundColor=default;verticalAlign=top;imageAspect=0;image=data:image/png,iVBORw0KGgoAAAANSUhEUgAABFwAAAMDCAMAAACo2PFXAAABiVBMVEUAAAAAADoAAGYAAP8AOjoAOmYAOpAAZmYAZpAAZrYA/wA6AAA6AGY6OgA6Ojo6OmY6ZmY6ZpA6ZrY6kLY6kNtNTU1NTW5NTY5Nbm5Nbo5NbqtNjshmAABmADpmOgBmOjpmOmZmOpBmZgBmZjpmZmZmZpBmkJBmkLZmkNtmtrZmtttmtv9uTU1ubm5ujqtujshuq8huq+SOTU2Obk2Obm6Oq8iOyMiOyOSOyP+QOgCQOjqQOmaQZgCQZjqQZmaQZpCQkGaQkJCQkLaQtmaQtpCQtraQttuQtv+Q27aQ29uQ2/+rbk2rjm6r5P+2ZgC2Zjq2kDq2kGa2kJC2tma2tpC2tra2ttu225C227a229u22/+2/7a2/9u2///Ijk3Iq27Iq47I5P/I///bkDrbkGbbtmbbtpDbtrbbttvb25Db27bb29vb2//b/7bb/9vb///kq27kyI7kyKvk5OTk///r6+v/AAD/tmb/yI7/25D/27b/29v/5Kv/5Mj//7b//8j//9v//+T///+1qLwuAAAACXBIWXMAABkRAAAZEQGQh6VoAAAgAElEQVR4nO2diZsbx32mG7w2QyxJkR5QsTQhs7FkOeTIsikfmk3oaLWx1tZYoKhETsi1JpYg0mtKMemYIjhDcojBX75d1Uf1UX2i6/gw3/s8EgczQOPFD9UfqqqrG8GSEEIMELgWIISsJwwXQogRGC6EECMwXAghRmC4EEKMwHAhhBiB4UIIMQLDhRBiBIYLIcQIDBdCiBEYLoQQIzBcCCFGYLgQQozgfbjMgpRTF+823n1xexwEo+sWxFqxPw7OPMz/6tnt8+FrGb3y4epbX+xktz4Pgo30xjR8jrQKocWGuPOJzxs3Gdtd+EBt99nDmvsXybxdwakL1a+xxUY1tRuMw63zb3zwTdbn0++d26x9SFzstIz1LS1bhxDtC2ld2E7vgEcghUvIpaa7T+XdvAmX0H70UfYXBzfT13K6OSobyIfL4Za6Ff4lEzUzUZE24bK4ldqNfpD8qkUkKQo71Wn9Y1tttFS7AQlrlY3iqN10C5f6ltYcLq0L2/Ed8AiwcGloAOLTLjDYJrsi9/GscuSX7L+rZmA+XMLmnr5w+Tzp36Zif2gTLtNSqdv1dxSFt0v/kd1qo6XaDYkMl4yDvN0pXBpaWmO4tC5s13fAIwDCJX0DH1xpzA0xNPCoDzkPRueyTUO2yIt3lmL4MQ5WbjSFcJmpD9Kwau+ntcp2aRp0Y7vFg5txqbuHi3qHxEa0H+2tNlqs3aDIMMm4zYNT43bhoh5R29JmTS2V4eIB2XdJfJjVt4C5R0Oipewy/EvGSPingyFxY6PicS0ptHc5tZL+4Y/j5InnbXsA08wdZ5HdKuGSbkTj3bzRQu2GJQyX01dyU1Tf7x4udW4MlyVYuOTnLHX4FS5hE94Q/yW358Wu+Irjt0J7VzdFzIS34idubOjq8Uov7u6sFi4Vc7JtNlqs3bCIV/eJkjjcOvFvDJfBAQ2Xg5vhqOLUW9GbHbaU64uwC37hSjzCFe/6s1tiMv/SN/l73JXtVcyqyglLOYGZHoN6IDYanL8mtyrb0oOr4S/UMY/oWa/lb75V3TmWDVDNhIi+SrZBzoIL/0f7uHYiF+8W2ns0txJtOXyiWXJYIzdZoNvcMvUrNuNpZvola5UZae2Psy+qKlyyD85utLKGhdot89VXb+iy8FbH9wtf3UPtzWXy+EzXLnyyjf00XAqbKxQ7KlIyOfX37eoQv6D0/Qg2K2tQfH8yd9S+Ep/BDJdkuiyaEg1byjUx+3fi71S43ItnTkfXcvf4XIRLPKt6aXmwFahZuUV6HEce4hBvcvKbS4lKRDzWzkvokDu7GpSEz93mM6i1yOjXhXBJP03jJ45eWPz5nwmXwuYytS5+equmXbBSu/0s96LyO9U0fr/yD87sL9U1LNSuUH31hhbf6uV8nPUs3owR4fKnncwo8noaLoXNFYudD5fr7eqQK8ZMzO9W1qD4/qg76l+Jz0CFS/LRr6bi5d/ClvKGbHbpWy6nJtMbmXuIn/7blmoucXsVG88cKYn3xfw2MtvcXJYlNERzIOpDvnFQF9Fe5PSVfLgkO0gUJ+H/N+O7X19mw6WwOYWY5jz9Yb4vlLzgglW626vRV/HtWty/kjxF/sFqo9U1LNauUH31hhbf6vCBo4ufffbplcizcDPzSs88TONgf3zi86R2hc2Vil0IlxZ1yDyn+J0w+qi6BsX3J71jxSvxGaBwkY1VNIf9cTSWOdiJjvGJfWIU9fHnaZjImdOD+BHqHvIwwaWHy4V80y5+s1x8km50JDrtz24FaicUz3J/HL2b4pHidvjJppPQqkuZabITt5tYbSVy5m508Cz/1MkwKapCciseLGXDJbu5wnMHcgndN5lNJkdei1bRU8+LQ708GxUvKT2cW1HDYu0K1c+/odm3Om0vU93NBBku6UBmFmrG4aJrObliJ+4qslvUIXrqudhCclCiqgal9ye5Y8Ur8RmAcMkRd1zivSJqe6IBqAMjyT2SCQvxVqp7iJ+ST/d4K1HPNj2OGz5E3FYHc+KJg7TfEd2zKFEmaXfpQZzyqKPiBbcUWZT2yfizOO6rz3IxkAmX3OZyqDV+8UyUatp5q7StF5p64e269LDiJSUbrahhqXaF6qs3tPhWT/Ndhqm+XynDJelsiFFREi7FzZWKXQiXdnWI/ySOxs2C3NtRqkHp/UnuWPFKfAYrXKJZWDXvGLWIzFzGPPnAS96ItHsd3yP9KdlJyj3YabIDxL+OG3r+biWJMsnv07u2C5dGEfXi5sVwiaZZksFE9Mlc0ChtrsgffnFO1VozyRs/vfqkz3V/sm/XqHy6xjQbLjU11NQu9yapN7T4Vot1vd+/k/XJ3sw8Pnzts6TzEP4TP2Nxc6ViF8OlRR2CTOM7NU6m+CpqUHp/MimkeyU+AxQuo/Nvyd565n2MPnvyI/Prud0m+lHdQ/2UObSi2u3Xf3g/XqmntpHu04V+dV6iTHa5azKcbz1arhbJvLjS6rhomiU/9TIvteb869Lx4P1xkJupKVkljy4ekU2KGQ4rRoVjQLmXFA85qmpYql2hY5C+ct1bLTj9Qfp+Z2/mH5/2VjYyu3Zuc+ViF8OloQ555unrqaxB6f1JnrDilfgMQLgU36W4yjG56Ijf48wvorcmFy5pL7QQLtHRUhlj9fu0VqJE7h5JT6LVStl6kXxzzG8wap+Z0Xn456naDXXhkmgWqxxPbqhwyVsloVWcAJhlPnczcqWXlMxn6GtYql3xlaZvaOmtXu4nCxKi5YqFm7nHpxVIO3jFzZWLXQyXpjrkmQaZ6mtrUBkuFa/EZwDDJXd+jjZc6nsuFeEiz9k7/8oHd6dtwqUkUWKevUNyVCvXAhc7F3SLZBpE6sJFdvTVb8UrS+/eHC75Uf0sNz1StIp7SaVlburtUpNaupeUzInra1iqXWW4lN7qkPs3c3lZuJl9vLSdJzKankuLcGmqQxY5D52Gr7YG1eGifyU+AxgupTdykHCZJ7OPS/0+XT0sqiCzqyaTdtP8pItarp+lSUS3O2U2OfpIzV+ISZf0kEhzuMxyXfu0lMm+lLNaRv2i0jrVzNsl9pv0MFnxJRWGBI21az0sijj49Go2rwo308fLUk2TY9b1w6KqcGmsQ+51pRpVNagLF90r8RnAcCnNMZbCRTeh2xAuufe0IlzibcpNlCc6C2TnQ/bHaYPMPGixozvM1EFEM84SH6MqI8IHbKaLOZrnXPKbm2XDpWS1jMYDpcOi2bdrFqQHwUsvqTCZ2Vi7fPVzU2f5t1pt5Er+0yB3U02gnPnPrWR9TP2EbuHgjYqTxjqkiEm3T4Li/Hr+kQ3hUn5hHgMYLpkOgG6pVXwoOv18yA+lq8JF3WNWMaGbTsfOk0VlOYmyd6aXMk1nR/MnLmo+gVqJqBdX3MJULCVM2940+Kt/LAzya8JFbG+jsFOrD9i8VWT6nZ3i8a/imseNipcUH13V11BTu0L1c5vMvtW5l5cdIub30eTx8uzxZL3JZnlz5WKXw6WxDpknlbM4yYS4tgZV4VL1SnwGMVySdUeLe+Pcoddl3SK65p6L7LrLywRo9+l4GVfypEWJAuoDPtZKVpNlL7mg6zm3Ezl9J3pxpXCZiYOdmTMl1ZUEmsNFTnWM5CE5+ezxUC5ZbJOzSp6r+BJyb1c8MCo/WB3O1tVQV7tC9XNvaO6tnkbFkQv2Nko3EzJH69VbU7WILlfscrg01yFmmls5U1GD8vszTWqmfSU+gxgu2UUE+U/G9C0vL/9vmnPJLUy4rnuTK5f/p6eMZD698kOM5ONKnR+SqpWWv3QQKS7/X8Z7SzrYykwgtgmX/HNHf5xGL7holTxXeQvZt2uarJotPDjeaKmGNbUrLf/PvOWFtzohTqHszcxG5eNF7uXWq7Rc/p8LF30d8lzPLpSpq4EuXOQdK16Jz0CGi3pD5DyhJlyWXxVPXGwKl0VyTsfFaFSs2QmTZ72kkyhkRCEx0s7vQXI8MWytH2nv2kIkPrfuxO/K8SAerTrN2YFTm3BJz9oTT/8wqWgQzTHlrJKtF1cFzor7cNzVzz94nuxKhRrW1S5X/eysTP6tVsdfotuFm0osfU/jA71JF6+wuWKxNeGir0MxXNIPmHjAWVGDis+SjapX4jOY4RKdfT66EC1Y1IVLfB67uuRCU7gsF7fPiUWld+K76HZCuc3T+QsfJBL5XSLfs8+tpX1wU6yAHakLHhQX7rYQkVcFKF9yIXpZhdmLzKHUFovoFvevijZ86vvpWoqvos/lglW2cllmpdctk7v44K+SD/t8DWtrl61+bvlg7q0WTyauMX7qrW+0N5f5x6eTPeoYW2FzhWJrwkVfh2K4qMmV+E3R10Dz/iR31L4Sn/E+XHA43Op5xdfeD3RMaYHwMYV1qIDhMhj7454Xwev9QMe0vnzmmsM6VMBwGYrFTs8DhL0f6Jj7Y5RDomZhHapguAzF/oWep3z0fqBLooMo/MBmHWpguJA+5L8Y6fjCOtTAcCF9OLySP3x8XGEdamC4EEKMwHAhhBiB4UIIMQLDhRBiBIYLIcQIDBdCiBEYLoQQIzBcCCFGYLgQQozAcCGEGIHhQggxAsOFEGIEhgshxAgMF0KIERguhBAjMFwIIUZguBBCjMBwIYQYgeFCCDECw4UQYgSGCyHECAwXQogRGC6EECMwXAghRmC4EEKMwHAhhBiB4UIIMQLDhRBiBIYLIcQIDBdCiBEYLoQQIzBcCCFGYLgQQozAcCGEGIHhQggxAsPFH85KjGz6pMTIpo3wROLagqwGw6WOw7+58OZv01sPfnH1zMPynRbfZB+xNfqo55OdPWssXU6exEqXJ0+YLmsAw6WOw60gOPF5fGOxEwSacLk3vp57RM9wOZuhSSrzFPevBsHo4t3aB5zMUH2vWRBxoWJjh1eCYKPebCCeZKi+1zSI6j6L36H98Zk/7aRvVg5RpODCh/LnxZ36J0/KcOpS8a1ueiQpwnCpI9yPzwVJduyPz2vCJYyc68Xf9aF9uMyDYFM9uaQ+0LqFS9XGpoF6XrO0C5d5ZCNKcD2+vdCHS/LKRDQeXGkIyLQMxSRtfCQpwnCpIwyX99NGNgt/NhYuZ8+2Tpfpib9L9qFpcDr8OH12K9B/YkecPNkqXWbR61jc0vdPwh2373ivI0+etEqXsKfyUP7zylimzKzqfdgfj66F//zxirjD/rgxXKLN3B8XQrbxkaQIw6WOMFx+tRXvuIudM/eMhcvZs63T5XAr9Iiecp74TGv6FCdPtkuXZK+q+PgPX75mvskAT560S5fYcz76tTSr0F6qFybToXW4hD/ka8pw6QzDpQ4xvTFN9+TNZGde3D4Xjh7koDzqRW/Kv46D0x8lEyIHN8fp9IW8ezLmz1MMlRbhEj7T4VbUzhO15b5m48VQacqYdK+air007MAEo7fkKzzxf68EJ94XLzN89Ytb4+SVy9//eufE78K7Xloubob/F78/EBMcpz+UcRT2FkY/WMa/vBjVLt1wkThJiuFSGTIzWenQVgqHmftQBEz2WQsvTBYvkKOoVDIeXO2PN4v3jsIlc8fokdX+pAjDpQ4RFfN4mDAVP8pwObiiJidUuLwyFntfHC5h0Mh7iIaaTIzoehfdw0V+Qk/lk1R/WAv6hovcqpjJjtIkDJG/C3+4F908jF766c+T3/9pR/wTBNd24lc4j1/s9fR1b4p9N9laZsNFuoaLzAWRs/NovLO5jMKlWOxwWPSheoxUU5Iik5ZJUGXLcE8Oi9Qd58n9K/1JEYZLHSIqDqNxkWiFUbiEzVfMdBzclDMd8bAobHtn7i6/jg/lhE0wvHWwI+8/D0TjXnylmxjpHi6ydx593sY7RgU9w+XZP4ownYpeSPghvSl+HyeZeLJp/Lo2kt+HL//E3eU9+eq/CkTnQb7YaXiP8E9n7i4+ETUQmzuQhcpsuEjXcJH9t/3x9agkIh7icEmeVb2yIDj1/buqfBnJKKczY77chG72jtGwqMafFGG41CGiIk2PzXiOY5ab6VDhcj15RHp4NMwYuT9VD9a7h4vMgChWhg4XdbQoHnfJfW6WHJUJf06DNvwn+n308sOd8KNl8telLMdG+kvRnYtCdjO34SJdw0V2saJMEfkV3ojCJXlWdc9nt0TPSU7rZmdO5lFmbGZHRepQ9LVl8Y4by1p/UoThUoeMipkMB/EJJ8NFzeBmb87jfkkULrkJ1rC5fueb8rZztA6XeCg0VRHTRGOqKE0ZLWLRTDSMCeQin+Qoktifkl1zKssSjfmiT/6oEyfdnv3h0++NZbgkcyFqj85uuIK2E7qysxLt5TPRv9xYxuGSPGu+bvdvBtmjRYlkHKDqyJB8WQc7oyRb0jvG88GN/iSF4VKHjAp5zFO2Vpkm8ag7aWJpuEStWT4ifwQpesAruvlcRftRUbbTnjbxP7TuwlTerTTv2TJcVKzI/ycTUvpwyW64irbZIuZaop5E+IPse+TDZV6ae0lfgZLMRFS2DFGfM3fHeDzKcGkPw6WOOCpkp2Vz2TpckqYZIw4wCEprPrO0PFY0y7bu9GhRZkCioVW25MIlO3joFi5iQurNz+7MK3suLY7ntswWMUaZx1GwMU86UKVwSTsx8i/xnEsqKYdEmVFR8nLnyYRaesd2R7JJBoZLHckMymY075eESy45GnsuggfvnwvqF7i2C5c0RWbRQZgW61z6hEs2rLLhkp9z0YVLvPfNcuGipojqUzCmbbiESp/IzYU//KNKt8KwKH0z5HNnIyIa74qtZNbLJWWYRgVWd4znXNhlaQ/DpY4oXMJ9+D/jKclokiW7J+vCJd3Zs3O5i2nDAcwW/ZZlclw8zpWpXILx7GZTL705WgorXOVRoeW9sZzQVeGSP1qkD5cTd2VXLRsu8hjLQhYls+Ea2kSLUB6di7YT/rCxrJpzmUfrUsIRTpLHGUnx92QruTLsj+WIWN0xqXgbfyJhuNQRRUU4LnpfpkVytOhEdFhzlpvQzYZL9mhRGkbzptURzdmiBkLJRGp6gKee5mzJh0s89oteSyZc4t+LV1c5LArilSCZ3TyaKYputhJulS1is0lp40NX2gndW6lS9PzXMpLRa81Nv6eL6DaW2TvKR7b1JwKGSx3xkrhp3JrmSfuUqx9uRSs2dzK5kzwiXecS7YWjHzwUJ6usvjgi0yuP+/T3zjWfFd2O/Lk5C7HCWG43Fy7ZFbr6CV2xUnd08d+38rt5ZoVuuuHVSUeo8ftUdbTo/tXwOU9Fy2q/Em+DklwmOV0qQ/TJkLmjfOSg/usOw6WOZL1t/BkXJ0h6xEaGxVQeTMiHS3KXuMlnPyeJb7Q7ok+6w3CpI46KpOOcP7co/vgSH27J4l11sZWD7AfcvfOBWJXFJuwjYQ90kGtmkBIMF3KcqbgCGBkChgs51kyD05xAMQTDhRBiBIYLIcQIDBdCiBEYLoQQIzBcCCFGYLgQQozAcCGEGIHhQggxAsOFEGIEhgshxAgMF0KIERguhBAjMFwIIUZguBBCjMBwIYQYgeFCCDECw4UQYgSGCyHECAwXQogRGC6EECMwXAghRmC4EEKMwHAhhBiB4UIIMQLDhRBiBIYLIcQIDBdCiBEYLoQQIzBcCCFGYLgQQozAcCGEGIHhQggxAsOFEGIEhgshxAgMF0KIERguhBAjMFwIIUZguBBCjMBwIYQYgeFCCDECw4UQYgSGCyHECAwXQogRGC6EECPghsu337o26AeqN6w4vV3BcLENqjesOL1dwXCxDao3rDi9XcFwsQ2qN6w4vV3BcLENqjesOL1dwXCxDao3rDi9XcFwsQ2qN6w4vV3BcLENqjesOL1dwXCxDao3rDi9XcFwsQ2qN6w4vV3BcLENqjesOL1dwXCxDao3rDi9XTFkuHxLCEFlwCSIYc/FNqjesOL0dgXDxTao3rDi9HYFw8U2qN6w4vR2BcPFNqjesOL0dgVquJyUuLboA2ybQRWntytAw+XkSdh0gW0zqOL0dgVkuJzM4NqlM7BtBlWc3q5guNgGts2gitPbFYjhcvIkcrrAthlUcXq7AjBcTp6EThfYNoMqTm9XMFxsA9tmUMXp7QqGi21g2wyqOL1dsQbhAhYysG0GVZzerlijcAEJGdg2gypOb1esYbh4HjKwbQZVnN6uAAyX4qFosJCBbTOo4vR2BWK4VCyiAwkZ2DaDKk5vV6xRuOj+6mHIwLYZVHF6uwIyXNqduOhpyMC2GVRxersCNFy6XHLBs5CBbTOo4vR2BWq49Ki9JyED22ZQxentimMULgmOQwa2zaCK09sVxzBcEhyFDGybQRWntyuOcbgkWA4Z2DaDKk5vVzBcUiyFDGybQRWntysYLiUMhwxsm0EVp7crGC6VGAoZ2DaDKk5vVzBcGhk0ZIxM49gBtbHT2xUMl9YMETIDDa2cgNrY6e0Khktn+ofMAIMqh6A2dnq7guHSm+4hw3BxAb1dwXBZmdYh030U5RXeFLwj9HYFw2UwmkKmuWfjN94VvCX0dgXDZXAYLn5Bb1cwXIyxbgnjfcEroLcrGC7GWZdxEkzBC9DbFQwXa7QOGU+DBq7gMfR2BcPFGp3CxcOkgSt4DL1dwXCxhy4xgIIGr+AR9HYFw8UiDSHhedAAFlxCb1cwXCzSIRg6B435pAEsuITermC4WKVfEvgRNJAFX9LbHQwXu6y887sKGkvdIwNgNhRcbwXDxTYDencOmv7hYLRPZBY2FFcwXGxjyttk0BjoCdmDDcUVDBfb2PAeOmgYLg5A9VYwXGxj27tz0JTjo3ePxwvYUFzBcLGNU+9eQdMYPn7DhuIKhottvPHu3qVhuNgE1VvBcLGNl969gwYgabwseAtQvRUMF9v4790/abwMHP8LrgfVW8FwsQ2W98pB4zpxfIy7dmA1FB2dwuXFTyaTy+88Fj8+mkjeM2PVBtTa43kPFzD2A8dxtK2C04Zy9PvtyeWfPla/6LPDdwmX59ty+6+Jp9xjuPQE0LsuEbxOHLtBNjBOG0q0f79e/IWxcDnanfzo8fLFu5Mfi59fe9z8CKMA7qQSRO+OO6k3gcNw6cnz7Ve/CP93+ePkF712+A7h8vLG69Hzvp7+7BLEnVSA6D3ETuogcQYJKGe4bCh7sovyVHVdeu3w3Sd0X94IM+z59o+7P9ewIO6kAkxvM3uo2cDpHEZ+4bChHO2++uUy3tUjeu3w3cNFxtnTyc/enUx+mO8pfUvWl2j/tPdMBrAhD0xmT45TJc6YaK/X7PCDh8vRrhiIxXPH6XMzXIhJGC/mqQ0X7Q4/eLjsRfO5k3ceL1/sThzOvGAOL3C9/RNfIWVcq7fBYb2TGZa9JEz67fAdw+VoL7v5lze6JdmgeNfWW4LqjSG+RinjNFyKPZfk9512+G7hEgVY5ibDpTOo3nji4CnjYbh03OG7rdC9McnNGTNceoDqDSheig+olPHqaFHu923pEi4vb1z+efKTfNbn2w6X0uG19QhUb0TxytBA6Mz4tM6l3w7fJVz21OLfPTm/8+7E4WoXwLYuQfVGFG+OCo9TxmW9n04ufyxO91lth+8QLvGpRfLkouxpRo4AbOsSVG9M8db54F/KeHJuUdRp6bXDdwiXpxMVLssXv5nkz5q0DmRbX+J6g4p3TgVvUsaTs6LjEVGfHZ7Xc7ENqjeseG9vxymDWm8Fw8U2qN6w4qt7u+nMoNZbwXCxDao3rLjtr7gc6slQ661guNgG1RtW3IS3+ZQ5KxlI1xEMF9ugesOKG/U2lTJnz65BujBcbIPqDStuyXvIlDmbwaSzYRgutkH1hhX38vtz6zfBcHEM27plUMWdefdOmbNn1yNdGC62QfWGFXfv3TFlzp5dk3RhuNgG1RtW3CPvdinDcHGOR22mE6jesOJeetelC8PFOV62mRagesOK++3NcPERv9tMNajesOIA3jJDGC7+ANBmtKB6w4p77a3JEIaLe7xuMzWgesOK++pdzJCqdHF9Rbz+MFxsg+oNK+6rd2W45NMFN1sYLtZB9YYV99W7ZuSzFoMihot9UL1hxT3w1qdEdXaoSV3nlwlfBYaLbVC9YcWdevftgpyEHxMtGS72QfWGFXflXT2n0obqM49wYLjYBtUbVhwzXHDrrWC42AbVG1bch3Dp83jUeisYLrZB9YYVN+1dGSArHuxBrbeC4WIbVG9YcVPeK456GkGtt4LhYhtUb1hxhosrGC62QfWGFWe4uILhYhtUb1hx0+FiZuu49VYwXGyD6g0rvqq3q3X4qPVWMFxsg+oNK97X2/SwpwnUeisYLrZB9YYVZ7i4guFiFzftdBCOW8EZLqvCcLGKq4Y6BGtccO1dXL9XkPXOwXCxiMvPwdVZy4J7/I4A1rsAw8UiDBfL1Ba8OOzx7S0BrHcBhos9vG7KzaxbwRkupmG4WMPzttzIuhXc9/cCrt4lGC7WYLhYpqngnr8LcPUuwXCxBsPFMuAFh6t3CYaLDUrDe8C2DlVwAXrB0epdhuFiFm2sxG0drMVjFFzBcHENw8UYNbkC2e69L3gByCJnQKt3GYaLMZryBK3xe1/wIljlLQFX7xIMF2OUG3b+NwyXwagqH1B1y3hc75YwXMxRatOatg7U+r0seH39GC5OYbisTJfWW3FfiNbvTcFjWvX8YKPFv3p3h+HSm16jmi5N3bO9wnnBC7QbVsJmi3f17g7DpTe9wqWDt299eucFL9C2Pr55twXVW8Fw6Y3NcPEhYZwXvEjLonjn3RJUbwXDpTc993mGS3dWevnOG0pPUL0VDJc2DLlvd/P2J1vcNPYBXj/qTorqrRgyXL5dQzKN27WFw+d3Qqnn5lpozRkwCWLYc6nE0LBkOG/L/Rnbn6RD1R+1B4DqrWC4VOJ7uNiejnEZLqtsB3UnRfVWMFwqMbTzGgkXGwljvbEP9KJQd1JUbwXDpRozeyzDRYNJfdSdFNVbwXCxvUJ82DZjcWjEL3S3C6q34hiHi5eByjAAACAASURBVOUP/gQTbQY2XGy8Aag7Kaq3guGyDuGiZ+BXNbS4rWEd6k6K6q1guKxtuAz92oyGy7CbzoG6k6J6Kxgutle+OgmXIV6osXAZdrMlUHdSVG/F8QgXFyFSBcMlwdKbgrqTonorUMOl7e5if9jThN02M+DrX0Hcaf1Rd1JUbwVouLTZYYb+5B4IF23GXbh4UH7UnRTVWwEZLu0Sg+HSQMeadBX3pf7+FLwbqN6KYxIu9twa8abNdC0Ow8UuqN4KxHApN1l92/UtViK8aTNdd/xVwqWX4EB4U/COoHorAMOl9InoQQPugDdtplsBe9TYk3fFm4J3BNVbsUbh4kE7boNXbaZ1/erv43X5vSp4B1C9FQwX23jXZlqUr7rKAOX3ruAtQfVWrEm4uHbqgJdtpk+4oLwJXha8BajeijUIF9c+HcFpM2l19fVmuJgF1VvBcLENTJvR9RCzBUd5D2AKXgDVWwEYLhUfpCjAtJmmcPF7GlcBU/ACqN4KxHCB+czUAtNmGsMFBJiCF0D1VjBcbIPVZhguzkD1VkCGi7NrsQwBXpthuDgB1VsBGi59Fox6Al6bYbg4AdVbgRouuLUH9IbOFsSCS1C9FQwX2yB6I2cLZMEFqN4KhottEL0ZLg5A9VYwXGyD6Q0bLagFx/VWMFxsA+oNmy2oBYf1VjBcbIPqDStOb1cwXGyD6g0rTm9XMFxsg+oNK05vVzBcbIPqDStOb1cwXGyD6g0rTm9XMFxsg+oNK05vVzBcbIPqDStObzMcbl24U38PhottUL1hxelthsOtIBhd+qbmHgwX26B6w4rT2xD3zgUhpz+svAPDxTao3rDi9DbGs9tjkS8X7+r/zHCxDao3rDi9TbIv42X01kPN3xgutkH1hhWnt0kOt0786qrIlwvl4RHDxTao3rDi9DZJGC6fLxdy+mV0qdB9YbjYBtUbVpzeJpHhshTTL1eC6CcFw8U2qN6w4vQ2SRIuD8KxEcPFNajesOL0NokMl2e3xrqD0gwX26B6w4rT2yRhuPzvaMKlvJyO4WIbVG9YcXqb5P64eiUdw8U2qN6w4vQ2RjQcqjwHgOFiG1RvWHF6GyJa/n/qmm79nIThYhtUb1hxeptBnLhYufJf0ilcXvxkMrn8zmPx49HvtyeXf/p4JbvV8L32VaB6w4rTuwfa/fvp5L3MrcOtmk6LpEu4PN+eCF4TT7knf3y9w6OHhm3GMqji9O6Bbv9+eSMXLou6qy1IOoTL0e7kR4+XL96d/FjkzKtfhP+7/HH7hw8N24xlUMXp3R3t/h0GzntVD9DSIVxe3ng9et7XxfOIp3nqsuvCNmMZVHF6d0e3fz+dvK0Jl2efvnH+/Cvf1069dJ/QfXnjtcdHu69+Gf/Y+fFDwTZjGVRxendGt3+HfYtHpXC5fyWI0a106R4uIs7iZ40dEr4lhKCS2ZN1+/feq1+WwuWWOBT9Rog4KL25ergc7YYDMYYLIWtGfbg8335vWQyXWRAkV1lY3NKkS+dw2RPzufH0i0izro8fDPZ2LYMqTu/OlPfvo90wbgrhsj8Orqlb90onRXcNl6M9Ocej77nYhW3GMqji9O5Mef9+JA4cFcJlFmxkb05LXZdu4XK0O5Fr6Bgu/UH1hhWnd2dK+/fz7XC8UgiXxU5wPfugeXBmlSvRvbghxkRL/WyybdhmLIMqTu/OlPbvR5OYTG8iuUxU1e1u4fLyxuWfxz9ynUtvUL1hxendneL+bT5c9lSv6OkkHIM93+64Ym9Q2GYsgypO7+7o9+9HhXOLBgyX+NSi6OQinlvUF1RvWHF690Dt35m5D4NzLk8nmXDhWdF9QfWGFad3D9T+XRkuy1kuTcKsWe1okU+wzVgGVZzehtgfBxtpuhzsrLzOxSO8r30FqN6w4vQ2xTwITsXf4zoLgvwgScBwsQ2qN6w4vY1xbxyMPpI/zZMfsjBcbIPqDStOb3Mc3IzHQgcfai5Kx3CxDao3rDi9XcFwsQ2qN6w4vV3BcLENqjesOL1dwXCxDao3rDi9XaEPl8X9q+MTnx/+Q92XkrgGtfao3rDi9HaFNlwOxJUxw3DZ0ly6zhtQa4/qDStOb1fowiUMldP/HPZcFrd0B699AbX2qN6w4vR2hS5cxBWmolMcp/lrTXkFau1RvWHF6e0KTbgsdsL+ShQu++PiiY7+gFp7VG9YcXqb4fBvvn+n/h6acJG5EoVL+RIN/uB77atA9YYVp7cZ5BfRX9CtzE1guNgG1RtWnN6meHZbfF/RSP91i8uKYVFwPY6V8vVf/MH/2utB9YYVp7dJ7t8MKjsw+gndMw9luBz4fCwao/ZlUL1hxeltmKgDc6rcgak5FP2rm+Py9V/8Aab2BVC9YcXpbZ6F7MC0uobuQfL10h4vc4GqfRZUb1hxetvh4PaFVhfoXtw7H6irTPkJWu0TUL1hxentCp64aBtUb1hxeruC4WIbVG9YcXq7oi5cvrFm0QfU2qN6w4rT2xXacFnc/u9yBd3I50kX1NqjesOK09sVunBZRF9BIpb3+ruGDrb2qN6w4vR2hX4R3eia/OHemIvoBgfVG1ac3q6oWv4fweX/w4PqDStOb0s8+F/N3xWdOVuRJy4OD6o3rDi9LfDs06utVugebqULc/fHDJehQfWGFae3YRb3b47lgv42y/+n6fdL80p0w4PqDStOb5M8eD8KllNv/rY0g6ILl/1xcOqtO18/+PSKzycXYdS+DKo3rDi9TfHs0+gkxFMVl6TTrnO5N05OXLxmVG4l/K+9HlRvWHF6m0FeiS44X3OtS/0K3fgKDW/5vEbX99pXgeoNK05vM4ThMvr72oPJPLfINqjesOL0NkPUcxm92bXngoDvta8C1RtWnN6mWPzr1WjO5S39VXQrwmXxdYy/AyP/a68H1RtWnN4meXY7mtS98MvyCKl+Qrd86NofMGpfBtUbVpzepnnw/jk5QrrYvEJ3OQ8ChosxUL1hxeltAbmQrsUiOnFS9K+9PaUoBar2GVC9YcXpbYHF/e91Xf7vM1C1z4DqDStOb9PEq3RLl3+qP3HRZ3BqnwfVG1ac3iZJVunqvhat6ovo/Qej9mVQvWHF6W2K6NuKuh2Knnl8iSiF/7XXg+oNK05vM8SL6C5WfxV9xWUuv+Pv+pYE32tfBao3rDi9zSCW/9efIKSdc+GhaIOgesOK09sMi//Zo+fCcDEKqjesOL2Nkayee+WX2h6Mblj07GuFv8MjgNprQfWGFae3SdLL0F34oJQVPHHRNqjesOL0No28gG7Ly1xigFP7PKjesOL0toEYIbUMl3hQ9Nmnf8s5l4FB9YYVp7clFv+vxYmLy6/6nRX9LSEElVVyRU/DWdGjS96ewQgX7DGo3rDi9DZE8cDPs+KMrv6rRU7feXBl9OsHOz4v1fW+9hWgesOK09sMxSUr5XMS9etcrouEue73WUa+174KVG9YcXqboWe4iDvJE4zm/FK0wUH1hhWntysqw0XmyuEWv4h+aFC9YcXp7YrKSy7sj8Nc8fnSLqi1R/WGFae3K/QTuptx/4VfRD88qN6w4vQ2RONpQhXfFX3m4WInuPRgJ+CwaGhQvWHF6W2G5hOctYvoZuK+0WqX64YN++N77atA9YYVp7cZeobL8tmnYYfl/hV+Eb0BUL1hxeltmGefVAxweOKibVC9YcXpbZyKC+MyXGyD6g0rTm/jyEPLZerPiubFooYH1RtWnN7GqViyog2XW7zMpTlQvWHF6W2ciiUr+q8WYbiYA9UbVpzehln8cUs/o6v/rmh/V7coYGpfANUbVpzeZsgditYuWeF3RdsG1RtWnN5myIRLxZIVfle0bVC9YcXpbYh0+X/VOEd7bhF7LgZB9YYVp7crdOHi84UWFKi1R/WGFae3SUrXtsygPRS9vxW88kbEm97GDEbty6B6w4rT2yC1cygVX0TPQ9HGQPWGFae3QTqHyzQIRhfYczEEqjesOL0N0jVcDrd8vuh/CkTtNaB6w4rT2yDdw8XfsVAGiNprQPWGFae3QbqGy2KH4WIQVG9YcXobpPOcy8zj688pIGqvAdUbVpzeBln8omZWVn9WtM9XoEuAqL0GVG9YcXq7QjfncvWcOAh9XnLB2xESau1RvWHF6W2Oe+fiUdHXdzQdGP3RIq5zMQeqN6w4vU0hFsTJgNgfh1FxqRQvugndP3ym+C3XuQwMqjesOL1NMQ2Ci79dxtkSlL/6WTfncv+uea/V8b/2elC9YcXpbYh5chmXaXDi7vL+uHQcqPLrXL3H+9pXgOoNK05vQ0zjvsp+FCuzUteFi+hsg+oNK05vMyx24q7KPJl4KV5MgT0X26B6w4rT2wxpJyTuwZQ7Jfrvih596O9XiiT4XvsqUL1hxelthiRMwh7MZva2Qtdz+cX3eCjaHKjesOL0NkMSJvGUS7thEde5GAXVG1ac3mZIpk/iKZfw3xYTuurCu/zGRQOgesOK09sQ0eGh5JuIktFRBn5XtG1QvWHF6W2IcDx0TX6FYjgqWnx1rjzKYbjYBtUbVpzepoi/mlV0XA63gvIxZn24LO5fHQejCx96u/Z/iVB7PajesOL0NsY9se7/okiJw6uXyjMo2nA5uJJ8k5rHC14Aaq8F1RtWnN4G0Z4NnaD/3qJgdPGzzz67Ofb4YBFG7TWgesOK09sV+ivRnYhOXTzw+VLdqLVH9YYVp7dxKq5Hp13+n57eOA/8/e5FoNrnQPWGFae3cSpOR6w/cdHncxiBap8D1RtWnN6GOLw6DrKURjkMF9ugesOK09sQ0yBPm3UuHBYZBdUbVpzeZjjcCr4TX6/yX8ejX4b/FC8yVzGh+3nycE7oDg2qN6w4vc3QPMKpOhT91p2vH9zmoWgDoHrDitPbDIubbyZdlfZHi9IL7nIRnQlQvWHF6e2KiuX/t8VXF516qxxHL2+8J/99NJG8Z1SuFtTao3rDitO7B0e/355c/unjzC9+M5n89c/zd7o3Dk5/GKbFBxXXTsiHy2Kn4UvQjnbjPNljuPQE1RtWnN49iPbv19PbL9+Vv/hx9j5zObq5Xj01mw8XOTFTc/w5zJYoT452X3tccR9bsM1YBlWc3t15vv3qF+H/Ln+c/OLR5PXHy//K/CK6kMudW8GZh+EP+vmTYriE96oOlz9vX347CpeXN17X38UebDOWQRWnd3f25G7+NO26HO2++uVSRExmqJIJi/K3ikiKw6Lg1BvfG49eeSMhOwt8tPvdL+LNP9/OdZBcwDZjGVRxencmzpKXNwrjk0K4hLkSXeuyfPlcSWFCdx7Urbr7S7r5p5OfhYOwH+af+ltCCCqZPTlOlThjUv68nQ2bxY4Ih6lYcdtyncuDX1T3XARxuMQHi/LP7bo6hJDeNIVLuM+/ltvfZa7MxGRurxMXy0ThcrQ7eefx8sXuxOHMC3u7lkEVp3dnkinVvVy4vB2mS3asIgdD8pr/c/1qW925RVs1JxTlRl0vb+S7LlZhm7EMqji9O1MxLDr6j3xvYhacufPH8ek7D660mdCV1H6day5cik9uFbYZy6CK07szFeGS/8XiVuaKC9eXGvoNi3TPZRu2GcugitO7M1VHi3LjpMyXJ45+oN1Mv55L/KzPtx0upWObsQyqOL27U1znEu/wuXmQw7/94LP4qxMrttL1i+jjnsuenNB9d+JwtQvbjGVQxendnaeTyx+HfQc1TNkTK3S7HsHp+kX06SI6eSja5TkAbDOWQRWndw/UuUVRp+Xljfod/pnul12/iD6Zc3nxm0n+rEnrsM1YBlWc3j1QZ0XHIyK5w7+T7PD3/yl71bnF7XOtLxbFL6I3Cao3rDi9Byd3zOf+Vd31cwX8rmjboHrDitN7cOQ5i5KDm+Jg0cXi1XMjGC62QfWGFaf38EyD02GePLstvyv6TtW9qr+I/sTnh/+gDyQ/8Ln2daB6w4rTe3gWO0Fw6lxtsizrvog+DBefL/7vde3rQPWGFae3Ce6LjBAXuayh4ur/p/857Lksbvl8hW6/a18NqjesOL3NcHBTDIou1OSL/nuLNuL54Kn+hCQv8L32VaB6w4rT2xgPxHRu9dCoavl/FC4VV5jyAoDaa0H1hhWnt0nkgeiKw0VVJy5G4cLvih4eVG9YcXqbZSGmXzpdLIrhYgpUb1hxehtncVv7lURVX0QfxQq/iH54UL1hxentCv2E7pmHMlwOfD4WjVp7VG9YcXq7ouZQ9K9u8ovoDYDqDStOb1dUL6LjF9GbAdUbVpzerqhY/n/vfMUX0fsDau1RvWHF6e0KnrhoG1RvWHF6u4LhYhtUb1hxeruiFC6L+2+88Wb9+Uh+gFp7VG9YcXq7ohgu+9F3kZz2+WILEai1R/WGFae3KwrhIrLllTe+V7Gc1ytQa4/qDStOb1cUwmUWLcn1evVcDGrtUb1hxelthtyF/LVX88+HS/p9aD6v+4/xvfZVoHrDitPbDF3DJT1RcX/s/bjI99pXgeoNK05vQ8TfEvJg68Sd+N924eLz6dAx3te+AlRvWHF6myXJinJmMFxsg+oNK05vszBc/AHVG1ac3mZhuPgDqjesOL3NkszPMlzcg+oNK05voyx2gtbhcic3A8zvih4cVG9YcXqb5GAnaB0uTYeu/QGj9mVQvWHF6W2Qe+PgdPzF0eXlKwwX26B6w4rT2xiLm+KCcvG3m81KC295yQXboHrDitPbFGG3RZziPBffi/b1raB0yhDDxTao3rDi9DaD+DL64JLorNyKRjmlM4YYLrZB9YYVp7cZxHX84ws/iS7MqHxRXIaLbVC9YcXpbYbDrUsNJzczXGyD6g0rTm8zLBqXqTBcbIPqDStOb1cwXGyD6g0rTm9TiEUuH4ZdmA8q+jAMF9ugesOK09sQc3mMSHyvfMV1KxkutkH1hhWntxkWO8GZO7eCMw/DH/RfzcpwsQ2qN6w4vc1wKJb9RycUzaI1ukUYLrZB9YYVp7cZZK5EV93eH2svuc1wsQ2qN6w4vc2w2BGdlmlwvfIKLQwX26B6w4rT2xAyV2ZiMpfh4gmo3rDi9DaEHAzNxXTLXH/1BIaLbVC9YcXpbYpZcObOH8en7zy4wgldP0D1hhWntxkWt8bquk/XdfdguNgG1RtWnN5myFxZbvQD7T0YLrZB9YYVp7cZDv/2g8+i71z8uuIeDBfboHrDitPbFUOGy7eEEFRW2PMXv3iTi+h8ANUbVpzexuE6F09A9YYVp7chDq9mDhcF5etzM1ysg+oNK05vQ0ybvoaI4WIbVG9YcXqb4XAr+M5nEf86Hv0y/Odu4R4MF9ugesOK09sMmYkWzrl4Aqo3rDi9zbC4+WbSVeHRIk9A9YYVp7crGC62QfWGFae3MRa3zwVBcP5axfcXMVxsg+oNK05vU+wnh6JPF6dyIxgutkH1hhWntyEOt4LRxX/bGv3zFf3lXBgu1kH1hhWntyFmwYm78kDRYkf/3SIMF9ugesOK09sMYaQkl8+dB7xAtxegesOK09sM0eIW+X+uc/EEVG9YcXqbgeHiH6jesOL0NkP0lUUyV/i9RZ6A6g0rTm9DTMVluWW4TDmh6weo3rDi9DbE/ji49PCQh6I9AtUbVpzeppiFoSIv081FdJ6A6g0rTm9jHPyPMFxGFz7k8n9PQPWGFae3KxgutkH1hhWntysYLrZB9YYVp7crGC62QfWGFae3KxgutkH1hhWntysYLrZB9YYVp7crGC62QfWGFae3KxgutkH1hhWntysYLrZB9YYVp7crGC62QfWGFae3KxgutkH1hhWntysYLrZB9YYVp7crGC62QfWGFae3KxgutkH1hhWntysYLrZB9YYVp7crGC62QfWGFae3KxgutkH1hhWntysYLrZB9YYVp7crGC62QfWGFae3KxgutkH1hhWntysYLrZB9YYVp7crGC62QfWGFae3KxgutkH1hhWntysYLrZB9YYVp7crGC62QfWGFae3KxgutkH1hhWntysYLrZB9YYVp7crGC62QfWGFae3KxgutkH1hhWntysYLrZB9YYVp7crGC62QfWGFae3KxgutkH1hhXH9H4icW2xGgwX26B6w4pDej95sgbp0jVcXt54T/579PvtyeWfPh5eqDWQbWaJ6w0rDuj9JIMbg9L+/eInk8nld7rt8B3D5Wh3EoXL3kTwerdHDwpgm5GgesOKA3q7D5fi/v18W/7itU7p0i1cwmyJwuX59qtfhP+7/HGnhw8KYJuRoHrDiuN5P3niOl2K+3e44//o8fLFu5Mfd9lKp3D58/blt6Nw2ZP/PHXZdcFrMxGo3rDicN5PnjhPl+L+/fKG/On5dqcdvku4HO1+94tH8lmPdl/9Uj5lt27SoMC1mRhUb1hxOG/34VK1f3fc4Tv1XP6yXEbhEj9J7JDwLSFkZYrhYulpyyFS2L87D1W6Hi1iuBBikmK0eBQuR7vdJln7hkuUYHuFZLMJXG83BtUbVhzIuxwsboZFFfv3Xrf53EF7LnYBajM5UL1hxUG89cHiKlw0+/fRXtfjNwwX26B6w4qDeHuULdr9+2h30nENXc9w4dGi/qB6w4qDeGfDxHG26PbvFzc6jomWfcOF61z6g+oNK+6pdyk4Mr9wHS7l/fvljcs/77yVnuHydHL5Y7Ek+L3OTzgYnraZRlC9YcU99a4PDqfRotm/9/rs6j3DhecW9QbVG1bcU++G7HCaLdn9W46N4lOLOp5c1DdceFZ0X1C9YcV99W4KD6feav+W4fJ0YiNc/MHXNtMEqjesuB/e3TsifnivAsPFNqjesOKuvftOzrr2Xh2Gi21QvWHFHXqvtGYFtd4KhottUL1hxRkurmC42AbVG1bck3Dp/GDUeisYLrZB9YYVd+m9yvFk1HorGC62QfWGFbfoPejSFNR6KxgutkH1hhVnuLiC4WIbVG9YccvhMli6oNZbwXCxDao3rLg573KWMFyyMFxsg+oNK27C28ZZy6j1VjBcbIPqDSs+sPdKa1e6gFpvBcPFNqjesOIMF1cwXGyD6g0rbjBcBt1wEdR6KxgutkH1hhUf2tvWhVZQ661guNgG1RtWfEVvZ9dsQq23guFiG1RvWHGGiysYLrZB9YYVHyBcnKQLar0VDBfboHrDinf0Nrowrguo9VYwXGyD6g0r3sHbylGgtqDWW8FwsQ2qN6x4S28ra1e6gFpvBcPFNqjesOItvK0tjOsCar0VDBfboHqDircKC++CRYBZ7ywMF9ugemOKt0sM74JFAFnvHAwXu/jXhlsDWPCqDok3R4TqAKx3AYaLVXz8hGwLYMFbh4uPANa7AMPFIj6O7NuDV/DKSVqIdwCv3kUYLhZhuFil5hAQwjsAV+8SDBd7+He0sxNwBa8JFwTg6l2C4WIN8LbOglsGrt4lGC7WAG/raAUvlhuu4GD11sBwsQZ4W0crOMPFOQwXa4C3dbSCM1ycw3CxRbmxgzV49IK79ukKWr3LMFxsoQ8XoHbvecF1dYSrcRbP690Chost6sIFovV7XnCGi3cwXKxRiBKGy7Doa4hSXA2e17sFDBeLlKMEKFu8L7i+iCDF1eB7vZthuBij/QcpRvv3rOCta+aZd2tQvRUMFzNUfWC2/CD1MW08Knin3p5H3p1A9VYwXExQN9Zp4+1lV8aTgneep/LEuzOo3gqGy+A0NP624TK416p4UPBek+AeePcC1VvBcBmYxqbPcOlP52AReODdC1RvBcNlSNq0/V7ePqSNBwXvdWjNA+9eoHorGC6D0qL19/HutVMNjQ8F71MDH7z7gOqtYLgMSosIWClcXAaMg4IP8nK9bCgtQPVWMFyGpXlvWDlcXAUMw8UuqN4Khott+nof13BZ+bUet4biDwyXlejR+FfxdjoyclFwhgsyDJeVsBwu2qe0lTYWCm7kpXjRUHqA6q0YMly+PX7IfsSxVxiEpFfm2uPYMmASxLDnshrdP2uH9rY2TDJYcKPzSX40lO6geisYLrZhuOQxfiSMDcUVDJdurN74jXubShsb4WLiCVB3UlRvBcOlC0PsAKa90XoAxg+vo+6kqN4KhktrBtoLrIXL0DusKXHT4zrUnRTVW8Fwacdwe6zVcBlyxx1I3NocUQLqTorqrWC4tGHIXdWGN8MlA+pOiuqtYLg0MvCOast78JHRgOFiNV1Qd1JUbwXDpZGBuwC2e1yDbWwocYZLO1C9FQyXRvzsAPRjlVfSU9z6MKgI6k6K6q1guDQz7N7hss2sFJM9xE0fZW4F6k6K6q1guNjGdbj0fnBHcWOHxLvChuIKhksJwzuDV+HS5bV2EDd2OLwPqDspqreC4VJijcOlSKedv2+49LYbCJ8K3gVUbwXDpYThPcKnNtMpBPqEy0p2A+FTwbuA6q1guJQ5puHS9LK7iPsSLAKfCt4FVG8Fw8U2vnm3DJfav/uUJSV8K3hbUL0VDBfb+OjdNluq7sFwMQCqt4LhMvQ6liZ8bTN1AdHUufFmfkWHrwVvAtVbcezDxfrEI0ybydSlceTEcBkeVG/FsQ4XJ8dLUdpMpizFSV+vOyolUApeBNVbcXzDpf1hkmFBaTNV2WK/YiuCUvAiqN6KYxouDvcTlDbTFC4w6YJS8CKo3gqGy2BCLcFrMwwXJ6B6K453uAwm0wG8NoObKxK8gkegeiuOabhYPvycBa/NQEcLYsEjUL0VxzVc3IHnzXBxAqq34riEiz/7BGCbgc4WxIJLUL0VxyNcfNopENsMcrZAFlyA6q04HuHiU7ogthmGiwNQvRUMF9tgthnYaEEtOK634piEy9Kf3QK0zcBmC2rBYb0VxyVc/AHVG1ac3q5Y13Dx91MWts2gitPbFWsZLl534WHbDKo4vV2xduHi/XEN2DaDKk5vV6xXuCCs9oJtM6ji9HYFarho4gMhWZbAbQZVnN6uAA0XXYQgJMsSuM2gitPbFZDhou+hAASLALbNoIrT2xVrFC4eH37OTc91gwAACBVJREFUAttmUMXp7QrEcAGZXKkAts2gitPbFYDh8uQJdLrAthlUcXq7guFiG9g2gypOb1cwXGwD22ZQxentCoaLbWDbDKo4vV3BcLENbJtBFae3KxgutoFtM6ji9HYFYLjwULQbUMXp7QrEcOElXZ2AKk5vVzBcbAPbZlDF6e2KvuHyaCJ5b1CZ9sBGC3CbQRWndw+Ofr89ufzTx7nfvbzRcXfvGy57bsPF74vN1YLa1mHF6d2DaP9+Pfuro92uu3vPcDnafe1x872MwjZjGVRxenfn+farX4T/u/yx+lWYLZbC5eWN15vvZBa2GcugitO7O3syR55mui5/3r78tqVweb79434PHA62GcugitO7M0e7r365FF2IdHxytPvdLx5ZCpenk5+9O5n8MD80+pYQgkpmT45TJc4YyV/EQRw74RIfLFLPzXAhBJr6cFlaC5ej3ck7j5cvdicOZ17Y27UMqji9O5NMqe65CJfUId91sQrbjGVQxendGac9l5jCk9uFbcYyqOL07gzDhW3GLqji9O5M+WiRwFK4xM/6fNvhUjq2GcugitO7O+V1Lkt7PZc9OaH77sThahe2GcugitO7O08nlz8O+w75NLEVLuHzClyeA8A2YxlUcXr3QJ1bpMZG1uZcXvxmUjpr0i5sM5ZBFad3D9RZ0Q7CxT1sM5ZBFae3KxgutkH1hhWntysYLrZB9YYVp7crGC62QfWGFae3K3DDhRDiNQwXQogRGC6EECMwXAghRmC4EEKMwHAhhBiB4UIIMQLDhRBiBIYLIcQIDBdCiBEYLoQQIzBcCCFGYLgQQoyAGy4vb3S8LpYPvPjJZHL5HZcX8OvJ0W8mk7/+uWuLfjztegU1D4i/0hRPPAtsuBztAlbeg0sP9+Plu1Lc4fXY+/PyBmBL2WO4uCPMFrzKh9I/cv2lCf14NHn98fK/ti9/7FqkB3uQLQXvA6gMaLj8efvy23hNJv4K3ufbDr9iuxfxl2R1vkKzDzyd4LYUcDDD5Wj3u19AtnRJ4YvscEAsebibAmo/34br3GrADJflXzBbekThi+xg+LPLL9jsy96rXwK2lKeTn707mfwQr9w5QMNlCRwuR7uQUxePJpPXvnQt0Znn2+8htpT4YJHDr2IfAoaLdfbw5nMFj94GPMwlJ0bxWsrRrvy65F3QLm4Cw8UyR3uwLeboP+DUH4lOImhLEfNF2F0Xhotdos8kUOKDRjhE86KYLWUJWO8CDBervLiBOSaK2QNr7PHUBerkBcPFFYjh8vLGZcgl9PHBc7huOmq4xPV+jnh4LgPDxSZ7gM6SPbFCF3WCEbCl7MkJXcCl3DkYLhaJTy0CPOry8gamtwS3pWDWO4XhYpGnE9RwWb74Dejp3EvIlhLV+6eY9U7BDRdCiNcwXAghRmC4EEKMwHAhhBiB4UIIMQLDhRBiBIYLIcQIDBdCiBEYLoQQIzBcCCFGYLgQQozAcFlzDv/mwpu/TW89+MXVMw+r7rrYCa6HD9gafSRu3T8XBGc+12xwK1BEd81u45tGoxZ3IWsBw2XNEVlwIsmIMD6CluEyF9mhu29tuNwbX28SanEXsh4wXNacMCvOBcnuvD8+3xguMdPg9N2KDQaV6ZDbQu+7kDWB4bLmhOHyfrAR35iFP7cOlw39vRgupCUMlzUnDJdfbcXjosXOmXvtw2WzaoMMF9IKhsuaI6ZQpvH+PA8253G4LG6fC4JTb8VBc3BzHIze+pOac5nJGZUT/5JE0VQlQjFc5oG8vT8ONqNHbSabH12SD94fn/iduHn6w/CGugtZexgua47Iink8xJmKH2VchFGQmZCdR7dOXymGy+92ojscbqVzwqVwCbsi4Sbl/9PkOLiS2fz+eHQuSP7CcDlGMFzWHJEVcTYcbp15GIVLGBCiH/HHK/JAkrh1d7n4JAgyR4uiYdEsyoF5ZgKmNCwSfZa4/xKPecJ/Tt8R/SG5eRFk33koAkfc4rDo+MBwWXNEVsQ79FyGgAiXWXx0OgyKTXVrVg6X/bHs6GRGRflD0ZvR4078+5aMn/iJZmo0tRmHj9yW2DDD5fjAcFlz4lGO2PXDUVEULuEOHg9MRAykt6I+SS5cFnJclB0VacJF/kbeI0oOlR/y2aJQSTbPcDk+MFzWHJkVsgMiRkXR7q5GNvMwFNJbuUV006RXspkfFemOFs2jAZXagkqfMHP2x2k3ieFyrGC4rDkyK2QHZB7lRC5cxI5fGy4ylrKjIl24hL+K8oPhQjIwXNacKCtEB0SMijr3XEQs5UZFunCZhimykd1C7h4Ml+MKw2XNibIi7ID8pxgVdZ1zkbGUGxVpwmV/HLwRHXVO51w2c39muBxPGC5rTpQVYQfkfbnHdzxaJG5u5EZF5XAJ42IjWuyijhadiM5LmkUTugyX4wnDZc1JsyKIT3bOrHO537jORfwwOpcdFZXDZRbIKeNMnyW8yyjc/OKW3GApXLiE7pjAcFlz1BUU5NoT7Qrd+NZfaeZc5CM38hvMHIoO/xT1fsL7iwiJZ1+SzcdrZbLhoiZoyLrDcFlz4qyII2CpP7docatwblEmXIo9lWK4RKkifh1GxuJmFGLRuUUX5eCoEC7JXcjaw3Ah9cjlMYR0h+FC6plxjoT0g+FCajnYKl0nl5BWMFxIDVNeH4H0huFCapgFwSXOuJB+MFwIIUZguBBCjMBwIYQYgeFCCDECw4UQYgSGCyHECAwXQogRGC6EECMwXAghRmC4EEKMwHAhhBiB4UIIMcL/B7efoVpRAQOwAAAAAElFTkSuQmCC;" parent="1" vertex="1">
          <mxGeometry x="160" y="291" width="250" height="145" as="geometry" />
        </mxCell>
        <mxCell id="mLtvasxucz6L9ytkMCJB-2" value="" style="shape=image;verticalLabelPosition=bottom;labelBackgroundColor=default;verticalAlign=top;aspect=fixed;imageAspect=0;image=data:image/png,iVBORw0KGgoAAAANSUhEUgAAAhUAAAIMCAMAAAB1464fAAABYlBMVEUAAAAAADoAAGYAOjoAOmYAOpAAZmYAZrYzMzM1NTU6AAA6AGY6OgA6Ojo6OmY6OpA6ZmY6ZpA6ZrY6kLY6kNtERERGRkZHyW5NTU1NTW5NTY5Nbo5NbqtNjshNz3RmAABmOgBmOjpmOmZmZjpmZmZmZpBmkJBmkLZmkNtmtttmtv9ra2tuTU1ubm5ujqtujshuq+RxcXGLtPmOTU2Obk2Oq8iOyMiOyP+QOgCQOmaQZjqQZmaQkGaQkLaQtpCQtraQttuQtv+Q27aQ29uQ2/+Ruv+rbk2rjm6r5P+2ZgC2Zjq2kDq2kGa2kJC2tpC2tra2ttu229u22/+2/9u2///Ijk3Iq47I5P/I///bkDrbkGbbtmbbtpDbtrbb25Db27bb29vb2//b///kq27kyI7k5OTk///r6+v0mZP6n5n/tmb/yI7/25D/27b/29v/5Kv/5Mj//7b//8j//9v//+T///8rHf8qAAAACXBIWXMAABkRAAAZEQGQh6VoAAAY/UlEQVR4nO2d/2MTR3qHV2BqUMGNXayTaThMkwvFOG0cLsWFpKVNjiJi6oPGAQVSB2jJnW3wmbX+/+7uu6ud2RmtZm3tziu9n+cHsOXVzjv7Ppqv0ioYAFAk8B0AYAisACawApjACmACK4AJrAAmsAKYwApgAiuACawAJrACmMAKYAIrgEm9VrzfuhQEQWvhm9fWP4ebwTn7XyZS7Ef33Z8SbrWjZ9zcDM78oD1cU4RNnP0U1GlF+CjIaP2D9YBarsq7u8Ni5566PqmXHA8riDqt6AUKly0H1HJVDtpKqa21Kk9qfQsrEmq0Yi+6zotPoh/C3ejV2/rOPKKOq5LkNyn2fdwp6EkeSRTrvC0SWDFpekoD0Y+uunlEDVclOmXeb8S/WIq1EFlhbVVgxYQJ1db46Jqt/jVclT2teYiKtbVR1qfBipyGrMh5dzdq18/ezA459zp8FD2wcF//+w26WFFW55PRYzJaTUavi1lDsBsfGFy6qV3WuHVQ09sPFv49+eF9XEpr6VVe7u71ICs3GwCt5TEnYSw+zfOmxVU8QbFixeMr1F+r1shyFu6PiCz9NTrgNLrV2IP0bUPMfpqApBePa/Y/bW002teGibEV6ehxafDuGv0lefGHw4nGnKpe9ATrSOJFWkorSUdcbvb8pYHNijSMePhJ116Pq3iCYsWKxzvXv1CtknIWV62RDfba6glOSI1WRBkK5grK7g1nB/FViCp9djhjSCrVH/49SX50ir+6licovaDxgcr8Zl4/v20gkRebFBNuBtoDhhXD4+fSa1+Iq3iCYsWKxzvXv1CtsnICa2TRa6i1uL39eNV1RGWlzplpOt1b+OZV9kgsStwFRC/d+OonlY5/f9mmShy06fd3m1Tn+Phg6fUgTK7W4qtB+D2NG+LKx43s+0f6NGPPOgVO/IxPuxrYy83GFakV8fHnoj/vrqbXvhiXcYJCxYrHV6i/Vi1rOXNlkfUzDXuu0y8bta5t5utJ6Whg+FLuJ1nI5whR5ahOmeG95ID4IiRZjn+YT/8QV7ufDR+iU6ivRmuvlZw266fjvxvlFqwYhhkOr7Uel3GCQsWKx2c41F+rlrWcYU1skfUch9fl1L0P8vO9i9S8JYubfT3mPKU0dlIGqNFVuKwME/IjC6coXAa7Ffkx0WnnzXKLVuTH7wXWuIwT6FEZx+fhldbfCNk4QKuJLbLoArQ+e2Jegmo0sTu2+3U77RYLzVp+LeinZMox/NO8OqEdPlO9sL/8/PWq3nNbxxXKJR/ap5VbsEI5ngIw4jJOoFfMOD5jTP2NahUPGB/ZEQ3D5kbsPDnS0J4pdaTFV4TFCn0wlVfasIJmcMXxXNYjaCiLJcW0W63QL7UtrpJspQUWB4WF+trrb1Sr/GVji2xwsJr+4r4HZFKfFcWmPfpt3FXRtjDKrUg23i599M1TvZjizDTcXLjxumpbYVx7I64xVhjHG/W119+olsUKvSa2kl7eNV8tFanPin5xnLVWpQchRlqxl0xN6A9a7Xv6wCIZR5yiBxkRl3sPojOuBylWq0oPovLu8fVAn/1Uoz4r9Ma8r4+QqTaWSuvTqVFWaE/UrNBXvNOlTstos8yKsjHdQHuaOQpMIjaOzxhff71ao8sZFVl+6VZPMTWtdcU734c8aOtTvr1shlisdPZKp/SNsiJvSfuBMazXd8fS6du5wsy01Io99XhbXLYXuVqx4vEZY+pvVGt0OSMi057A0YpkGa51I17BinfS1cWeMBp8WiudrclkB5S0FUlTm5xY7z8LO+nZEmlxFavUiuT4J3S8NS7jBIWKFY/PGFN/o1rWcs49LYmsR5En62AnX9yscw7SN0dCxopvITvKU1KL7OMK7dT6VsNe2/ybueJdakXZine2Em2eQKlY8fg8uPL6F6tVVo6x4j183aWwHG0O8j2piMW0L8kqkez1WGZmw0omo66RVoTZBsHi98a6VfI6SpOaXZifjN2xUiuyyM/8tz2uksALm1jZ6DGjvP7FapWUs2iPLJ+VtG4OTky96xXhy+txkGc/y+fOyUbvHO0LWypNf28t0PLc6JlpuHUxOizqKWyj8N278YJqa0F5Ny9tN6s76dpPRSto593YSc/iGhn4nL7hnR2vUF7/QrVGlpPspM9bSwqTtzKfvfFqcHLwzv8pZeTsdxLAiqkiX++37/hMCFgxVcQz1vgtK/EUYxKboyOAFVOFuu9RX1MBK6aMfONjqcZSYMWUkU4xFk+xIzoeWAFMYAUwgRXABFYAE1gBTGAFMIEVwARWABNYAUxgBTCBFcBkaqz49VffESTICANWVENGGLCiGjLCgBXVkBEGrKiGjDBgRTVkhAErqiEjDFhRDRlhwIpqyAgDVlRDRhiwohoywoAV1ZARBqyohowwYEU1ZIQBK6rBJIzl5U6dp4cV1WARRqdz69ZGp0YvYEU1WITR2Yis2IAVTNLBI4zORmJFjVrAimpwCANWDOGQjgGPMGDFEA7pGDAJA+OKDBbpYBIG5iAZLNLBJgysVxBM0iEjDFhRDRlhwIpqyAgDVlRDRhiwohoywoAV1ZARBqyohowwYEU1ZIRRmxW/gqmiGSsmjYwXqSvT2lZMGhnpcAVWEDLS4QqsIGSkwxVYQchIhyuwgpCRDldgBSEjHa7ACkJGOlyBFYSMdLgCKwgZ6XAFVhAy0uEKrCBkpMMVWEHISIcrsIKQkQ5XYAUhIx2uwApCRjpcgRWEjHS4AisIGelwBVYQMtLhCqwgZKTDFVhByEiHK7CCkJEOV2AFISMdrsAKQkY6XIEVhIx0uAIrCBnpcAVWEDLS4QqsIGSkwxVYQchIhyuwgpCRDldgBSEjHa7ACkJGOlyBFYSMdLgCKwgZ6XAFVhAy0uEKrCBkpMMVWEHISIcrsIKQkQ5XYAUhIx2uwApCRjpcgRWEjHS4AisIGelwBVYQMtLhCqwgZKTDFVhByEiHK7CCkJEOV86fr/X0J7Hi+Mf17spXb/UH97t3JhLQKJikg0kYDK3Y6cZc1R77cBtWNAg/Kw7XrzyL/ll5qD4YmQIrmoOfFTtJ/ve1xmK/+zmsaBB2Vhw/uPJ8EHcZH+cjiw+3r76BFQ3CzopUh1QOYufK86IVvr9Ha7Y5f37SZ5y8FYfrdwawokkYWkEDip2hFccPIk/QgzTJFPQgb+LpCKxoEv5WHK5/MYAVzcLOCmMO8qabogw/Jw+TdDAJg50VxnoFrGgeflbsd6NxxOF6ocdAD9Ik/KxQ9kGUpSxY0SQMrcj3TGGFJxha4QUm6WASBqwgmKSDSRiwgmCSDiZhwAqCSTqYhAErCCbpYBIGrCCYpINJGLCCYJIOJmHACoJJOpiEASsIJulgEgasIJikg0kYfqz4hdh+/Pc/1Fq8O0zSwSQMH1b81A4yzsAKDSZheLBib+hE0Fp6XWvx7jBJB5MwPFjRC+ae7K62vt3dDC7XWngVmKSDSRjNW3F0LViL1VgbhJut72otvQJM0sEkDB9WxIOJftxO7AXztZZeASbpYBKGLysSIY6uncO4QoNJGM1bQf3GQTsSggRhAZN0MAnDy2jzctpiHLRhhQ6TMDxYcdAOzr0ON4OlaBKCHkSHSRg+VrH68eIVrVqs1Vp6BZikg0kYXla83z+OmoiXq0HrZq2FV4FJOpiEgd0xgkk6mIThYQ5y73fZYOLdvUWMKzSYhOFrvaL4o2+YpINJGM1a8W57e/u/2q1/2ya+x55pASZhNGvF0bVAByveOkzCaLgH6WtOtP6GS1PBJR1MwvA6rmAEk3QwCcPrHIQRTNLBJAysVxBM0rG83PEdQgysIFhY0encurXRYeBFo1YYUxDMTDU6G5EVG7ACVih0NhIrGGjRbA/y/pcCr2otvQKwQgXjCgJWqMAKgoMVQscVGeHL6+0zPxz9y9Nay64EDytEzkFS3q0m48xo7IlPCRWQu14R2TD3r1FbET4K8CmhAkzC8GBFP5hPN0N62DMtUE8Y5xvBPZ5RnwchK5IPhfBglq1oRorTWZEIQVYw2j6dbSv+UJEvv6z6jD/AivoQa0W4GawNP2x64h5k0t+WNsucP/9l/Yz5ArtxVkSjzXOvEyveMZqaoq3w21ZkM9P/uNvmszkGK3xbQatYyfs22SxXwArvVgzCF5ciJ87e4DItHcAKBlYwhIkVtax4w4qTwsKKmnbHpsKKn+99cunSR589mVitJwEPK+rZSedvRbg1vAVrC+MKnbredcPeinAz0mHh04jr0Q9sdkFghU8rIimGdzIJX7T5bJnOuBW8d8f2tCWKgzbugKRR27iCtxU9fYm7z6ex4GFFXXMQ1lYUb9GM91cUqWm9grUVxZ1z7KQXkbi2CSvGAStghQmsgBUmsAJWmAi14on62eNdWFFAphW4U0E5sAJWmEi0gjGwAlaYwApYYQIrYIUJk1sEwApGsLmdCKxgBJtbD8EKPsz4bcpgxYmAFbDCBFbACgtsxhWSrWB3Z0U2cxDBVnC8s+L58wyckGwFyzsr1nwvQVfkWsHyzoqwwq8VPO+sCCv8WsHzHnqwAlaYwAq/VkzmzoqTBlb4tYLnnRVn2wrWnygkWN5ZEVZ4toLlnRVn2Yrq+PkuIX53VpSRDlfwvWOEjHS4AisIGelwxaMVbL7LNEZGOlzxYUW49dfJEhanWyvKSIcrHqwINwNa2Bxxa8XjH9e7K1+9LXmgBmSkwxUv30aX3l3xRdu6irXTjbla8kANyEiHK81bkax4E9YV78P1K8+if1YejnygDmSkw5XmrVC2xKy7YzvdO9G/+3nbYDxQBzLS4YoPK4ZLmgdt04rjB1eeR/99uP3x2xEP1IKMdLjiYVzRC+ZfD38y/ppmP3XB9kDC5L+xbdJnPBEzG8ZYKw7awdkbT37Zfbxq2wiBFQzwYEU890h3x26af/xwm8YPO7kVhQdc4LZL6B735M95Arysbb7fupjsjtlWNx3binKakQJWnJDq+yATsuLPFfnTn6o+48+w4qRUt2IicxAuVqDJsjLCijC746alD5nEegUTK5qRYkasGI42rXdW3O+uPBwcricq2B8YDxsrfluR3/ym6jN+OyNW7I2532a+7ZH2GtX3QWDF6fCyD3Lm27It9HyLNBtoVt4zhRWnw+uKd20w6dBhhZ3y3bHaYGMFizBOcv0mf06FUZ8+rhkm6WASxkmu3+TPqWB/103tnxhjkg4mYZzk+k3+nAoj3qH3tzW/k5fNaBNW2LCOK+r/Jgg2VmC0aQNWwAoTWw/yXvmOqZp6Elhx2us3+XMqePrsGKw47fWb/DkVvFnBYpgHK+x4ugsrrDjt9Zv8ORWm6C6stZwUVtiQfRdWWGFH9l1YYYUd2XdhhRV2ZN9vE1bYgRWwwkT2XVhhhR3Zd2GFFXZk34UVVtiRfRdWWGFH9l1YYYUd2ffbhBV2YAWsMNGtCH/eLvBHLp0IrNADn/w5FXQrtDfn1fkOverACj3wyZ9TYbQVZ2EFrFAIe8FS3HGEj4KlWguvAqzQA5/8ORXKPyXUwOeFXKnJChZvCTtJ4JM/p0L5JwpnfycdVtg4wb15/VC4958vxN4XS7s3L5u2AlaoeLk3b+pCuMnnHXqwQsWDFdm9ebc47ZnCChUfK957bX57prBCxc+e6Va8Z3rpJpdBxQBW6GB3jIAVKrCCgBUqsIKAFSoN744lb/rnuGcKK1RgBQErVJrtQd7H97Zp4F431YEVKs2+F2tzgUvbUARWqCwvd+o8vbUHYdNtKMCKnE7n1q2NTo1eFK0Yfhz9tEz629KYwOLb6JZvxSxP9JwlVoSbwdlPP2m3Pvo043dcljfRVgzpbGxEbcXGRn2NRWG0qX41COYgFkRaMdi9h7aiDJlWDFi9AUsBVuR0EisaG20mhPfYNBAKsCKn4TkIY2CFSqPrFUPKvrnSD7BCpearcYJvrvQDrFDxYMW4b670AqxQad6Ksd9c6QVYodK8FU18c2V1YIWKDyvYdBsKsELFRw+CtmIkYq3g9En0HFih4sGKBr65sjqwQsXHuAIz05HAClhhItYKvJu3BLlWsARWqMAKAlaoeLEi/ubKoLVwn9G6N6xQ8WEFx3v+wwoVD1ZEk5DW4vb2NqvvB4EVKl7WNs/Qlx5z+i4hWKHiZSd9Lf2R0feOwQoVr3umjLZPYYUKrCBghQp6EAJWqPgZbVILcYTRZhG5VsQzU9yF1Y5cK+Kb82IVy45gKwbh1kVu31wJK1SwO0YwsUJGGLCiGjLCMK0IX9Jy99G1xae1Fl0NGelwpWkropHmWvZD62atZVdCRjpcadiK+DOmtEaRjDjXzGd4QkY6XGnWiqNrwblhvxH2GE1NZaTDlWat6GtL3OEm1jYLyAjDuLOi1mdgH6SIjDAs9+Yt+d0jMtLhCqwgZKTDFVhBMEnHhQsXfIcQg3EFwcKKCxeWlzscvGh6DqJ9rW0PcxCNC53Iio44K46uBcp65gusV2hc6CRWMNCi4bXNfhAspZ1G+Cjg01TACo2m90H68Rsr4vu6x++wWLI+5/jH9e7KV2/1B/e7d2oJMANWqDS+Z/oy+zhhMHff/pydbsxV7bEPtwVYIXVckfDu608uXfr0m1G3rjhcv/Is+mflofpgZIoEK2TOQVzYSfK/rzUW+93PJVghc73CheMHV54P4i7j43xk8eH21TcyrJARRnUrUh1SOYidK8+LVkz0q9JA7UzeisP1OwNYMd2c2goaUOwMrTh+EHmCHqRJpqAHeRNPR2BFk/CxYj9ZpvjCsOJw/YsBrGgWdlYYc5A33RRl+Dl5ZKTDFT5WZBTXK2BF8/CzYr8bjSMO1ws9BnqQJuFnhbIPoixlwYomYWhFvmcKKzzB0AovyEiHK7CCkJEOV2AFISMdrsAKQkY6XIEVhIx0uAIrCBnpcAVWEDLS4QqsIGSkwxVYQchIhyuwgpCRDldgBSEjHa7ACkJGOlyBFYSMdLgCKwgZ6XAFVhAy0uEKrCBkpMMVWEHISIcrsIKQkQ5XYAUhIx2uwApCRjpcgRWEjHS4AisIGelwBVYQMtLhCqwgZKTDFVhByEiHK7CCkJEOV2AFISMdrsAKQkY6XIEVhIx0uAIrCBnpcAVWEDLS4QqsIGSkwxVYQchIhyuwgpCRDldgBSEjHa7ACkJGOlyBFYSMdLgCKwgZ6XAFVhAy0uEKrCBkpMMVWEHISIcrsIKQkQ5XYAUhIx2uwApCRjpcmVYrfH+7GqhGM1ZMGhkvUlemta2YNDLS4QqsIGSkwxVYQchIhyuwgpCRDldgBSEjHa7ACkJGOlyBFYSMdLgCKwgZ6XAFVhAy0uEKrCBkpMMVWEHISIcrsIKQkQ5XYAUhIx2uwApCRjpcgRWEjHS4AisIGelwBVYQMtLhCqwgZKTDFVhByEiHK7CCkJEOV2AFISMdrsAKQkY6XIEVBJN0LC93fIcQAysIFlZ0OrdubXQYeAErCB5WbERWbMAKNnCworORWMFAC1hBwAoVWEHAChVYQXCwAuMKbvCwAnMQXrCwAusVzGBihYwwYEU1ZIQBK6ohIwxYUQ0ZYcCKasgIA1ZUQ0YYsKIaMsKAFdWQEQasqIaMMGBFNWSEASuqISMMWFENGWHAimrICGNqrAANAiuACawAJrACmMAKYAIrgAmsACawApjACmACK4AJrAAmsAKYwApgMh1WHP+43l356i2b4t90E+74Cmjw4XatZU+HFTtJEq6yKX7HsxXHD+oteyqsOFy/8iz6Z+Uhk+KPH3zsrd2i8ms2ciqs2Emuwb6vxsIo/sNtb81WzP+ur3wOK44fXHk+iHPh5xVqFn+4/oWPQIbx/N2zN7AizUeaHQbF73f/+ffd7j/66kX+Lx7uwgpuVqRTED/hpBHAirQb3/FlRaH4aLD3T28Hf3ngb1IEKxi2Fdnj/hoLWMHVCl/xxMAKfnMQ7XEvwAp26xWpH4fr/tayYEWckJWHURJ8rTAbxe8ko83fd/2tWsCKAaN9EGomIkNiPC57w4oBoz3TtPP4y392fcYDK4AHYAUwgRXABFYAE1gBTGAFMIEVwARWABNYAUxgBTCBFcAEVjjQD4LL6u/h1qUgCM7eeO0roLqBFeMJN4PgnGLAT+2AaK35C6pWYMV4DtpnLwa5AFHLsfgk+v/lahDMqBawYjy9YL4fzGe/7QXBTfopakPO/OArqFqBFWM5uhasHbRb39FvkQrDMcZBe0YbC1gxlr2oRchd2FPbh8d/nM0BJ6wYBwkxlKGvDTxnFFgxDuo84m4k+bWXjzBmF1gxjrRx6KVtRE9fuphNYMUYskYiG2/CCpBMRDOSrgM9CIgtGJKMN7XR5vtX/gKrE1hRTr4kEf10eZD3JAmzOiGBFeX08+UJGm+qq1jRmGM2BxmwohTVgT3a9lBWvHuB0m7MErCilD0l71HLkAw0HwXBwpPICeyOSaWnDhz6qSL9bPjZuuktsHqBFWXoA4d0vBlNPbYu4l03QBqwApjACmACK4AJrAAmsAKYwApgAiuACawAJrACmMAKYAIrgAmsACawApjACmACK4AJrAAm/w9Bawc30SX9UgAAAABJRU5ErkJggg==;" parent="1" vertex="1">
          <mxGeometry x="133.85" y="41" width="132.22" height="130" as="geometry" />
        </mxCell>
        <mxCell id="mLtvasxucz6L9ytkMCJB-4" value="" style="shape=image;verticalLabelPosition=bottom;labelBackgroundColor=default;verticalAlign=top;imageAspect=0;image=data:image/png,iVBORw0KGgoAAAANSUhEUgAAAx4AAAJLCAMAAABe0LD8AAACGVBMVEUAAAAAADoAAGYAOjoAOmYAOpAAZmYAZpAAZrYZGUgZGXEZSEgZSHEZSJcZcboaGho6AAA6OgA6Ojo6OmY6OpA6ZmY6ZpA6ZrY6kJA6kLY6kNtIGRlISBlISEhIcXFIcbpIl7pIl91NTU1NTW5NTY5Nbo5NbqtNjshmAABmADpmOgBmOjpmOpBmZgBmZjpmZmZmZpBmkJBmkLZmkNtmtttmtv9uTU1ubm5ujqtujshuq8huq+RxGRlxSBlxSEhxcRlxcZdxl91xut1xuv9/qsyHstSMx4qOTU2Obk2Obm6Oq8iOyMiOyOSOyP+QOgCQOmaQZgCQZjqQZmaQZpCQkDqQkGaQkLaQtpCQtraQttuQtv+Q27aQ29uQ2/+Uz5KXSBmXcUiXcXGXl0iXl3GX3d2X3f+rbk2rjm6r5P+2ZgC2Zjq2kDq2kGa2kJC2tpC2tra2ttu229u22/+2/7a2/9u2//+5jcC6cRm6cUi6l0i6upe63f+6/7q6///BlcjIjk3Ijm7Iq47I5P/I///bkDrbkGbbtmbbtpDbtrbb25Db27bb29vb2//b/7bb/9vb///dl0jdl3HdunHdupfd3Zfd3f/d/7rd/93d///kq27kq47kyI7k5OTk///nbm/r6+vvdnf/tmb/unH/yI7/25D/27b/29v/3Zf/3br/3d3/5Kv/5Mj//7b//7r//8j//9v//93//+T///9H7xIcAAAACXBIWXMAABkRAAAZEQGQh6VoAAAgAElEQVR4nO2diZ8dxYHfa3RkBWuYAcVSLG3M+gnbkyHxoUVjMDjH2rLkxdZGZO2ExIjN4YEBvJjZBbxxrFnjZ2QwaxHvboJiy2iQRnhHQsO8vzBd1Wd1VXXX2V3d7/f9fEDz+nVX16uub9fR1VVkBgBQQPqOAADxAj0AUAI9AFACPQBQAj0AUAI9AFACPQBQAj0AUAI9AFACPQBQAj0AUAI9AFACPQBQEkKPdVLl0Gy2e47se0XjQMl+N1+8Pwlj4fB3LquOOCj/xp0sbGXkb16u7073u72sESN2qG6qgP6IW4/d54tgFv5IcURPeuw+X9uqr0d2KPSIn7j14EI6Jj+iHz3Erdp65IdCj/gJo4flZa9nmK1EiiMv0y/eOp+UH09Ljwith/JL+Y/U1wPET9R6rFeKjCkrhyRHQA8QjJj14D7Ksx30ACHpRI8sQ7D89tZDSY3p8FP5V2+dX0o+3//w5cp+tcPqbNND9j+c73Lw8u7zS9Ug0+9Ppnk0ya2Hki1Z05419Y9syM5dP8GRjXrbg21OznN5VjSKjtHwT+0mwR/eqLY9tpMfuXD07TKKlb+KQ8ufd5P+AG7/WiqBnuhaj/NZO/to+kX+kRyQNVansvb4NG/yZ52jB99c4pru+fcLp+gnqseNpeyU28vpN09Lzi2cYOG7vB5bS5Xdq3o8fC75a98rFT2yGC08nP34Fj3eyEIu9+dTCfRGx3qUnEr3rHZwCXokWY0ceIq/uW9xPVnJEfuXuCCnxffMgiSIf7Jc5vfyXPVziyc4sFLVI3Fs4chLL31/he1e1ePzaRClHnyMWvUof1G+fy2VQG+E7tg9WHkAxi48rdpcWkqzJM1ytGpz83mS78CLld73Fw5/5+18CzWGBpHccVVBss/b59Jz0/3J0cuzXRapI2/Pdl8gRXavnrt6goNJAG+tZLHPIjXNe87WuajS3RdYJajUIzErCyA7ntOj3rHL7gE0xitE/pNAf3StR3q9k7xJv5jmt8fkG5r5xMbGdlEDyloMW3kQ6bGyIA8VsTiVZj5W66J/HMq+oOeqnzunOMHuOU6Pdb5juarHqeqW8jw0gFPtekyzeiLb/5jkJ4H+6FiPLIsJnULrCj0Sfv7kfWndiD02nwq5lAuyEkKSuY6x3JpuKPesBVHL+OWnrVrpQRa++HL1xLke2QlLPfIYbOXPRBv1KE+YxPhQYyqBrum85yrfUF74X/z82ytErQflrW8vZRXxWtj1IFlHVfHVoWo/a3FkVY/y3EKA+aHVSlNSDfpOcbpcj4PclkrHbvpnix6VExaGy1IJ9EHPeqR9q3lDuumJQNrYqOcYiR580VX6IujBnzuD96uam2+s5E32jVmzHnwALXpUdKr7Aj16p1892IjD+z/+nQ1p5Yqv9bBc3abHjSVtPWrnzlDrkbSVz4smO+uB0iNmetVji3UqpYdI9Chaz4wt9km/cpWi1KN+biFAUY+E7e8/lGqno0f6J/QYMH3qwX2W6MH33EwzPbK8LM97QvVMpYdw7jLylZaybMTu7ZUsVyv1qDTNj1WjWAtQ3TSHHrHQpx5l1ppK2x6sizPPHzfSBx1Fv2s972V/laMY08ym0kM4d07WX1Xv2OVO1KJHFoPEo+xHFU9MFB275QllPwn0R8+lB6vg0NHq0qY5fZ68cJI+EmS70HyePRbcTVrq2RF8XsofC+Y7NJQe/Llz2FO6l9OndPxzD7aZPUY8NCtu+lI90qd62WNBeiR9cMge4WQb2KGVA2qPBaFHLPTa9phW29GnJD1X3A7pscKgklpeqhyS6SRve9TPXaAYVFLpE2OZez2NgkyPfBRLpl0R4O+dK3xpHlQCPWKhVz128+FFR17I6xW1I98oe6KOZDklz9dHKwFV/yryPWt5K/Won1s4576/qnXsFt3AbOTgViqgtGme7ZoXStkbwQeyAPNDi1/7M2FIIvSIhH47dndfvC/JFUdeLhva9eceu5ceopln/xc3ik1sYPmBp7iAqn+x7xcOp0+41R27tXNXYOPLxQHtu2xWiP0ns/FfNFMfvCzvuaID2vMh9QmX6Pj2k5eLKKaHlr82HYKvGAAPegQT+QCgBHoAoAR6AKAEegCgBHoAoAR6AKAEegCgBHoAoAR6AKAEegCgBHoAoAR6AKAEegCgBHoAoAR6AKAEegCgBHoAoAR6AKAEegCgBHoAoAR6AKAEegCgBHoAoAR6AKAEegCgBHoAoAR6AKAEegCgBHoAoAR6AKAEegCgJG493v/9f/uj7M/f/dc/+Kpkjw+O3zv76Jm7fzybffiVxcV7paG8dtf3in1HhZ/keX9RdiSgRK7H4uI976Z/vrYovYrl9U92WPyUNJTx6uEleaCHmuj1yLL2h4//c+X1ZySZ4HuKUMash4fkgR5qYtfjk8fTW947d/+3tuuf30gFRqyHj+SBHmpi1+MP08v60TP3vsOu4kc/PL541wPsSv/uXy8uPvD3We0huZEmNY1fpfWHD45z1YgR6+EjeaCHmtj1+NQ7LG9/cPyr7PrTBmbCx35MN9G/Psld///zOMst79zFVSRGrIeP5IEeaqLXI73VvXP3j9n1f23xnh/NfvcM7YN5bTG5S/7q+GLW9kxrD8yEekXitcWc8enhIXmgh5ro9WAXM6k8zOj1//Bx2gnD/vngeHon5K8/yy21ysOo9fCQPNBDTfR6sKoAvYL0+ufVo+Qu+H5ej+auP/t/rfIw6sqVh+SBHmri14P+91pygbWuP732QifNqPVwTx7ooSZ+PT58PGlS3jvTvP5JzaFeeRi3Hu7JAz3UxK9HcrH/O72Atcr1h4/LKtf0n7+uVR7GrYd78kAPNQPQ4/3FRXrVxa6Ze9+d/V2taybZ+64/qD8AG7cezskDPdQMQI8PH2c9TmnH/uOsB4qNsXu82rFfXP9kc31o0bj1cE6e9/N+PVgiMAA9khshvXDiY+E/X1x8oF65Tv6tVx5Grodz8kAPNXHrYUFW6QZykDxGjE2Pj36Im2ADSB4zxqXHR89kb0AUFQbUGSogeUwZlx5JPfxj7P05XH8pSB5DRqYHAD6BHgAogR4AKIEeACiBHgAogR4AKIEeACjpUI/3Wr5u+b41gC5CaD2DLQ0BN0aq8TvLA4McN0ygh1EI0AN6BAJ62AUMPfoDehiFAD2gRyCgh13A0KM/oIdRCNADegQCetgFDD36Y7x6ECL+tlHqIfuhWgfantDquGEyWj0IkWSbMeoh/aE6B9qe0O64YTJWPZIsc+2akG1GqEfyQ08r/IAezoxXj2vXRD/Gpwe1I0HqB/RwZqR6kFwP/veNTo/MDugRiHHqkdkhFB8j1OP0aaUf0MOZsepxbS70IIUeMj+ghzP+9Xivf5Jc89sMQsKdxmuqNSWo+jvyNegRklGWHkXhUS8+xld6QI+gjF0P3o/+9fBafCV2lIQsJ21wTakoGKMeJGI9LAJWRyppeRSlh6T4QOnhzDj1uDaHeoh+QA9nRqgHV3jwfoxLDwI9QjNKPa7Nix6noUdYoIdRHGLWQ/ADejgDPYziEJMeBHoEZ3x61JoenB+j0mNGn5hDj6AY6XHrG5PJiUevlhv2frI6OfEnV9VHVOlMj2vzoQep61H3A3o4Y6LHzuqE8plSh0224bN6h/elR8WPMemRDreCHkEx0GNvbfLlq7NbZyeP5Vt2Vh98Pfnfiee0ju9GD6Fu1ZkeTmUr9IgSAz3unGHFxM5qUVpsTr6V/P+6ZvHRlR51OzrSw61s9aJHzQ/o4Yx50/zOmTwH7K09+FNuQzPj1sOxbLVpe0CP4JjrURYWmReZJTl9D4UrxrKXBBqtxyWLY9mK0iNKjPXYWytuh1HqQXrSg0+TmWnZapzrshehoEdQjPXYLGsP2Q1ztsnpoaSTypWkblWpXYXvuequbK0OZo9xUHtbSg0CQz32Nit1BXkGUNJR20OiR+FHcD26K1uJTI+Y/GhJqWFgpkfS/qz0XMaoh7T06E4P67LVtM6Sv2TOV6742hUqV86YPTU/U179WZQ9V3I7Cj8C6+FQtnrSg/MDejhjosedMye+yW2I8LlHn3q4lK3QI0pM9EhtqHB9ktS0d1brmxWMvfRwKluhR5QY6JE9FmYPhrOLHtuYK5UdXejhVrYa5jqi0qPqB/RwxkCP6xNBj9hG7Cr1yPwIqYdb2Wqsx2no0QHjet+jRz0cy1boESXzokfqR0A9HMtWs1xHoEc3jEoPyWD2zvRwxFSP09CjC0amh9KOudGj4gf0cGZu9GB+jEQPAj06Ykx6NNWtRqbHaejRCePSo8EO5sc86FH6AT2cgR5GcYhDjxn06IhRLX8jeRMq5FtRXlOtKUHrW1B6dMUclR5J8dF/6eFDS/mrHrG98+GaUlEwIj0I+W38elgELESqUnjISo+i+EDp4cyI9Ji16SEsc24ehxj0INCjM0akR2vpMRo9TjfrkfsBPZwZjx50ipIWPVr9gB7Bjhsm49FjBj2gh2/Go8e8lB6kXY/MD+jhzGj0IOTafOgxq9oBPcIyX3r8tsWPIehBoEd3mOpx50z13dAr6RtAMUzFMC968HZAj7CYzpK4xrmwOTQ9WqpXrnrY3zz86pH6AT2cMZ4lsXq199b0JoBLCaoHiUEPh5uHbq4j0KNLjPT49eqJL1Wvdj5Pph6B9bjWux4uNw99PU5Dj+4w0WNv7dOvX6lmgJ3Vx9R7CwSuXOnp0eyHkx5ONw/PejA/oIczRqXHb2h9upIBrk+eODuZPMLfI/sZHypb1iP0qHY+cdxuHpq5rl63gh5hMe254jJA1vbkJ5H1lvtM0LYjnB6d3DxaxrLHNKrdMGPFiYse6ZTLt9YimIKaverRc+VqFv7mQaBHtziVHil3zvS/vkeEepjdPPTqLPWqlbpyRWtXqFw540GPKJa/0daj0Q+vpUeK5s0DekTJSPTQLz261sPn+h5Cwxx6BMZFj2wq2Z3V3leHSt8ynwM9BAuUepymrQ/XE3o8bpg4lR6brHZ9dqLXgRm09IhPD7ObB/SIEks90mufTdqv+XA4ktKjyQ+vpYfRzUMn10nqVtAjLE56zG49O4lh+ZtsBp9o9LC4eejpIUoAPYIyivc94tTD6ObhX4/TzfMWQQ8doIdRHIJlAI1cJ6tbQY+wjEEPMi96SByAHkEZhx7X5kAPaeEBPcIyh3o0+BG3HjIHoEdQoIdRHPrTQ154NOlxunl4WdsJPR83TMagx2w+9JAqAD2CMob1PfRf9vD7yofXVGtKUPp/6NEHIyg9imU9dEsPdfERvvSwvwXovukRyzsfrikVBdDDKA69Va4UhUdj6fG1xuFlLSf0fdwwGYEeedNjzHooGubQIzAj0GMeSg+VHdAjLMPXo1xRUFsPpR/QIz+h9+OGCfQwigP0gB6BgB52ASeRUjY9oEdYhq9H0TIftR5KBZr0aPIDeugwfD3moPRQFx7QIyxu63vs/WS177cFSzvGrIdaAegREh/re2jOtByRHio/XPWwv3k05bqGwgN6hMVpfY+d1QdfT/534jmtg0NVruLRw+Hm0axHgwKNejQMu4IeOjit77HJPlzvdY7diEoPl5sH9IgSl/U9shnOsokHWgmiR8WOvvVwunk0BNxUt4IeYXFZ3yPzojYPYLfjQk0Hs/sc1M4njtvNo1GPJgWgR0g8TCLaqx7vRaNHsJuHxVD2GAa1G2asOHHTI603bPY4BbVl5UpRuwowiaizHjZvekAPT/gvPZSE0KNqR3R6mNw81AEndthXrtS1K1SudIAeRnFwLj3MA4YePeK2eFrvPVfj14NAjx5xXMCg9+cetnrI/fCph6eeK9rygB594aTH9cmJ5+hE5MKaL1KiKj3C6+HnuQdx1EPpB/TQwW0Bg77HXHF2xKaH0c1Drcdp6NEfbnr0PWLXQQ+pH570sLh5KAIm0KNXhv2+R9x6eBixS5+Yu+mh8gN66DBoPUhsetijrFxBjz4ZuB585h+fHig9+mV+9ZD5EZsebDQi9OiPQevBPfWAHtDDO4PWY+ylB4EePTNkPWp2jFGPMpdb66HwA3roMMd6SPyAHuwr6JEz4OVviO2bgr5eiQqdOm5vevT9yofvfNULAy496oXHCEuPaiFgXXrIiw+UHjoMVw/irIfoR1x6EOjRN0PWQ8j849Ijn4IBevQH9DCKwyD1kPoBPXQYrB5i3cpcD8GPmPQg0KN/BqyHmPlHpkc9l49Vj91LDy0RsnD4KbvDQzJUPSSFh4UedT9i0mM2L3q8kbiRcmDDKoCADFcPSeYflR4eSw+ZH9HoMU20eOrybHbzxSWy7xWbEAIyTD2IrPCw0aPmR0R6lFOHjluPG0vkWPbn9jI5ZBFCSIz0EF5/u8JeF+18Kga5HX3r4ZQ6YfWQ+BGJHrvnKkpsRVd8GOkhvDy92Zce8sxvoQfvh5MeTqkjjiebDz1uLC08XXy4/affuUwlOba1RA4km3dfvI+Q/Scvpzum6txeJqfoPgcv/yxpsxzZMD+lCSZ6CAtW7K3pTQCX4k0PedlhrUclCVz0cEsdUQ9ZLrfWQ/QjEj2mST6vbdoiH08yfrL5RtZmZwIJevz79LtT5uc0wEQPYeKmfBpZPXzpobLDTo9rvvRwS5151WNdbG5sJW5szH5BRTjw1Gz25gqrctX1IOTo5dn2SuDqmIEe4rR/O6uPGZzKkx5KOyz1qPrhoIdj6tQCJr71EPyIRo9j9U1J1mdFwpQUQhyT6HGs/C4cBnqIk8ZenzxxdjJ5hK9CBB4n7TyM3d+49oCp42coe6/j2vUyVa5Hks8Zx4oGetJoz3L+NK1p8XpkpYakcuYTJz2yrhl+juWwie7fDns/AqZOAD0SPzoVRC9T5ZUrTg+W41MPKMwFsWlefhcOIz1qC1bsrU0evTq7tdblFNTKmpV95apSvXKoXDmmTn24JVHUkawrV6x+Va1HNsSlr6Z5WmAIejAzFHrkmwPhVHrk2ztc3yNiPZxSp65HQy631oMJ0v5L+uvYVegxlNJDngG6XP5G3S530aPwI4AeNut7kFB6VFrokejBPRbk9FC0PW4sRdr2UC1Y0aEejXY46JH74bXnitve/tsq8GvRetWj8CMSPWh2/0SewS8tVfQQeq7SYmZKIu25Enr2s6yws9rZ6lCNdvSrh2PqdKZH7kcseszeIGT/w2/TYe0rhCz851KP7LnHpfTZBv20Mdt9geR6UKtieu4hLlixyRqfZyd6/fsx65H54aKHW+rwo5FD6pH5EY0esxsr+YB2+qSPa3ZXnprTYoPyz7K2x4GVynfBsBxzld4ak8xA0Rw74a5Hc93KUQ+iEwe9MVcWqcProZPLrfVI/YhHj6SAOE9FOHwyb23nzYnqmCtWjCTFSdE0/+XzS2ThaMiGx8x6xG5Wc7j17KTL5W+a7XDS45q7Hk6pUwmYzJ0e5myFbZEXDOl9j5bCw00P5kcU73vU7PCvB/MDeugwID3a7IAeunpQP6CHDoPSoy3zO+lB/YhBj3rdCnpIgB4C86GHYEcIPRI/oIcOw9GjtW7lqsc1OmTP7TfYU9HDIJfPrR5dMSQ92nL/GPQQC48geijXc2ZxgR45g9GDhNfjWuM9Vec32FPqYZTLHfRQX3noUTCY9T0CvOfh+uKH11RL/5EUHmH0aCo+oEfBUEoP2vIIXnpIF3M2+Q3ttN0DArwGpXo5yuFe1fXNozeGo0d75nbX47dtfgStXBFZ2RGq9Pia+qei9CgYiB5kDvRQ2BFKD3X1CnoUDEOPtFO3Az3a/AiWAYhKDujRJ0PRQy9z+9CjMUUCZIBiNLfCjmB6KP2AHgWD0IN0p0dL69x3Bmh1I6we8t8KPQqGoEf+vLwTPZr98JsBKmI05ORgeqj86FQPooNFuH6IXw9SjCbpSo+mB8r2P1/6w0g1t3auh6J61aUeWnZAD1XiktKOjvRo9MOjHnyNqh89FIvWdqpH2zXTeBoVjqj1IFU5OtOjyQ+fpYduNg+ph3xdNehRRM9kZ2GBF2FDE6Z61OToTo8GP5p+g2nqRKGHdOEo6FFEz2RnxQIvmvP0G+khuKGfuZv20A1B2anjMXVi0cNsdXfooUJY4EXY0EirHvUGmXXmVu+hHYKiZdjwG4xTJw49JIJAjzJ6BvsKC7wIG+qBc3msZdBIixtGmVu5h0EIpr0oxqkTix6nVb80/7HcD2/SwyIfj0cPYZpM1byZZeDt+atNCdvM7TMELT3MUycaPRoFab2EOomjZjx6CJMsy2ddroxp5t+laCT8yxy+UAzZNk+droauu5BenOrfjXzNeED7POshh09R19cKeiRI6gwCnSuomf9GpEdtgRdhQzOuM5W0PnToIAT1946pE2BmhDBNbDTNFWjeH5WMXQ+n1IEe+nps7f/CRvbn9pP3yVZuvrF0aLZ7jk3svkLEtW8Z69ns1XRfdfT0fwn0gB5x6EGKWa7WCWnWI9lBsQKIbz3M+2Z4xq2HY+pADyM9sqx9e/l+pR6MxBHVCge+9TDv2ecZtx6OqQM9TPT4+FJaIkz3/VmbHsrZFL3rISzwImxoZOR6uKUO9DDR4xPnsuUHD02ZHrvlWh/bDxFy9M2sckUXkSIH30irVzeWuFqWdz2EBV7MxlyNHaSOBXZ6HJuyvH1j6RTT43a6UtSBV/IVpT7O6fG3y0ymKb+SlK0etx86qSiQhAVejEbsjh2kjgWWeqQlwXTfK0yPdXJwY7bN1rhdpwuwvbFEsqZ5WrliJtTrWevFgxtDPZbpIlWdTIAN5h1LPVheT+pWM6rH7WW2/ib958ZSWlDwejCZanUraz1m2+lSb0+5/nQA2rDUg9WUthI1qB559SgpJLbyZganB/t/rW7l1PZ46zzV6sjLlj8aAD1s9aD/rSf5X0sPqobQh+XYNL/0UCLIwpEN858MgC62etxeTlrch2aaeiQVq3rdykPPFV0qly29DkAYbPVIcve3aau81va4vSxre9B/XqivgO6qB6tg7b+PdLROFZhHrPXYIoRKIfZcHbo8u1TruUr2Xrivnoud9GBuLJx8O2morzQ17QFwwVqP28ssW6bPPZZZDxQbgrhcfe5R6JFsro+8stcj7brKmx03lljZBYB/rPVIygn6vFx8ap7c14/W2x7Jv/W6lf1jwWW+Wzer2gHgn47e98jaJObRkwW1n3tsvv0f0DgHgehGj93npSMXNaIn2fa2W1wA0KYLPXbPZd1LW5VXgPV0kZx598kv5IXH9pNHwvZauc27KD3gChsIqDmKOOPOmeruMYyVksbhusavElP0b5INj+r8Gj4Vbn1jYnXc7P+tTiaP6KZeJ6XHOjmwQf/1okelrRG82eE272JDCEZ67K1xu8cw0lYWhztnNH5V/cDkt1E03sniU2Fn1e64LAJ6L5AO7V3z7Zdeeukvlhb+00spL5CwejjOuyg7YG9N793FCjQHcRnDMA4BkMZhU0N64cDrk0+/PrulIRafCsmnL1+d3To7eczsuOx8a+3HpQxLj6wHuSTsIw/H9w9lB+QThOjz69UTX6peYOM4BEAWh+uTL7VncuHAK9mGtuxaS4UsGXdW21KhdtzeGjNzZ1XzJjUsPWZTTo6Ffxq08HB9e112wM6q5n2rDOLTr1/hLrBhHAIgi0OSYa+06iEeqKlHPRWKk7akQv0407vTwPSYdfmcw3XuE9kB1ydPnDVoGib8Js9DlnEIgCwOmw/+tF0P8cCdVVrZOdtaVaylQkZ7GVo7Lrk77ZikP9FCMzD/NPdcBSaEHlnHlVneHoAeO6vfkuXf9gN/TdvYJ76pcVYx+KyqZHAcrQGaNc2Hpkd3uM67KDkgaSg+epU2DY3KeFn1QDsOARDjwHocdPQQDvwbll0f1TirGPymVgub12PymdeN0z9aetbDf+mRbzfK3PGXHlfobdym9LiSZVeNfF4Pfm9TL5PzemSNnx5TzyO8HqzZwfVeBW2GhNPDMHNHr0fa4WChR5ZPtbJrLfi0INaA1+Ozs5lJ6g2pctWxHiF6rrjtukTfc5W1qFrr9MKBJlVFXo9bZ3SfXfBNczM9htX2uEnHW938RUnY8Vf+n3tkGUO73z2FyxgxPvfQ1UOSHpalx50zWs35+nHJYc/NDG4u1cWrVcSjR8c4zrsoO2CTNc01nvZW4TKGcRwCII9De+VKlh7aTWXJTUIL7rgrpk/NoYca95kF6yHojxWqkF3giGY3FBKGoqGHcOCdM9odrdVUyJJRKyG51NMf48UYrh43X3op+NB295kFhRBuPTsxHm/L6xHXiF1DPcQUTdJD7zFdNRWuTyz1SCOg16afDVOP7X+ZNMi36Au18qURAPDEAPVgL5fTd0ju0x0WD4AdA9Rjnb5btUWXGJlikhIQlOHpkc7qMKWOYJISEJbh6cGeDe6ySbUwSQkIy0D1uLGUzq8FPUBIhqcHq1xN2XCSLUwgCoIyPD0SNRY+T2cppavsoGcXhMRGDz/rmm/p9MrK9GBLtSUlyO1lFB4gLFZ6eFnX3FqP2e6Ln6eTT9/+F6pFBgHwg6UeHtY1t9cDgI6w08PHuubQA0SPnR4+1jV30WO3m/c9wLxjp4ePdc3t9XhjqZu3BcHcY6mHh3XNrfWoztQLPUBILPXwsK65rR6758i+76LLCnSBpR4e1jW31eP2srDQFABhsNXDfV1zez1QowIdYauH+7rm9pUrlB6gI2z1cF/X3LppPsVIK9AR1no4r2turUfSNv8EnneALrDWw3ld86J/tskS1cLN6NgFXWCth/O65tADRE9H73t4XNe8w0lEwbzTjR5e1zUHoCu60MPvuuYAdEYnpYfXdc0Tdi89tLTvldt/uuEYLwCaGeC75rPtFdYol/SGAeCVAeqRaHHgPyalR9KgwfNzEJQB6kEfyacP6tcxiSgIyvD0YI9QUj2y4fN987s/P764eNcD/1DZ9NEzd/9Y/Qz5j2EAABrXSURBVLHCa3d9j/37wfF7g8WvZ1yS5/3Fr4aMWivDWjyNki0wmD6ij+Gx4P9Orj7lrj8ut0GPAqfkgR7N0RM3xabH+4uL9M74jz9ctLmUo9fDLXn61iNy5G8L5oOEY5hE9MPHswye5HDVPbCBsevhmDy96zG40oOtXcD02I6hZ/edxU9xf75z9//6yuLd/4NVF373lcW7/h3N+LT28NEz9/w9/cwfPnY9HJOnbz2GV7nKO3b/y/mlGEYk5vl7lmXxd+7+N4uL9/xfev0/YLXuTxbXP62Df0p6+Fj1cEye/vW40EpkeqSPBSkRPPaotio/fPyed5N7JM0Q2QV/4N3ZrxYXi+t/z48++uvFZJ8Kry3mjFIP1+SBHs3Rk27dfeP+RI79MUyxy655BssLaW2C/vnBcfbVO8X1pxmjuj9l5Hq4Jg/0aI5eb2fWJKkyv8v9/Q67oPSCv59WFMrKNb2RCnqMu3LlmjzQozl6vZ1Zk/Sml8Luh9CjimvyQI/m6Em2/fzJz91//8e/+HLnkZEidM1AjyqOyQM9mqNX37D7YjHB7kIMbQ+hY7+8/kLleh71cEwe6NEcvdpn+mYVOfz5hIcIieCh4Ex4LFxe/4+eWfzDd2e/Oj7XejgmD/Rojh7/MbFj4eH8bzbRdQT8Kh9UxB5pldc/69hfnG893JLn/bxfrydLhqXHFveoI129uX/+8YfJhf79bEhq5frTx8KLH/ufxz8113o4JQ/0aI4e/3GdH0UyjaP4aOb92oNgwBF38gxKj/psWZG876EgaYv+iN4iy65NUGEQyWOpx/b5JUIWjlanmUpXolV9rLCe5fFiAcKm6HGf6gPYoxjQriQfRfRAbXtRYeivzhADg0geOz1+lvWuFu3kGfQQ+YhVuv+4vjmq698jQ0geKz22CKEFx83ndefj4ZgbPcDgsdGjXJ/pxpJF/oQeYCjY6FFZYIP9Od33lytk33dZbWp7hSz8UT4D9e65g2/Sz/zh0AMMBRs91sv+I5bFp/v+FSEHf0n14NdtZs+4E45JD7fS4+XK/NO/eAt6gKBY6FFtdLOZ16ckXZiZ+UDXbSak0OPgxu4LtcEf68VLiOZ61F9jhB4gJBZ6VBcjYKqklS36Z23d5vQ5RX3xAugBhoJV6VHVg5UebAmcxIfayptpOSPoYV25AqBbrPSotj1Gqcd7+nvq7xpBsJ7PbLJrkGCDJ5OXnivoMZBgPZ8Zesj0qD/3KPUQ2h7QI6pgPZ8Zesj0qD81L/Wgaypfnr2xBD3iDNbzmaGHVA8qQDrmij3xK/XInnsQ6BFnsJ7PDD3keiQFR+LB/mzEbkUPNkXbgb9YOgY9YgzW85mhh0KPZra8zX07WD2kM69GdN29nNmLHmJCRZRMfvVImuobtATxNrvnUPWQT00c0XX3cmYfekjSKaJk8qtHPsjqaG27+ZK0efRMdvaH4wWiP5MmWz3hIrruXs7sQY8kjS5GnEyeK1e7rE3ycH1zRHq8Fx76K79OSf7t4HQqbNPHYF/nYKkdF+t+jFcP3wyy9KikKV+ARHTdvZzZWY/UjrofESUT9JDhdIFINU05PyK67l7O7KpHbgf0sGSAehA+Sat+RHTdleftEkJezei+FqqXHtBDhpse9dQrfkT8enRaehSFBy0+4ixk6y9QyLEI2A8j0OMC9FAEW9rBV68iSiboIcPhAhGxPC7SL6Lr7uXMbnqQqh4XB1UHjYUh6qGunQ7hunepx8X49UDpIcH+AkkKj9KPmK67jzM76UGGoAcqVzJc9Gjo3Yjouns5s6MeF4egx8VWhqLHrW9MJicevVpu2PvJ6uTEn1xVH6HC+gLJC4+8+yqi6+7lzC56kHrOi7IHY0R67KxOKJ8pddhkGz5rfloHPaR2ZMVHRNfdy5nd9FDmsoiSaTx67K1Nvnx1duvs5LF8y87qg68n/zvxnPFp/evB/Ijouns5s4MeQuFRyWYRJdN49LhzhhUTO6tFabE5+Vby/+sWxQf08H1iUQ91NosomcajR8adM3ntam/twZ9yG/SxvUCqpkfmR6/XXbNl1o0eksIDelhEz/iIsrDIvMgsyQk7kicdyC6n63FFfLrotsy60qMhm0EP7eiZHrC3VjQ1etCDRKuHdsusq8pVQz6DHtrRMz1gs7z+WWNktsnpoYXlBWoZ32mQjt6vu3bLrL/SA3qYR89s973NytWWlx5ajE+PjPaWWSd6KHJdfIMLRqVHUoOotD2j08PAj1DXvd+WWUH5ogdHl9VPvfQakx63zpQ1q1kfPVfR69Fvy6yAKPTo0g+9BLPUw2Xh5i2D2RhM9Lhz5sQ3uQ1dP/do6tZlfF3bj0B6aLTMuqhcKTNddEPT7PRwWrg5lB6pDRWuT5J75c5qfbMGtno029G3HlotM+hRxUoPt4WbA+mRdeyzrv3s2nc85qpdD+3qVYjrrtcy60AP2TPBEenhuHBzID2uTwQ9uh2x21q36lcPzZZZJ3o0Z7WB6+G4cHOoypVHLPVosSPRQ9cP/9ddt2UWXg914TEOPRwXbh6rHrOo9dBtmXWhR0teG7Yergs3j1UPrdJD0w/v1127ZQY9qljo4bpw80j10JgxrEc9tFtmwfVoqluNQQ/XhZvnWw89P0b8vkdLjut73D+PlR5uCzdDD5NgvcbW85mhh0QP14WbR6pHe8scesza6lYstw1cD8eFm0eqh27poeXHePWQvukxKj0cF27uV49QQ9wa34Tq5bUo2/Qx2Nci2PYMF8G4/wK7MVdOCzcXS0VpWDKc0kNnqvu09NApPkZbemjkt+Hr4bRwM/SAHiPXo5k5XLi5fcDVIPQIXuNTvenR+VsfeunhV4/5XbhZx45cDw0/xlp6tPZbmeW3gZUe87twM/TQClYnu118te+3xko8V67iX7hZi8B6tPsxUj20Co8R6+Eb6OE1tjqBhdVDww7ooR+9fk5rrIdWy7zUo9WPceqhV3hcfFU7x0GPXrDQQ8MO6KFlB/TQj14/p7WoXEGP9mC19dDNch3oMarF0+6cqb78diV9xaGDmUpQeugECz08YzqJ6BrnwmZXeujZUdGjzY9R6qHZ9KB6aPrRXzLFgfEkolUX9tbM50dMMS89BqGHTtkaVA8tO6CHNkZ6/Hr1xJeqVzufCNCc8KVHix9hpoHTKVvD6aFbeEAPbUz02Fv79OtXqld7Z/Ux9d6NGOqhaUfPeuiVrSH10LOD6aHnB/Qw4De0wlDJANcnT5ydTB6pT3PmH/13Pbp866OWOpplK/QYEKadApweWeWanyUzREYcgh66ZWswPbTrVqkeWn5ADzOqGSCdU/bWWvgZ2gdRueqtbM3QGcre4bB2g/SNF6fSI+XOmdDL3+iNKKnp0exHmNtiP2VrCoEe/vGgR/jVoXTtiEoPVdkaqnKlXbXKK1c6tStUrsyAHk3olK2B9NBveUAPfVz0yObK3FkNvHiadt2K16PRj8706Gp9DwM7cj00/IAeZnAZYJNVH85OzJ9+GOqhaQf0gB5+sdQjLTiyWcktRpbMgR6qsjWMHiZ1q0KPdj+ghxmcHrNbz046WB3KVo8mPzooPRRlayg9Xm0SAnrYMYD3PfSbHrHo0Vi2BtGDQI8gDEIPXTvi0kNRtgbS41UbPVr9gB69YKCHQeHRux5agQXQg0CPMMSvx3v6dsyxHhft9GjzA3r0glHpYa1Hgx+j0oNAj0BEr4eJHfOrx0XoEQTo4TW2OoF514M46NHiB/ToBZMeS+jRAnsiCD1CEPvqUDYvQnX1TpRt+hjsq7WXkx7NfkCPXjDosayXCCalh7r4GFHpQaBHMKLX4+vj0iNAIWb6GlRHr0X5S7MeiVsPMjo9/Jce2WBE69KjsfhA6dEL2npcgB4tZEN17fVo8gN69IJ2j6WjHko/RqMHgR4BiVkP1qkLPZrJ3/Nw0KPBD+jRC5p6XIAeLRDoERLo4Su22oF51iPP8g56qP2AHr2g2SXjrofKj5HoQaBHUOLVIxtOAj2aKN8wd9JD6Qf0MINfwWLvJ6vB3jXPBltBjyagR1h8rA5lschHd3oo/Ohi+Rv5zcOnHsSXHio/oIcJtRUsdlYffD3534nnjE+r1SUzOD20bh4e9ajO3gM9QuC0OtQm+3A9xAztxUD2Aemhd/Pwqkcly7vpofADeuhTX8EimwAwm5fDCA098hw/GD00bx7QY0C4rA6VeVGbJtPLcE/i+J5HJ6988Imje/PwpwfxqYfcD+hhRmd6+LIjoB+1pOnu5pHhOpI97Lh2w4wVJ256pPWGTf8LGJSv0DpXruS1q87m2A2nh/F6N936YZC+8eK/9NCivUtmBHrIbx7eKlf8pNPOlaukdiUmFCpXZnSlR5njnfWQ+tFX6eFPD+JbD1nrA3qY0UnPFYEe7SeurVjgQQ+JH9DDjCtdPPeoTt4zWD1C91xBjw5w0uP65MRzdJ5+YUmkVuZAj8DPPerr3fjQQ/QDepjBT9EfZswV8ayHzI8O9FDcPLzpUcvyPvQQ/IAeZvB6hBmxy02MOEQ9Gm8efvQQFkuDHiGI8H0P4l0PiR9d6BFyxK6wlKAfPeq9u9CjF5or1VyOH5IeWoFFrUfND+jRC4168Dnehx6iHwPXQ1yI1pceF6FHBejhFltzPOkhZHlfenB+QI9eaGxzQo+2E0tWMfenR9UP6NELTXrUcrwXPQQ/hq6HmOX96VHxA3r0QlOlOogedT8GrYek8PCqR+kH9OiFBj3qOR56CEjs8KtH4Qf08I3bWwI+34OqvxXl+7Uo2/Qx2Fe+GXp0RWSlh7iUoK/Sg5YfEXTJ+NDS93tQYd6N8pdmPRKdHkKO96YH58eQK1eywsNz6ZEXHyg9ekHd5gyoR9WPAesha5h71yPzA3r0glIPMcd71KPix6D1kGZ56BGAqPSQLWLuVY8L0ENXj9QP6NELKj0kOd6rHhf675Jx1UNet4IeQYhJD1nh4VuPC723Od31kGd533owP6BHLyj0kOV46MGhKDygRxAi0kNaeHjX40LfbU43PVR2QI8gGOkhvP52hb0u6mkqBqkd0INHZUcAPagf0MMA4eXpTY96yAsP/3pcCNXm1Lx5QI8BYaKHsGDF3pr5BHAp0lqDPMcPRg/Nm4eTHsq6FfQIgokewsRN+TSy5siuuyLHD0UP3ZuHox7KLA89AmCghzjt387qY5anlVx3VY73rseFMG1O3ZuHix7qwiOEHhfpuET9yM65HuKksdcnT5ydTB6pT5JpNwg11EB22dB219GokjGp2jcPNz3UWR56BMBJj6ztyc+xHL0d3vxoSR1/N49KMgUfye5tWLtZPowUIz1qC1bsrU0evTq7teY8BbWy4RGmcnUhRKU64M2joke3dkAPp9Ij3+64vkeTHQPSQ/PmYV+5amh5hKlc0dqVfmRRuZLq4bj8DWm0I4geFwJUqrVvHi56NGV56BEAp54rbrsReUoS0mLH4PXwt/xNY+ERRg/Fcs46sR0HLs89shyxs2q7OlS7HMPRQ/vmYatHsx3QIwgmP19YsGKT1a7PTsyfftCU1HAjlB4XAtQadG8elnq02AE9gmA55iq99okqFIuRJe+1tjkGp4fuzcNaj5YsH0SPV038mHc9ykF32a3x1rMTy+VvNOUIpYd8NWdlbLX20rx52OnRVnhAjyD09L6Hth0D0kPz5mGlR6sdofQw8QN6+DqrrhxD0kM3MDs92jMy9PBPL3oY2AE9ZmlZCz36oA896AirvvX4em+VanM9dOyAHkHoQQ9adkAP/RPryBFOD4O+Xejh44y0ZtW/HiZ+9KkH0So7oEcY+tDDMB/PtR6acgTUQ98P6OHhhLHoYdA6700PbTmgRxi6Xv6m4xefmnB+Kco2fXT31K1XQY9gdFx65F26c1t6GNhHOn85UI7lbcRfmvVI53pY5ONAeuj70UflipUcJiVCsNJDu/gYhxEc3epBoIemHmm9Cnr0TKd6lE/Lo9BD24/O9cgbHXHooesH9HA7VzmWBHo0UTTJI9FD0w/o4XSqykirOPTQ9aNjPcr+KujRM93pwY1DjEaP7q97mx7V3lzo0TOd6cGP0o1ED00/utSDe9YRix56fkAP69PUxrDHooeeH53pUX8QGI0eWn5AD9uz1N/wiEYPLT860oMIj8mhR8+4rQ4lbJCeQvLmbDx6UD/aEsH0ZdrG1JHqQYjohlE+Dq3HRY3byLzroVjgpWGK3fyy+8jHOjvbBEtaBTGdiqExdQQ9CFHIEZUeGn7MuR7CAi/ChnrgynneYtIjE6Th8mtdd93UqerRYIZhPg6vR7sfc66HsMCLsKEeuHpRG7t83LqzdbBlRpWkiNU0cKrUKfRoUcMsH3egx8W2Yna+9RCmyVTNm1kQIh837+wULNHCNXU4Pbzl4y70yASxSJzB4jJDu3zW5cqY5r7f6LCjJQcohmybp07fA9Xt0E2ccRQlQfUYOUidJoyzYoy4rA4lbNBHP/ECrW4XfvkbVeq4rWuu3jVIsFhbUBvN+6MWvV+g8Ot7qFIHegwI6OEpWOgx53qY91yp6f0ChV/+prXnytOJgwYLPfQxfu6hpvcL5D9Y4+cevk4cMljooY+wwIuwQZveL5D/YHVTB3oMCKfVodrHXKno/QIFCFYzdaDHgHBbHUprxO68gNQZH6MbBgCAP6AHAEqgBwBKoAcASqAHAEqgBwBKoAcASqAHAEqgBwBKoAcASqAHAEqgBwBK4tRDGMx3hQ1+tRg5X+fOmWoYnQ0atJt+1TxYX+nUUzJFR5x6KObjdL/se2tcGNYD8k0xn37VJVjndOormaIjSj2E6Tf31szf15WRXPbqdW+bBNUbxtOvWgbrKZ36Sqb4iFIP4TXUfFIcR369euJL1etu/zKwIR5fQ24M1k869ZZM8RGjHuIkBjurj3kJ99OvX6lcd4epJExP7G8Si6Zg/aRTb8kUITHqIU6Bc33yxNnJ5BHXy/Mb2nYtr7vDRERm+JwCqSlYT+nUVzJFyDD0yDpkPFyfcevhLZ2gR0qcetSm30yaio9end1a81D75a+79SSoZvicfrUpWH/p1EsyRUiceshvV3fODPS22FnpkW93/kEoPVKGpIePCzQPenj4QdAjJUY9VF0lvvUYX88Vt90F9FylxKiH0NGeXZmdVfcLdGXMzz38pVM/yRQfUeohTL+5yZqcZyfuvfrcdbefBNUQj9OvNgbrLZ36Sab4iFIPYT7O5NpQPJTu2XV3nQTVFH/TrzYG6y2dekqm6IhTD2E+zlvPTvyMGeWvew8jdr2eOVg69ZRM0RGnHgBEAfQAQAn0AEAJ9ABACfQAQAn0AEAJ9ABACfQAQAn0AEAJ9ABACfQAQMmw9dg+fx8h5P6Tl8Wvbizte8XTWXZfvD85y37ZWQQuJRE6+JfLC09XDj9HTvmIxrrJD7q9TA7lf6dJsVWNE9BjyHrsPk8yFh4WvvSnx8+W8rO05/Itut/Bvw2hxxY5ZrB3okdx1jQpds95u1/MD0PWY0oWTr6d/PvWeSJmQG96TAk58nLy76UVyVnqrJMDG/VtfvS4vXxQp/QqdyckT4AsKcz8ApQB65HkgDzbrRMh7/jSIykPsqIpyeatQa6XVZoCP3pMzQKheuRxyZJi9xyqV6YMWI+KADeWhCvvSY8kbxf33BtLrVl0XXKH9qLH7WWzn3N7eeHbeWmXJwWKD2MGrYfgxPb5pJ1weCP9dt8rbyTt5ANPpV/tvph8WDh6Of+O1pX2P5XWmfY/nB9OW/qHn6qEuFUtMb7/g8tFUFlLPQnqr17MTzNlTZR9r9zO2h40Ogsnf5npUYtBeRgfcX7HnGleFIh7ymJC9Xh6PYt7roepYmDIeiR35YWnuC1bS2UTOskTn0tb1OyWub2SNa+fTr/7s/Tjw9PKPtO8pX+0DHIqq7ZxQS3cVwRR0yOLzoEVpkctBpXD+IjzO5a/9ZTwExtiwvTIe69yPXx1oc0RA9YjzR37v/CDPP8m2eHgxmz7HMvR9MtPXKZ5Le22IQdeprde9ol+l9yckz3zf7Ot9I6dHFHJmGJjIjkLvUG/uVIEVZ4mq1yletAdN2a7LxBWyRFjUB7GRZzfsThpGiduz6aYsAO20upVUc+cSlpGoIkh60GzECOrXkzTDJU22ZPcwm7MaRWsKARY/s2/2yL57bW6D9fEEBsT2VnoaY7VT8Ppke84ZZlUHoP8zJWI8ztmbBVhcXuqY5JGYT0TJ9NjSywKQSOD1iPh0pOsRnGgzJsZecuE5aSyWsFySP5dLkKlD6z+SdCjbKtPq0FlB1X0KHZsikF6WPUktR1nlXPNhD3VMSkKsEMVPTw+Kp0Thq4HhT73SK47X7Uu26PJVtbNmZFszr+r5e2EX7z0/c8tEU6PWn2k3HerGpSoR7Eji5ciBjV1ZrP6jhlZtai+pzomefOH/paKHujaNWMMemTFAF8GWOhxYyXfpwyHa5rffLuaKVkoPvTgIt6oR31PdUzyxgqtXkEPa4arR60OdKil9Kj22cj1oANC7v/8yR+8WW17cDmKumJfeshiIC09JN1LtqUHq15BD2uGqwdX72HZMq+Yr1cr3HkGrDYhpHok+xwSm+bVI1kTWKjxq/QQ2h6yGPBtj0xyycO7etuD31MSk1wPKv0X0fawZcB6lMM9shxd67mq5pbkqw22J5eTOD2Km/E6N7aqMqhknVQ7pPL+IpUeQs+VLAZcF5QsqkUsNHqupHrQn5PX0tBzZcqA9aAX/vDLyfW++eISK0iKhwL7XhFzC3uESMf4nlKXHsnR6UO5avXmeXqW5NB8SGL2tOHSiuQ0Dc895DEoYldGnN8xQ3juke2pjEmpR2VwIp57mDJkPcoB7SQfqlF9iMzl2/wBM8u+6rYH5RO16k3xMD0bNl97Vq3UI9/x986pY8DHruhuLnfMf2re6JDuKYlJqQf9Xek3eGpuzJD1SG71T9IXlRaObOSf6YCk9FMtA2YDmfjvaj1Xlx5K96gPJLlJD628DlUb6aTUI/FXHHMlj10l4vyOOVvcmCtuT2lMKnrM6mOvgDbD1mN+8DGccIoRu6ZAj4HgnrfxuqA50GMgGL4tKAGve5gDPYaCa+5G4WEB9BgMRjOViGCmEgugBwBKoAcASqAHAEqgBwBKoAcASqAHAEqgBwBKoAcASqAHAEqgBwBKoAcASqAHAEr+Pz2YfMFZtZfrAAAAAElFTkSuQmCC;" parent="1" vertex="1">
          <mxGeometry x="258.07" y="41" width="148.93" height="130.26" as="geometry" />
        </mxCell>
        <mxCell id="V1H4tHCDxBhfa8CFtdOd-1" value="&lt;b&gt;A&lt;/b&gt;" style="text;html=1;align=center;verticalAlign=middle;whiteSpace=wrap;rounded=0;" parent="1" vertex="1">
          <mxGeometry x="-35" y="40" width="60" height="30" as="geometry" />
        </mxCell>
        <mxCell id="V1H4tHCDxBhfa8CFtdOd-2" value="&lt;b&gt;B&lt;/b&gt;" style="text;html=1;align=center;verticalAlign=middle;whiteSpace=wrap;rounded=0;" parent="1" vertex="1">
          <mxGeometry x="105" y="40" width="60" height="30" as="geometry" />
        </mxCell>
        <mxCell id="V1H4tHCDxBhfa8CFtdOd-3" value="&lt;b&gt;C&lt;/b&gt;" style="text;html=1;align=center;verticalAlign=middle;whiteSpace=wrap;rounded=0;" parent="1" vertex="1">
          <mxGeometry x="235" y="40" width="60" height="30" as="geometry" />
        </mxCell>
        <mxCell id="V1H4tHCDxBhfa8CFtdOd-4" value="&lt;b&gt;D&lt;/b&gt;" style="text;html=1;align=center;verticalAlign=middle;whiteSpace=wrap;rounded=0;" parent="1" vertex="1">
          <mxGeometry x="-37" y="174" width="60" height="30" as="geometry" />
        </mxCell>
        <mxCell id="V1H4tHCDxBhfa8CFtdOd-8" value="&lt;b&gt;H&lt;/b&gt;" style="text;html=1;align=center;verticalAlign=middle;whiteSpace=wrap;rounded=0;" parent="1" vertex="1">
          <mxGeometry x="148" y="287" width="60" height="30" as="geometry" />
        </mxCell>
        <mxCell id="CiWgiKEQsSCrlubR7PXY-18" value="" style="group" parent="1" vertex="1" connectable="0">
          <mxGeometry x="149" y="173" width="260" height="140" as="geometry" />
        </mxCell>
        <mxCell id="CiWgiKEQsSCrlubR7PXY-9" value="" style="group" parent="CiWgiKEQsSCrlubR7PXY-18" vertex="1" connectable="0">
          <mxGeometry width="162.5" height="140" as="geometry" />
        </mxCell>
        <mxCell id="CiWgiKEQsSCrlubR7PXY-1" value="" style="shape=image;verticalLabelPosition=bottom;labelBackgroundColor=default;verticalAlign=top;imageAspect=0;image=data:image/png,iVBORw0KGgoAAAANSUhEUgAAA9QAAALOCAMAAAB/MKv/AAABmFBMVEUAAAAAADoAAGYAOjoAOmYAOpAAZmYAZrYAv8QzMzM6AAA6AGY6OgA6Ojo6OmY6ZmY6ZpA6ZrY6kJA6kLY6kNtNTU1NTW5NTY5Nbm5Nbo5NbqtNjshmAABmOgBmOjpmOmZmZgBmZjpmZmZmZpBmkLZmkNtmtttmtv9uTU1ubk1ubm5ujo5ujshuq8huq+R8rgCOTU2Obk2Obm6Ojk2OjquOq8iOq+SOyOSOyP+QOgCQOmaQZgCQZjqQZmaQkDqQkGaQkLaQtpCQttuQtv+Q27aQ29uQ2/+rbk2rjm6rjo6rq26rq46r5OSr5P+2ZgC2Zjq2kDq2kGa2kJC2tma2tpC2tra2ttu229u22/+2/7a2///HfP/Ijk3Ijm7Iq27Iq47IyKvI5P/I/8jI///bkDrbkGbbtmbbtpDbtrbb25Db27bb29vb2//b/7bb/9vb///kq27kq47kyI7kyKvk5Kvk5P/k/8jk/+Tk///r6+v4dm3/tmb/yI7/25D/27b/29v/5Kv/5Mj/5OT//7b//8j//9v//+T////rqGgxAAAACXBIWXMAABkRAAAZEQGQh6VoAAAgAElEQVR4nO2dDXvc1nmmQYlcLmctyaw5UmKRbmI7IpsmXrm72Zip0qRqHGXbNWVl67XqVZL1eizVshNq027X6oiUXGk4f3uBg4/BwQAzAAbvec8DPfd12Rp+zJwbGNzEx2AGwZQQ0isCbQFCSLcwakJ6BqMmpGcwakJ6BqMmpGcwakJ6BqMmpGcwakJ6BqMmpGcwakJ6BqMmpGcwakJ6BqMmpGcIRH0yCDaOu3/YSkZBxvlX7y799cmdQRCs7ct7EaKDQNRhZGu/7P5hF42XY3vZrx+ZX9t3IEaICt1HPTkMm9np/GGrsaNeNnS4HRE4/qtDiFO6j3ocrL0SnPuk88etZDRL9OHe0l7HQbDpcueAENd0H/VRcO6/O928zUVtNhMWr6rH3PQmPafzqJ/vBpvRf10/bjX5qM2KeOFvM2rSdzqP2kRzlHY2miUU7syadejpjXCv9vzb8SZwmP/+5EYQXIyOWj+MfhJcuJZuHZvfvHgzXPsmR9Otu2aUR10+zF6y4x1JPb0dHQbf/qogYv4inYY3174Xfn9yO/zt7Ji6ZWi8Hr4RRI7p8PGo1+wvi8KEiNJ51EfR/vQ43QjOrbOT9tLDWvGLSuHPr0UH1sL7REnFrH+S3CHm1b0kavuuGaVRVwzznVnU9wfJb1yzRSLl+GhasD093Q1mx9UKhlHU6Xe2U5WYZK+9QpgQUbqOOsxh0ySSrFyP0mNmyfp2dqjahBL+4pumgvSlpiD5yuSZYR6scNeM4j71/vzvZsOkg+znH37fEglv/bvd5L7vH+aNCoaTw8B+jNxj7kwXCBMiStdRJ9vbR+lm9zh3Yyd+QSnamD09jEsNCwrWzMZr+JO1aLP26W2z3jY/Wb8bH9A2v1q8a27ItJnJg734ztXDpELpw5/uzYaLfyO6FWwfTyem4Ve/mk4+zB7UMjRRR6M8GMSVR/eMvg63AcokCHFDx1Gn+7/xCnua2/6OV9mj7DhWnH3Uwb75Otv7Dh8iijR76WmSNFG8a0bhder96aJh0qhH+Yffyf9GdGsnvZG6R0ZFw+ie8c+Tc+iy/fn4NyuFCRGl46jTo2HhAp9sdh9lG8Cb+W8nvxl+e+4l7fge2bG2JJm5u2ZYUcdHtxYMM043JXIPv5n/jexW0u60sNee3Xn282zXIv9r1cKEiNJx1LndzmQ5ThbocbrG3Ex+M1zmN/M73zFf/uPP4vNHZoe8k9+Zu2tGbtf1wttfJfeoHCYWyT18fHP2GyXHA/K1Zoa5x0huHVl/oKqFCRGl26if7xaPbtkLvPVzu6X09aLkuJKdRPybc48dU1yPLh4m++uSizpUs6JORp6L2jKcizr3h6JUghA3dBt1/oi1te2alHIyKCzoubiiF4SDC5d+fvcouYO9Kp27a8Z81IuGqbOm3ox/UozaNlwWdbUwIaJ0G/VsT3V2mMhsf8+OOW9ad5i1NDaHnLMHWbT5XaB0TV01zApRFwwbbH4T4pJOo85vTJ8MZsebNo6P4h/kDh4V7mEVsuRAWYH5qKuHWXSgbEnUc4YlUSePaR6iWpgQUTqNepR/N0Xupeq1X+wmPzjKfqPQ0iyq5O3Y2etD6UtaxbvmRp07t6NymPxLWtlfk+T4+JKo5wznos6U49fkK4UJEaXLqGev8URki3hYw4X0B+kJGZP7A/Ot/JrabNw+vJHsjUfHmTaSs0Osk0/Su2aURF05zKKTT5avqW3DuaiTk0/SQSuFCRGly6jtzzEKF/FkUT7KHSjKvai8OS2soGfsTxeeJmqv90qirh4mO8Vt/jTRZfvURcO5qKtPE+WKmjiky6hH9nuZs83PcZD7Qbakm4NOs5ayM6lf/bDQxKtpPPZdc8OWrAerhpmdt/p58Q0dy6IuGs5HnY26XSZBiBs6jNre+jb5ZPvLuR+YtyOuXfx4mvwoOwp955Xw+69+PKtq9tbLzZK7ZpRGXTnM7P3U8fsiZ2+9XPqSVsGwJOr4Mdftd2LOCRMiCsBHBPO1IUKa4G3Us/XvyO3nGBICjsdRB2s3kzc68tgxIfXxNur8qdNcURNSH2+jzp07vfTz+QkhM/yNejq5cyGodyUdQsgMj6MmhLSBURPSMxg1IT2DURPSMxg1IT2DURPSMxg1IT2DURPSMxg1IT2DURPSMxg1IT0DLerHj7UNaoIiiuKJI6oPoxYCRRTFE0dUH0YtBIooiieOqD6MWggUURRPHFF9GLUQKKIonjii+jBqIVBEUTxxRPVh1EKgiKJ44ojqw6iFQBFF8cQR1YdRC4EiiuKJI6oPoxYCRRTFE0dUH0YtBIooiieOqD6MWggUURRPHFF9GLUQKKIonjii+jBqIVBEUTxxRPVh1EKgiKJ44ojqw6iFQBFF8cQR1YdRC4EiiuKJI6oPoxYCRRTFE0dUH0YtBIooiieOqD6MWggUURRPHFF9GLUQKKIonjii+jBqIVBEUTxxRPVh1EKgiKJ44ojqw6iFQBHd2trSVqgHygz1AEYtBIboVoy2Rh0wZqgXMGohMEQZdR9h1EJAiG5t4VQNMUP9gFELASHKqHsJoxYCQpRR9xJGLQSGKE7TIDPUCxi1EBiijLqPMGohQFKB8cR55vVh1CLgrAFBZiiQqD6MWgRG3TkwovowagmAjipjzNApkKg+jFoCRt09MKL6MGoJGHX3wIjqw6hFgGkaZYYCierDqEVg1J0DI6oPoxYCI2mgGQojqg+jFgJFFMUTR1QfRi0EiiiKJ46oPoxaCBRRFE8cUX0YtRAooiieOKL6MGohUERRPHFE9WHUQqCIonjiiOrDqIVAEUXxxBHVh1ELgSKK4okjqg+jFgJFFMUTR1QfRi0EiiiKJ46oPoxaCBRRFE8cUX0YtRAooiieOKL6MGohUERRPHFE9WHUQqCIonjiiOrDqIVAEUXxxBHVh1ELgSKK4okjqg+jFgJFFMUTR1QfRi0EiiiKJ46oPoxaCBRRFE8cUX0YtRAooiieOKL6dBn1Y0LA6TAHPbimFgJFFMUTR1QfRi0EiiiKJ46oPoxaCBRRFE8cUX0YtRAooiieOKL6MGohUERRPHFE9WHUQqCIonjiiOrDqIVAEUXxxBHVh1ELgSKK4okjqg+jFgJFFMUTR1QfRi0EiiiKJ46oPoxaCBRRlOtow8xQD2DUQmCIbsVoa9QBY4Z6AaMWAkOUUfcRRi0EhOjWFk7VEDPUDxi1EBCijLqXMGohIEQZdS9h1EJgiOI0DTJDvYBRC4Ehyqj7CKMWAkUUJGmcGeoBjFoIFFEUTxxRfRi1ECiiKJ44ovowaiFQRFE8cUT1YdRCoIiieOKI6sOohUARRfHEEdWHUQuBIoriiSOqD6MWAkUUxRNHVB9GLQSKKIonjqg+jFoIFFEUTxxRfRi1ECiiKJ44ovowaiFQRFE8cUT1YdRCoIiieOKI6sOohUARRfHEEdWHUQuBIoriiSOqD6MWAkUUxRNHVB9GLQSKKIonjqg+jFoIFFEUTxxRfRi1ECiiKJ44ovowaiFQRFE8cUT1YdRCoIiieOKI6sOohUARRfHEEdWHUQuBIoriiSOqD6MWAkUUxRNHVB9GLQSKKIonjqg+jFoIFFEUTxxRfRi1ECiiKJ44ovowaiFQRFE8cUT1YdRCoIiieOKI6sOohUARRfHEEdWHUQuBIoriiSOqD6MWAkUUxRNHVB9GLQSKKIrnFOU62h7AqIVAEUXxZNT1YdRCoIiieDLq+jBqIVBEUTwZdX0YtRAooiiejLo+jFoIFFEUT0ZdH0YtBIooiiejrg+jFgJFFMWTUdeHUQuBIoriyajrw6iFQBFF8WTU9WHUQqCIongy6vowaiFQRFE8GXV9GLUQKKIonoy6PoxaCBRRFE9GXR9GLQSKKIono64PoxYCRRTFk1HXh1ELgSKK4smo68OohUARRfFk1PVh1EKgiKJ4Mur6MGohUERRPBl1fRi1ECiiKJ6Muj6MWggUURRPRl0fRi0EiiiKJ6OuT+Oonwzfi/45+93B8PKPvu5eaAkwyyCKKIono65P06hfXI+jvjeMuCpgtBiYZRBFFMWTUdenadRhzFHUzw6ufBr+7/IHEk6LgFkGUURRPBl1fRpG/WT4fRP1PfP/J+5X1UDLIMZCCDRDtQ1gaBb1i+tXH0U5n9268pn58nXXe9Ugy+BWjLZGDUBmKKNuQLOo7135zESd1Jy0nfKYpCRRa2vUAMPycSTqYpRO49KiUdTPDt6bMuoabG2BVA2iGcGoa9Mk6rNbYcpJ1PHO9D0rahdgzPYsam2RZYBoRmBYekGTqB9FB7sXrKldwKi7BMUzAkLSDxpE/ezgnSmjrgdIK4y6lzSI+tEw4cpnPPq9BJBWGHUvaRc1X6deCkQpjLqXND73+1GSc7h//ewgPmXUJSBRg7TCqHtJy6h57vdiQFph1L2kbdR8l9YiYGIB0YzAsPQCvp9aAkbdPRiWXsCoJYCJGuSAXgSKpwcwahFgmkaZoYy6AYxaBEbdORBz0w8YtRAYSUPNUG0DGBi1ECiiKJ6Muj6MWggUURRPRl0fRi0EiiiKJ6OuD6MWAkUUxZNR14dRC4EiiuLJqOvDqIVAEYVpBUZUH0YtBIooTCswovowaiFQRGFagRHVh1ELgSIK0wqMqD6MWggUUZhWYET1YdRCoIjCtAIjqg+jFgJFFKYVGFF9GLUQKKIwrcCI6sOohUARhWkFRlQfRi0EiihMKzCi+jBqIVBEYVqBEdWHUQuBIgrTCoyoPoxaCBRRmFZgRPVh1EKgiMK0AiOqD6MWAkUUphUYUX0YtRAoojCtwIjqw6iFQBGFaQVGVB9GLQSKKEwrMKL6MGohUERhWoER1YdRC4EiCtMKjKg+jFoIFFGYVmBE9WHUQqCIwrQCI6oPoxYCRRSmFRhRfRi1ECiiMK3AiOrDqIVAEYVpBUZUH0YtBIooTCswovowaiFQRGFagRHVh1ELgSIK0wqMqD6MWggUUZhWYET1YdRCoIjCtAIjqg+jFgJFFKYVGFF9GLUQKKIwrcCI6sOohUARhWkFRlQfRi0EiihMKzCi+jBqIVBEYVqBEdWHUQuBIgrTCoyoPoxaCBRRmFZgRPVh1EKgiMK0AiOqD6MWAkUUphUYUX0YtRAoojCtwIjqw6iFQBGFaQVGVB9GLQSKKEwrMKL6MGohUERhWoER1YdRC4EiCtMKjKg+jFoIFFGYVmBE9WHUQqAsgyie3olOHrwxCIK1ize1ReZh1EL4tgxWgeLpm+j9sOiY9bvaLkUYtRCeLYOVoHh6JjoKY755PJ0+vTMIzn2ibVOAUQvh1zJYDYqnX6Ing2AnuXm6G2xqqpTAqIXwahlcAIqnV6KTw1zIY+9W1YxaCJ+WwUWgeHolejJY+2X2xfOf/Pw4SntnPAjWw29P7rwSBOffPo5/MQ7++W6wH/3OxvHn4b74q8J74YxaCJ+WwUWgeHolOgrrLHxrHFwKcw2/fZIcQTPZz0X9l/HP9kX1GLUQPi2Di0Dx9Er0aH43ehwWfXf6ZZTv+s3p9Is9s1FejDoIto+np3vCG+yMWgiflsFFoHh6JXqUHSbLCIPdj/4dBVnGOyVR78x+JgejFsKnZXARKJ5eiaZRh3UadrLDZZPDtNdRvC1uR52soUs237uEUQvh0zK4CBRPr0TTzW8ratNpXG+EKXj+QNnsZ3IwaiF8WgYXgeLplai1po1XznNRm54rok6/LQSjFsKnZXARKJ5eiVovaVVEzTV1bRh1x6B4eiVqnXxiRV2xT30y4D51NYy6Y1A8/RINI30tzfLBIBf13NHveJU+ClCPfj92wNaWi1E6AEUUxdORaN1l/X4QnL/2VfQGzL0gWPubWdTJ69QP4teio6/uTicfBmnU0d8Cvk5dwKu/14tAEUXx9E30ZC9962V0Pol1ECx3Rlm0io74k2Sfen0v9zMxGLUQKKIonv6JPrgR5Xvx7fTYV7qbnD/326yyw1V3dqDsD7cHwdq25A71lFGLgSKK4okjWs1Y9vhYBqMWAkUUxRNHtBpGXQ7MU4siiuKJI1qNbtTRh6qd++T5T7z79CWcpxZFFMUTR7Qa1ahPo2N0YdTCL6e1AeapRRFF8cQRrUYz6ujFtb8O19ST29LH3psD89SiiKJ44ojqUxb1KNgMw45eHy95M7gyME8tiiiKJ46oPiVRTw7D9XMc9cnAzfZCfWCeWhRRFE8cUX1KojY9x1HH//cJmKcWRRTFE0dUH0YtBIooiieOqD6lm9/BfpKzq8N19YF5alFEUTxxRPUpP1C2cWyiPvXvNS2YpxZFFMUTR1SfBS9p/eKGh5cJgnlqUURRPHFE9ak++cTBW8RaAPPUooiieOKI6lNxmuj9C0Hu7WMeAfPUooiieOKI6sM3dAiBIoriiSOqD6MWAkUUxRNHVJ9FUX/lzKI+ME8tiiiKp+eiXtmVRj258x/MmSdr/u1UezXzFoEiiuLpuahXdmVRTw7TT0L07twTv2beIlBEUTw9F/XKrvzkk7Vr5sb9AU8+aQuKKIqn56Je2VWdJhrD00RbgyKK4um5qFd2VW/omLvpCV7NvEWgiKJ4eie6tRBVtdKosxPJhK/O1wLfntpKUERRPH0TXdy0d1FHn3dynN1yKVMDz57aalBEUTx9E93a+tdqPIz6ZBCcf/vjLx/+es+/k789e2qrQRFF8fRNFC3q6Kh38oaOa659luHZU1sNiiiKp2+icFFPn0aXAwpX1/6dU+bZU1sNiiiKp2+ijaMen38r/Rj905++sl/ykCeDzenk0JwishdU7PgeJdvO0e9WwnO/hUARRfH0TbR51LNTuY6C7EXjPLOow1+oOEOEUWuCIori6Ztom6iTIJ/vXqiM2hCWXXUsa5WoJ18m+LYB7tlTWw2KKIqnb6Itor40iNe+o3N/tSzqynO+2kedHSgLvPs8I8+e2mpQRFE8fRNtEfVrcauTw82RiXoyu1b16RtBsP1Fsvk9jsLbuB9vgJ8MrO3w1lGPg4BRrwqKKIqnb6KNTz4ZBzsjU+TJYN9E/Tz+0LB1c9GM6NYlK+rf75o/ASP7VeW2UUdv0nrfs1O+Mzx7aqtBEXXouaQDaZxOzPwdwqjjte7o3Ccm6qNg4+709DA6zH0UhCvscPs4OVAWb36bfotb4kfZ6naz2m3xaaL+gdIKjKg7TyflNupstalpvPm9YwoNt76no+yT9c0/ydWtRnbU5k9AYet7hah92+bOgdIKjKjLqP+nIj5Ebbalx2HQUdTpBnS4Qh6nu89W1Ob/ha3vFTa/uaZeHRRRRt12alpEHf13FFZbK+oo6Lnj4K0PlI28+2iEGSitwIgy6rZT0yLq57sbv9/dnNaMOtz0Lm59t496chi85tvr0ykorcCIMuq2U9Mi6rDJn0XHyAr71M93y/apo38+LG40t406+mwyvqS1KiiijLrt1LSJehwXNX/0e/N4+qBw9Dv87bVXimehMGpNUEQZddupaRN12NbmNIk66Sz9jM/Z69RZ1M/nL1DZevP76ZczfNsMR2kFRpRRt52aNlGH6+T9aRK1dUbZjSDYLu5Tlx2y5hs6NEERZdRtp0b+RfFkX7sxjFoIFFFG3XZqxKOe3C5938dyKqJONr4/+vWfcp+6HSiijLqjiev6ESeHyRuw82/F2K9119KoP+e7tFYGRZRRdzRxnT/kUbBuPiqlm6hzj5Lsx/sDSiswooy6o4kTffhmlH9E8PrHD/fW3n946N+pZV7NvEWgiDLqjiZO9OGbUf469X587N3Ds8C9mnmLQBFl1B1NnOjDN6PyXVqj+ASYTedGi/Fq5i0CRZRR94/KqE3PbV8okwPmuUERZdT9o/Ktl+aN2/69tRrmuUERZdT9o/xA2U6yvuYF8lqDIsqo+0fFtbQ2jieHwfbDQ16fui0oooy6f5SefDKKzjkZN3i12x0wzw2KKKPuHxXX0vp1uIJ+sMcL5LUHRZRR9w++oUMIFFFG3T8YtRAoooy6o4kTffhmLH6XFj8koTUoooy6o4kTffhmlEZ9mx9ntDIoooy6o4kTffhmlH9EMKNeGRRRRt3RxIk+fDPKr6Xl26vTM7yaeYtAEWXUrSfH3TV+GsJraQmBIsqo204NWNS+bXPnQGkFRpRRt52a/1iNf1FnH0PqIyitwIgy6rZTgxW1f2+4nIHSCowoo247NVhRT092g0tvxrzlWd4orcCIMuq2U9Mw6vH5t+4mN09/+sp+yUNmH+Y/fb5Xdf3pcZ13Y1RcII8vaa0Kiiijbjs1TaMOsheVjsrfKDWLOrq0fPnHA7aOOnzItYtcU68Giiijbjs1zaNOjlU9371QGbUhLLvqqFbbqEsuy+UPKK3AiDLqtlPTOOpLycWmR+f+alnUlQe12kddtc199qvh8Fs/jm/+7mB4+UdfLx+gY1BagRFl1G2npnHUr6WXnd6cv0DeG0Gw/UWy+W0+yWDjfnol+h37UfaXu5WeUVYR9Yt3hxHvRLfvmZtXlw/QMSitwIgy6rZT0/Dkk3GwMzLb3yeD/fhStnvmqNX6J+azhnKXso2j/n1yJXr79eXW+9Sjijs+Gl79evpPB5c/mE6fHVz5NPxfdNMtKK3AiDLqtlPTPOp4rTs698n8RefDFfb9wkXnzekixS3x1lFPb5d+4snZrSufTaO034tW1OH/pk/cr6pRWoERZdRtp6bx5veOKTTc+jarzWQvN/rHfHJvtDK1ojZ/Agpb3+33qd94JVr/XzBcnNsSj6JO+n5x/XXXe9UorcCIMuq2U9M8arMtHWUZRZ0eFgtXyON099mK2vy/sPW9ytHvBa9T//EgDDmpOWk75bEDtrZcjJIMpYqzqXQ00GPtqGtJLi8moVXU0X9HYVK1oo6CnjsO3vpA2T9+NON/2I/5aDh8/bPpSxG1ctOMuodRP9/d+P3u5rRm1OGmd3Hru/0+9YO7Jd+MefT9sOpoTR3vTN+zonaBy63FBc+aOM6mk5vfbaem4bNnyj1a+1lUZWGfOnmzRWGfOvrnw+J7q9q/pLXoXVpnvx1erVhTu4BRdz6ZjgZi1OaKk0F89cn9wtHvzePpg8LR7/C3114pnoXS/cknhqhkRi0No+5l1M93zRs14tepd7OjVvHNS4XN77JzO8fpwa79BW6N19Rmm/tlOPrNqDsfiVGby76nZ4Lkzyi7EQTbxX3qshLbRh3uoK/dLPlo4CThF9fDoF+C16kZdecj9SvqhXQyRtsPNihbU//0u+Uvad2Lzij75lZU8pPh5Q+mzw5M2k5h1J1PpqOBGHVTJrdbXsquyevUL66bE77N+rr/534z6s5H6lPUcxPX9SNGn2pgVtTjXI77te5atvn99Msvy6/Q8c2vhsPLPzC70f1/lxaj7nwkXYQnrvOHPArWzWvL3UTtM4y688l0NBCjdgajrh6JUXc8EqN2Q3nUkwdvDIK1izc9+yyjKaMWmExHAzFqZ5RGfbqXbML79wHgjLrzyXQ0UL8PlHlF+ed+B2uvfvTRRzcG3n2YKKPufjIdDcSonVH+ySfn4rd0nPr3EYSMuvPJdDQQo3ZG+VUv95ObY++uf8moO59MRwMxamcsfkOHf9fKY9SdT6ajgRi1Mxh19UiMuuORGLUbuPldPRKj7ngkRu2GigNl8frZw2t1MOrOJ9PRQIzaGVUvab398ZcP7/AlLUbd5Ug9jtqrvxnll7Id8OQTRt39SIzaDRWnid6JPvr7/Nue7VBPGbXAZDoaiFE7w456cjj/4f1+wag7n0xHAzFqZ9hRm5ew/HsdKwej7nwyHQ3EqJ1RjDrci2bUyUiMuuORehW14lvCllHc/A7Ov/ndwdqlN1Pe8my3mlF3PpmOBupZ1Jrv81xG4UBZ/qNTyq+lpQyj7nwyHQ3Uu6j/fTV+RT19+FOuqdORGHXHIzFqNzS/QocujLrzyXQ0EKOent4YBMHadv7DPM2H91d+meMoOWckva7eIsrO/W75EeJOYNSdT6ajgRj158k5XWvXZt9zFvWSy+6owqg7n0xHA730UY+DIFpJP71d95N+LVaMmpvfyUiMuuORXuqozcvFhpNBi8C4pu5mJEbd8UgvddSj2Tsezc3RuX/YC869b7a3T/eCte+l18ebHG58EX1t333FqKsukOcFjLrzyXQ0UO+ibvg69dFsVWnCHJ37ThBs/CGKOn4D1aUs6njXe6f07m3X1FUXyPMBRl0iqkt9z5c56vwhMHM1y5F5D2RS8fbx9H4QZFFv3J18WPh8kqMsyc2lbk0ukOcDjHreU5n6ov2Kutnmd/6ytCbweHM8unkyMD8aZVFHtRcvY7ti1NUXyPMARj3vuWDpkodR15sp6YXks9vJhefDiuPL0U9n+9TRmnQu6hX3qX2GUc97Ogu45vJbKfpyR53fp2bUeRj1vKezgGsuv5WiL3PU80e/XUcdXSDv3CfPf3K37iQ6g1HPezoLuO7yWyX6UkddfJ16FvXcPrVI1OYCeWHU/n2YKKMu8XQWcN3lt0r0pY66eEbZLOrJYfDa8fT+QDTqMOb1vw7/mkxu+/fJg4x63tNZwLWX3wrRlzvqKNv43G9zXsks6uyDPiWjjrYD4nNFj2ocP3cLo573dBZw/eW3XPQljzpcSYf1nk/epZWL2mwar//9YEcuanOcLo462dr3CEY97+ks4AbLb6lov6Lu5MX7HOPOdnar3tARR+3fezsY9bwno8aO+mQQXTr6dK+zfV1GXT0So2bU9Seu/X3Tk723C9/Pf7bYfpMHrLpAXpwzL5DHqBl1vYlb4c4Ts699rfjtLqMOd+E3jk3Up/69psWo5z0ZNXjUXbPgJa1f3OAF8hg1o645caIP34zqk094gTxGzajrT5zowzej4jTR+xd4gTxGzagx4Rs6qkdi1IwaEkZdPRKjZtSQzEU9efDmm2/d1FCpBaOe92TUjNqiGHVybvm6f2+6jGHU856MmlFbFGWyQWYAABIMSURBVKKOmr705nf9+2yyFEY978moGbVFIepRfAqZh2edJDDqeU9GzagtitenTl6Z9u/80ARGPe/JqBm1hR119gaOVlcGcQGjnvdk1PpRe/U3oyJq/96elcCo5z0ZNaO2YNTVIzFqRl1/4kQfvhmMunokRs2o60+c6MM3g1FXj8SoGXX9iRN9+GYw6uqRdKnvyag1ou7m2RNhLuqPzSW0HqY3ur+WlpskVp/dOJ4wUWPM0E6mptvBGlKMOijQ+QrbyfPXxezG8WTUnc7QulPjcrOgGQpR/6sm/VsGYaJeEa/2WpGidgBQ1DxQxqgraRP16Y1BEKxt53dp89ein/8yx7jBZw8y6mpRRs2oK2kR9efpZXdynxvKqBl1qSejVqB51IUL5DWEUTNqRi1M46iLl7JtCKNm1IxamMZRz110/tw/7AXn3k8vkLf2vdlF5ze+2EsujTmDUTNqRi1M49cujmaft22uXDk6950g2PjD7FK2l7Ko411v+xMNGDWjZtTCNI06fwjMXKZ2ZD5VP6l4+3h6f3Z96mDj7uTDwicaMGpGzaiFabr5nb/etAk83hyPbiYXjB5lUUe1F69PzagZNaMWpmnU4Z7ysXV7dtH55MLUs33qsovOM2pGzaiFaR51fp+aUTPqxZ6MWoHVj35jRP24DupR17I0orpR1/dUjrqu6Iq4Gaj2wr7y69SzqOf2qX2KuhbqUdcX1Y26vqdy1O2Wg8agr6mLZ5TNop4cBq8dT+8PGDWjzjwZtQItzv2+n577bc4rmUWdXhZnSdQJ+8vdGHW1KKNm1JW0eZfW09thveeTd2nlojYXhF//+8EOo2bUiSejVqCjd8PnGHd2VRxGXS3KqBl1JR1GfTI4dzdaW89e81oRRl0tyqgZdV1WsUtP9t4ufD/b4q630T2DUVeLMmpGXZeV7CZmX/ta8duMmlEzakW8smPU1aKMmlHXxSs7Rl0tyqgZdV28smPU1aKMmlFDwqirRRk1o4aEUVeLMmpGDQmjrhZl1IwaEkZdLcqoGTUkjLpaVJf6noyaWDDqalFGzaghYdRi0+lsIEZNLBi12HQ6G4hREwtGLTadzgZi1MSCUYtNp7OBGDWxYNRi0+lsIEZNLBi12HQ6G4hREwtGLTadzgZi1MSCUYtNp7OBGDWxYNRi0+lsIJCzZFaeTkcD4cOoxabT2UCMmlgwarHpdDYQoyYWjFpsOp0NxKiJBaMWm05nA/FAGbFg1GLT6WwgRk0sGLXYdDobiFETC0YtNp3OBmLUxIJRi02ns4EYNbFg1GLT6WwgRk0sGLXYdDobiFETC0YtNp3OBmLUxIJRi02ns4EYNbFg1GLT6WwgRk0sGLXYdDobiFETC0YtNp3OBmLUxIJRi02ns4EYNbFg1GLT6WwgRk0sGLXYdDobiFETC0YtNp3OBmLUxEIhar6nv+OBGDWxYNRi0+lsIEZNLBi12HQ6G4hREwtGLTadzgZi1MSCB8rEptPZQIyaWDBqsel0NhCjJhaMWmw6nQ3EqIkFoxabTmcDMWpiwajFptPZQIyaWDBqsel0NhCjJhaMWmw6nQ3EqIkFoxabTmcDMWpiwajFptPZQIyaWDBqsel0NhCjJhaMWmw6nQ3EqIkFoxabTmcDMWpiwajFptPZQIyaWDBqsel0NhCjJhaMWmw6nQ3EqIkFoxabTmcDMWpiwajFptPZQIyaWDBqsel0NhCjJhaMWmw6nQ3EqIkFoxabTmcDMWpiwajFptPZQIyaWDBqsel0NhCjJhaMWmw6nQ3EqIlFo6i/+Yvh8PIPvo5unv3uYHj5R183H5BRdz4QoyYWTaJ+djCMeD1K+Z65ebX5gIy684EYNbFoEPXZreEPv55+8+7wnajvK5+G/7v8QeMBGXXnAzFqYtEg6hfXzYr52cHVaEX9XnjzSYtVNaPufCBGTSyaHyh7cf31r89uXfksudn07oy684EYNbFoHnW0ek5qTtpOeVwH9ahrWa6Ow4GUo3Y2nS5G6SwsTRpHfXYr3JFm1DWm09lAjLo7uitLkcZR34uOkyW719N7VtS1UI+6qXBLHA7EawMTi4ZRn90zx8bK19S1YNSdD8SoiUWzqM9uDc25J4y6xnQ6GmhFUDxxRPVpdkbZ9Wjbe5rVzKPfi6bT0UArguKJI6pPk6hfXL/84+QmX6dePp2OBloRFE8cUX2aRB2XbHgyvPxBdNroe4t+vxRG7Rconjii+jSIOjn1Oz75m+d+L51ORwOtCIonjqg+DaJ+MsxFzXdpLZ1ORwOtCIonjqg+fD+12HQ6GmhFUDxxRPVh1GLT6WigFUHxxBHVh1GLTaejgVYExRNHVB9GLTadjgZaERRPHFF9GLXYdDoaaEVQPHFE9WHUYtPpaKAVQfHEEdWHUYtNp6OBVgTFE0dUH0YtNp2OBloRFE8cUX0Ytdh0OhpoRVA8cUT1YdRCoHyIBkwrKDPUAxi1ECjLIKPuH4xaCJRlkFH3D0YtBMoyyKj7B6MWAmUZZNT9g1ELgbIMMur+waiFQFkGGXX/YNRCoCyDjLp/MGohUJZBRt0/GLUQKMsgo+4fClG/HBeUQFkGGXX/YNRCoCyDjLp/OI96RbgMdgxnaP9g1EKgLIOcof2DUQuBsgxyhvYPRi0EyjLIGdo/GLUQKMsgZ2j/YNRCoCyDnKH9g1ELgbIMcob2D0YtBMoyyBnaPxi1ECjLIGdo/2DUQqAsg5yh/YNRC4GyDHKG9g9GLQTKMsgZ2j8YtRAoyyBnaP9g1EKgLIOcof2DUQuBsgxyhvYPRi0EyjLIGdo/GLUQKMsgZ2j/YNRCoCyDnKH9g1ELgbIMcob2D0YtBMoyyBnaPxi1ECjLIGdo/2DUQqAsg5yh/YNRC4GyDHKG9g9GLQTKMsgZ2j8YtRAoyyBnaP9g1EKgLIOcof2DUQuBsgxyhvYPRi0EyjLIGdo/GLUQKMsgZ2j/YNRCoCyDnKH9g1ELgbIMcob2D0YtBMoyyBnaPxi1ECjLIGdo/2DUQqAsg5yh/YNRC4GyDHKG9g9GLQTKMsgZ2j8YtRAoyyBnaP9g1EKgLIOcof2DUQuBsgxyhvYPRi0EyjLIGdo/GLUQKMsgZ2j/YNRCoCyDKJ44ovowaiFQlkEUTxxRfRi1ECjLIIonjqg+jFoIlGUQxRNHVB9GLQTKMojiiSOqD6MWAmUZRPHEEdWHUQuBsgyieOKI6sOohUBZBlE8cUT16TLqxw7Y2nIxCnlZ6TAHPbimFgJl+UDxxBHVh1ELgbIMonjiiOrDqIVAWQZRPHFE9WHUQqAsgyieOKL6MGohUJZBFE8cUX0YtRAoyyCKJ46oPoxaCJRlEMUTR1QfRi0EyjKI4okjqg+jFgJlGUTxxBHVh1ELgbIMonjiiOrDqIVAWQZRPHFE9WHUQqAsgyieOKL6MGohUJZBFE8cUX0YtRAoyyCKJ46oPoxaCJRlEMUTR1QfRi0EyjKI4okjqg+jFgJlGUTxxBHVh1ELgbIMonjiiOrDqIVAWQZRPHFE9WHUQqAsgyieOKL6MGohUJZBFE8cUX0YtRAoyyCKJ46oPoxaCJRlEMUTR1QfRi0EyjKI4okjqg+jFgJlGUTxxBHVh1ELgbIMonjiiOrDqIVAWQZRPHFE9WHUQqAsgyieOKL6oEUN89SiiKJ44ojqw6iFQBFF8cQR1YdRC4EiiuKJI6oPoxYCRRTFE0dUH0YtBIooiieOqD6MWggUURRPHFF9GLUQKKIonjii+jBqIVBEUTxxRPVh1EKgiKJ44ojqw6iFQBFF8cQR1YdRC4EiiuKJI6oPoxYCRRTFE0dUH0YtBIooiieOqD6MWggUURRPHFF9GLUQKKIonjii+jBqIVBEUTxxRPVh1EKgiKJ44ojqw6iFQBFF8cQR1YdRC4EiiuKJI6oPoxYCRRTFE0dUH0YtBIooiieOqD6MWggUURRPHFF9GLUQKKIonjii+jBqIVBEUTxxRPVh1EKgiKJ44ojqw6iFQBFF8cQR1YdRC4EiiuKJI6oPWtSEkCUwakJ6BqMmpGcwakJ6BqMmpGcwakJ6BqMmpGcwakJ6BqMmpGcwakJ6BqMmpGcwakJ6BqMmpGf4EvWTb/3nT5Ob3/zXP3uv5DeeHVydnt268tl0+uLd4fBq6aPcu/xB9rtSdGP6ZFh2z+755lcHw+HlH/zf3Lditaovc7iYmzNWMXU1N0HwJurh8PWv45v3hqVP0SyV8BeG75Q+ipOoOzF1tBj+nzCUiMs/nn3Pz6hXMmXUFh5FnSxCL65/vzIVQ/jcflDxKI6i7sDUzWIYukarvn/7TflfnyW4jHo1U0Zt4U/Uf34Qr9MeXfnbZamka8o53ETdhamTxfDF9WR+hEpVK7kFOIx6RVNGbeFP1D+MCzi7dfWReYrOfnMQ7mKZKL75i/Dv+D8nG7VPoo201/8Yb9Y+O7C2bt1E3YWpk8Xw0Wzb39x8dOV/vzu88t/MVuw37w4v/5d0RyH86/PP0df23R1GvaIpo7bwJ+p3Hpll6NnBeyaV6BhTyLc/i74V3fpzK5V/uW7CenTZ2r51E3UXpk4Ww3uzMc0ceXTlP4VC/y9KxTY9uxXv0L5TencHUa9oyqgtPIo6Xpc9uvKZSeXe8PVPp9/cig4e3xuGq8E/HgyTw0/xRq1ZDIrbt/eGKaJRd2DqYjHMH1h6Ef1peTSMVUwbkelwmKXy+qdnvx26n5vdmDJqC4+iNst9uE07jVJ5cd08zdE/zw7iVZ2digmrsE3rKuoOTF0shi+uzxZ94xNv5EY3C6Znt6KG8r8f4S7qVU0ZtYVHUZst1OjpiVJJN/nC1dyTdKfUSsX8v7BN62rzuwNTN2vqfCpm/WcOAZg9A8s0eVW9GLWzze9VTRm1hU9RR//dM3+ma6QSZTJ3dNlV1Kubuok6v6fqd9SrmTJqC5+iDp+qf7keHSWplUq4QVvcpnUW9eqmOke/fY16VVNGbeFT1OFS9HfRs1PYU02ewcKeavTPbwvbtM6iXt1U5XXqWSpze6rKUa9oyqgtvIr6yXCYPaPWMeWrX0//qXBMOfzty39WPLfDWdQrm6qcUTZL5ezW8Ie54/TqUa9oyqgtvIr6xXVznDV+9fe6Oe4aP4X5VyqzVMJvF8+rdhb1yqZP0gPLskvjH9Mzqs3ZGrNUkld/h95EvZqpo7mJgldRh2u63J/p3Hlavwr/jhf3VK2jKwnOol7Z1NVi+G+h2/BbyXufcqlE52kNv/2/wl19T6JeyZRRW/gSdQuKz6y/eGv6pOI9ZP6BY+oBuFGf/Qbl77KHps8OrnwarQPntiC8A8fUH1Cjjs4BNqu/bMvL140vL03TU6h/UPi+T44xOKb+gBp1uFP7bfMBJP4/uV6anpk92B8Xv+2VYwyOqTfARk0IKYdRE9IzGDUhPYNRE9IzGDUhPYNRE9IzGDUhPYNR+8XkwRuDIFi7eFNbhODCqL3iflh0zPpdbReCCqP2iVEY883j6fTpnUFw7hNtGwIKo/aIk0Gwk9w83Q02NVUIMIzaHyaHuZDHXFWTljBqfzgZrP0y++L5T35+HKW9Mx4E6+G3J3deCYLzbx/HvxgH/3w32I9+Z+P483Bf/FXuhRMDo/aHUVhn4Vvj4FKYa/jtk+QImsl+Luq/jH+279qYeAmj9oej+d3ocVj03emXUb7rN6fTL/bMRnkx6iDYPp6e7nGDnRgYtT8cZYfJMsJg96N/R0GW8U5J1DuznxHCqP0hjTqs07CTHS6bHKa9juJtcTvqZA1dsvlOXkYYtT+km99W1KbTuN4IU/D8gbLZzwhh1P5grWnjlfNc1KbniqjTb5OXHEbtD9ZLWhVRc01NlsKo/cE6+cSKumKf+mTAfWoyD6P2iDDS19IsHwxyUc8d/Y5X6aOAR7/JPIzaJ+4HwflrX0VvwNwLgrW/mUWdvE79IH4tOvrq7nTyYZBGHf0t4OvUJIFRe8XJXvrWy+h8EusgWO6MsmgVHfEnyT71+l7uZ+Slh1F7xoMbUb4X306PfaW7yflzv80qO1x1ZwfK/nB7EKxtc4eaGBg1PGMeHyMWjBoeRk1sGDU8jJrYMGp4GDWxYdTwMGpiw6gJ6RmMmpCewagJ6RmMmpCewagJ6RmMmpCewagJ6RmMmpCewagJ6RmMmpCewagJ6RmMmpCe8f8BEKwk0QIhdu4AAAAASUVORK5CYII=;" parent="CiWgiKEQsSCrlubR7PXY-9" vertex="1">
          <mxGeometry width="162.5" height="118.35653497153807" as="geometry" />
        </mxCell>
        <mxCell id="CiWgiKEQsSCrlubR7PXY-8" value="" style="group" parent="CiWgiKEQsSCrlubR7PXY-9" vertex="1" connectable="0">
          <mxGeometry x="1.8317082793213961" y="10.769230769230768" width="83.60832440962632" height="33.38461538461538" as="geometry" />
        </mxCell>
        <mxCell id="CiWgiKEQsSCrlubR7PXY-6" value="&lt;font size=&quot;1&quot;&gt;*&lt;/font&gt;" style="text;html=1;align=center;verticalAlign=middle;whiteSpace=wrap;rounded=0;container=1;" parent="CiWgiKEQsSCrlubR7PXY-8" vertex="1">
          <mxGeometry x="28.657076029983667" width="54.95124837964266" height="32.30769230769231" as="geometry" />
        </mxCell>
        <mxCell id="CiWgiKEQsSCrlubR7PXY-7" value="&lt;font size=&quot;1&quot;&gt;*&lt;/font&gt;" style="text;html=1;align=center;verticalAlign=middle;whiteSpace=wrap;rounded=0;" parent="CiWgiKEQsSCrlubR7PXY-8" vertex="1">
          <mxGeometry y="1.0769230769230769" width="54.95124837964266" height="32.30769230769231" as="geometry" />
        </mxCell>
        <mxCell id="V1H4tHCDxBhfa8CFtdOd-5" value="&lt;b&gt;E&lt;/b&gt;" style="text;html=1;align=center;verticalAlign=middle;whiteSpace=wrap;rounded=0;" parent="CiWgiKEQsSCrlubR7PXY-9" vertex="1">
          <mxGeometry x="-23" width="60" height="30" as="geometry" />
        </mxCell>
        <mxCell id="V1H4tHCDxBhfa8CFtdOd-6" value="&lt;b&gt;F&lt;/b&gt;" style="text;html=1;align=center;verticalAlign=middle;whiteSpace=wrap;rounded=0;" parent="CiWgiKEQsSCrlubR7PXY-9" vertex="1">
          <mxGeometry x="90.44" y="-1" width="60" height="30" as="geometry" />
        </mxCell>
        <mxCell id="CiWgiKEQsSCrlubR7PXY-13" value="" style="group" parent="CiWgiKEQsSCrlubR7PXY-18" vertex="1" connectable="0">
          <mxGeometry x="130" width="130" height="118.46153846153845" as="geometry" />
        </mxCell>
        <mxCell id="CiWgiKEQsSCrlubR7PXY-2" value="" style="shape=image;verticalLabelPosition=bottom;labelBackgroundColor=default;verticalAlign=top;imageAspect=0;image=data:image/png,iVBORw0KGgoAAAANSUhEUgAAA9QAAALOCAMAAAB/MKv/AAABmFBMVEUAAAAAADoAAGYAOjoAOmYAOpAAZrYAv8QzMzM6AAA6AGY6OgA6Ojo6OmY6ZmY6ZpA6ZrY6kJA6kLY6kNtNTU1NTW5NTY5Nbm5Nbo5NbqtNjshmAABmOgBmOjpmOmZmZgBmZjpmZmZmZpBmkLZmkNtmtttmtv9uTU1ubk1ubm5ujo5ujqtujshuq8huq+R8rgCOTU2Obk2Obm6Ojk2OjquOq8iOq+SOyOSOyP+QOgCQOmaQZgCQZjqQZmaQkDqQkGaQkLaQtpCQttuQtv+Q27aQ29uQ2/+rbk2rjm6rjo6rq26rq46r5OSr5P+2ZgC2Zjq2kDq2kGa2kJC2tma2tpC2tra2ttu229u22/+2/7a2///HfP/Ijk3Ijm7Iq27Iq47IyKvI5P/I/8jI///bkDrbkGbbtmbbtpDbtrbb25Db27bb29vb2//b/7bb/9vb///kq27kq47kyI7kyKvk5Kvk5P/k/8jk/+Tk///r6+v4dm3/tmb/yI7/25D/27b/29v/5Kv/5Mj/5OT//7b//8j//9v//+T///+sg7xRAAAACXBIWXMAABkRAAAZEQGQh6VoAAAgAElEQVR4nO2di3/c5nVgQb2WXFmyao7USKK3sV2LTet45e5mY6ZKkyoPZR+m7Gy9Vr10s1qPpVpOQjXb7UrLh6lKw/m3i+cAg5kBgZl7MfeC5/x+lsnhA2cIHuLDB2AQDAGgUwTLFgAAWYgaoGMQNUDHIGqAjkHUAB2DqAE6BlEDdAyiBugYRA3QMYgaoGMQNUDHIGqAjkHUAB1DLeqDteD8rtY3b7DQbz95LQiClct323YBWBJqUffDkn6p9c1rL/TwTpBx7kHbNgBLQSvqwVbY0brSN6+90HDLnbNyq2UdgKWgFfVesHIxOPO50nevudC46dc/G0aD8PDNtnUAloJW1NvBmf8eBC1vG0sLjTbco0F39M6FdnUAloJS1C9vBhei/3S+e82F7o1tnMOPtL+TD9A+SlHvRRvM7ayifr75DEfE8U7v4Z1wPHz2nWSqOuzt1uBOEFyKNqtPoo8Er72bzWLHn3npbrilTSe2x7509kLjbXNxqNAPLv1M+nkC2EMp6u1oG7mXzVoVNp/9pLn+2ORV+PF3ozmu8GsGo+nqc5+nX5Dw+kYadX/mvNf4QqPvyl40nEJ0og63xxfiqtKN63aWV7q97edT0lHi4Se+Fb1zIfrMEfHfgb3C9HX8zUpfWrHQPXai4VSiE3U63t7Oxr97hTfWk1np18Oh9uFWUmoYYrASnx0SfmQlGnh/ez/ZH44+Es11PdlIoy5/afVC2z6mBmAAlaiz/d9k2zksjL+TTXZ/tA1NCozSTUIc7X2H3yLaEkdb2930/WwbP/alFQvtEzWcSlSizmbDws7SYff2aJx9ofhw+pnT9n6Tr8invZIzQCe+tGKhRA2nE5WoCzvGaVdpcXvZhjnb2Q0LHNsPTvjmH36yEe8z51Pe6edMfGnFQtmnhtOJRtTRaHp8diurc3u0ozz2CcWokyNa6UTYeMPJZ05871kLXcolJQBLRyPq4ox1fqg6b3TsjOxS1Pejh167/NMH2+kXZB9Iop740oqFlgf1g61LUw5uA3QNjajzHeF8Xisef6eT4BOnmo0dhrqym3+TquH3yQvdnri6g+E4nAIUoi4OpsOQkq1lnOd28oHCbFfpK/KI09nviomykxc6fppo+QQzgI6iEPXYrHPhqPHKz2+mH8g3oaUTRvI00yujR5Nd2SGt8pdWLXTigg52seE0IB91uo1NGVUZ9vpa9oHsDJLBo7X4oeKWOh5+P7mT7hhH01/no3NNyiefZF9audDSpZdczwGnAvmoxyed82ujtgszW/m5nnF9YxvonGhrW3GaaHFDPWOhe2vl7wfQeeSjLp3zMRovR3muFz4pIZ4Wy6OOX7sk4vWP088eXdCR7W6Pf+kJC4238Ann2E7D6UA86vGBcNzyaH+58IH4+smVS58N0w+Njlx9cjF8PBwyj+a580svL0z50hMWGo3kL0ZD+Uu88CCcFty8RHDrL7kA4BTjUfdHW2DO5Aaoh/mog5W76aWYTF4D1MF41MUzutlQA9TBeNSFk72vLFsFwAfWox4O4tvmnH2d+2sA1MN81ADQDKIG6BhEDdAxiBqgYxA1QMcgaoCOQdQAHYOoAToGUQN0DKIG6BhEDdAxfEb9/PmyDWqBpiRONA1A1IqgKYkTTQMQtSJoSuJE0wBErQiakjjRNABRK4KmJE40DUDUiqApiRNNAxC1ImhK4kTTAEStCJqSONE0AFErgqYkTjQNQNSKoCmJE00DELUiaEriRNMARK0ImpI40TQAUSuCpiRONA1A1IqgKYkTTQMQtSJoSuJE0wBErQiakjjRNABRK4KmJE40DUDUiqApiRNNAxC1ImhK4kTTAEStCJqSONE0AFErgqYkTjQNQNSKoCmJE00DELUiaEriRNMARK0ImpI40TQAUSuCpiRONA1A1IqgKYkTTQMQtSJoSuJE0wBErcjq6rINauHkp+lE0wBErQhRS+JE0wBErQhRS+JE0wBErQhRS+JE0wBErQhRS+JE0wBErQhRS+JE0wBErQhRS+JE0wBErQhRS+JE0wBErQhRS+JE0wBErQhRS+JE0wBErQhRS+JE0wBErQhRS+JE0wBErQhRS+JE0wBErQhRS+JE0wBErQhRS+JE0wBErQhRS+JE0wBErQhRS+JE0wBErQhRS+JE0wBErQhRS+JE0wBErQhRS+JE0wBErQhRS+JE0wBErQhRS+JE0wBErQhRS+JE0wBErQhRS+JE0wBErQhRS+JE0wBErQhRS+JE0wBErQhRS+JE0wBErQhRS+JE0wBErQhRS+JE0wBErQhRS+JE0wCNoj7+zWbv6g+eFR74InzgvWezv0IJJ+uXqCVxommARlHv9CJujN4/vhc/cL31qp2sX6KWxImmAZpEfbR57WH4z9WPsgf2e995OHxxu/ehglglTtYvUUviRNMATaLeievdzzfVT9MH3hfXOgEn65eoJXGiaYAGUR/fu/Zl+L9Xt0fDbaKuhqglcaJpgAZRpzWnbUccbUbD7w/y8XjEc8hYXV22ATRErqwlslDUwz9s9nq9qz8c+7RlrxZDELU7pLpaKo2iTnamd0ZRH38Rz36/J691Ak5++Ay/JXGiaYCFttRPe9fD4fc99qlnQNSSONE0wCJRv7qdzpzl4/GWcLJ+iVoSJ5oGWGT2e3I83hZO1i9RS+JE0wCLHKdmS30CRC2JE00DNIl6v3f1o+HRZn4C2U66T32j4otUcLJ+iVoSJ5oGmPPc72QM/up2/EDrG2ov65eoJXGiaYA5r9LKJs1+FTb9F1ylNQOilsSJpgG4nloRopbEiaYBiFoRopbEiaYBiFoRopbEiaYBiFoRopbEiaYBiFoRopbEiaYBiFoRopbEiaYBiFoRopbEiaYBiFoRopbEiaYBiFoRopbEiaYBiFoRopbEiaYBiFoRopbEiaYBiFoRopbEiaYBiFoRopbEiaYBiFoRopbEiaYBiFoRopbEiaYBiFoRopbEiaYBiFoRopbEiaYBiFoRopbEiaYBiFoRopbEiaYBiFoRopbEiaYBiFoRopbEiaYBiFoRopbEiaYBiFoRopbEiaYBiFoRJ1Gv+vB0stINQNSKuIhlNWHZGifjZKUbgKgV8ZAKUXcPolbEQyqrq16qdrLSDUDUijgohag7CFEr4qAUou4gRK2Ig1LYp+4gRK2Ih1SIunsQtSIeUhlynLpzELUiPmLx8tN0omkAolaEqCVxomkAolaEqCVxomkAolaEqCVxomkAolaEqCVxomkAolaEqCVxomkAolaEqCVxomkAolaEqCVxomkAolaEqCVxomkAolaEqCVxomkAolaEqCVxomkAolaEqCVxomkAolaEqCVxomkAolaEqCVxomkAolaEqCVxomkAolaEqCVxomkAolaEqCVxomkAolaEqCVxomkAolaEqCVxomkAolaEqCVxomkAolaEqCVxomkAolaEqCVxomkAolaEqCVxomkAolaEqCVxomkAolaEqCVxomkAolaEqCVxomkAolaEqCVxomkAolaEqCVxomkAolaEqCVxomkAolaEqCVxomkA+aift8DqahtLWRg03SGewzLwuaV2sglEU5KOFNcCRK0ImpIQdV2IWhE0JSHquhC1ImhKQtR1IWpF0JSEqOtC1IqgKQlR14WoFUFTEqKuC1ErgqYkRF0XolYETUmIui5ErQiakhB1XYhaETQlIeq6ELUiaEpC1HUhakXQlISo60LUiqApCVHXhagVQVMSoq4LUSuCpiREXReiVgRNSYi6LkStCJqSEHVdiFoRNCUh6roQtSJoSkLUdSFqRdCUhKjrQtSKoCkJUdeFqBVBUxKirgtRK4KmJERdF6JWBE1JiLouRK0ImpIQdV2IWhE0JSHquhC1ImhKQtR1IWpF0JSEqOtC1IqgKQlR14WoFUFTEqKuC1ErgqYkRF0XolYETUmIui5ErQiakhB1XYhaETQlIeq6ELUiaEriRNMARK0ImpI40TQAUSuCpiRONA1A1IqgKYkTTQMQtSJoSuJE0wBErQiakjjRNABRK4KmJE40DUDUiqApiRNNAxC1ImhK4kTTAEStCJqSONE0AFErgqYkTjQNQNSKoCmJE00DELUiaEriRNMARK0ImpI40TQAUSuCpiRONA1A1IqgKYkTTQMQtSJoSuJE0wBErQiakjjRNABRK4KmJE40DUDUiqApiRNNAxC1ImhK4kTTAEStCJqSONE0AFErgqYkTjQNQNSKoCmJE00DELUiaEriRNMARK0ImpI40TQAUSuCpiRONA1A1IqgKYkTTQMQtSJoSuJE0wBErQiakjjRNECjqI9/s9m7+oNnhUf+cbPX+4tnM79ACyfrF01JnGgaoFHUO72IG+UHrn0pbXUSTtYvmpI40TRAk6iPNq89DP+5+lH2wH7vOw+HL+713pf3qsbJ+kVTEieaBmgS9U7vw2FUcrapPr4X9320eb3tAbiT9YumJE40DdAg6uN78Tj71e2s4Ve3b1R+gR5O1i+akhjTHDx+cy0IVi7dXbbIJA2iTmtO2x5Gm+j3jz6YmCh73gKrq20sZWHQlKQVzdo1PAqLTjj3oH5D7bBI1Pu9702ZKGvhJ8+voSho5tSNoR/GfHd3OPz2k7XgzOf1I2qFRlEno+2dPOre9XiirPVRuLGR2CzQlMSS5sFasJ6+eXgzuLBUl0kW21KnO9mtH9OytH4rQFMSQ5qDrULIe+Y21YtFHW+i8wdaw9D6rQJNSQxpHqyt/HL0zssf/XQ3Snt9by04Fz48+ORiEJx9Zzf5xCT4lzeDW9HnnN/9KtwXf115L3yR2e+jTaKuBE1JDGn2wzpLD+0Fl8Ncw4cP0hm0OPuJqP8q+dgtVb1FjlO/uh0fp84rbw1D67cKNCUxpLk9uRu9Fxb9YPhNlO+5u8Ph1xvxoLwcdRBc2R0ebigP2JtEvd8LIz7ajNOOecoZZZWgKYkhze3RNNmIMNh489sPRhmvT4l6Pf+YHnOe+51snY/vxQ+0vqG2tH6rQFMSQ5pZ1GGdMeuj6bLBVtZrPxmLj0edbqGnDN8lmfMqrWzSLHrgPa7SmgGakhjSzIbfY1HHnSb1RsQFT06U5R/Tg+upFUFTEkOaY1vaZOM8EXXc84yos4eVIGpF0JTEkObYIa0ZUbOlboih9VsFmpIY0hw7+WQs6hn71AdrZvepzWBo/VaBpiSWNMNI38iyfLxWiHpi9jvZpPcDs7PfZrC0fitAUxJTmo+C4Oy7v40uwNwIgpWf5VGnx6kfJ8eio/ceDAcfB1nU0d8CU8ep7WBq/c4GTUlsaR5sZJdeRueTjE2CFc4oizbREX+U7lOf2yh8TA2iVgRNSaxpPr4T5XvpnWzuK9tNLp77HW+yw033aKLs9/fXgpUrmjvUQ6JWBU1JnGhWsKc7PzaCqBVBUxInmhUQdRVO1i+akjjRrGC5UUcvqnbm85c/MvfqSylO1i+akjjRrGCpUR9Gc3Rh1MqH0+bHyfpFUxInmhUsM+ro4NrfhFvqwX3tufd5cbJ+0ZTEiaYBpkXdDy6EYUfHx6dcDG4CJ+sXTUmcaBpgStSDrXD7nER9sNbOeKEpTtYvmpI40TTAlKjjnpOok3/t4WT9oimJE00DELUiaEriRNMAU4ffwa0057am65riZP2iKYkTTQNMnyg7vxtHfWj1mJaT9YumJE40DVBxSOvndwzeJijByfpFUxInmgaYffJJC5eIzY2T9YumJE40DTDjNNFHrwWFy8fM4WT9oimJE00DcEGHImhK4kTTAEStCJqSONE0QFXUv23NoilO1i+akpjWNCU3NerBJ/82PvNkxepOtakf4WzQlMS0pim5aVEPtrJXQtQ792R1qXRNczFM/ULOxrSmKbnpJ5+svBu/8WhN6+ST5cZSewU40VwQU7+QszGtaUpu1mmiCWqnia6u/v/l0STqf788iHoc05qm5GZd0DHxpixETdRNMaZpYpA1nalRj04kU7s7H1ETdVNsadrYc5rOtH3q7eDC7ugtncUSNVE3xZZm5W+wwagP1oKz73z2zZNfb6id/E3URN0UW5reoo5mvdMLOt5VWixRE3VTbGm6i3r4bXQ7oHBzrXZOGVETdVNsaTaOeu/s29nL6B/++OKtyU8IR8gXhoOt+BSRjWDGju92OnaOPncmSzr3m6iJuim2NJtHnZ/KtR0E1VGHnzDjDBGibvAjn6VJ1GawpTlP1GmQL2++NjPqmLDsWXNZi0Q9+CZFaQBO1ETdFFuac0R9eS3Z+vbP/PVJUc8852v+qEcTZYHW6xkRNVE3xZbmHFG/kbQ62LrQj6Me5PeqPnwzCK58nQ6/96Lwzj9KBuAHa2Pj8Lmj3gsCok41idoMtjQbn3yyF6z34yIP1m7FUb9MXjTsXHzTjOity2NR/+5m/CegP35Ued6oo4u0fqF8zSVRE3VTbGnOE3Wy1e2f+TyOejs4/2B4uBVNc28H4QY7HB+nE2XJ8DvutzwS3x5tbptFXThNVA2iJuqm2NKcY/i9Hhcajr6H/dEr68f/S+9u1R+POv4TUBp9LxC1/gsDEzVRN8WW5jxRx2PpvTDoKOpsAB1ukPey3eexqON/S6PvBYbfbKlHmkRtBluac0Ud/bcdVlsr6ijoiXnwuSfK+vr35SBqom6KLc25on558/zvbl4Y1ow6HHqXR9/zRz3YCt5QftFBoibqptjSnCvqsMmfRHNkpX3qlzen7VNH//u4PGieN+rotck4pJVqErUZbGnOF/VeUtTk7PeF3eHj0ux3+NkrF8tnoRB1gx/5LE2iNoMtzfmiDtuKYkyOU98cFZa8ebk0/I4eLu8Izz38/vabHE4TJWoj2NKcL+pwmxydSzZ5RtmdILhS3qeeNmXNBR0NfuSzNInaDLY023g5o3RfuzFEXa1J1GawpdlC1IP7U6/7OJkZUaeD709//e/YpyZqG5jWlJcbbKUXYBcvxagX+dSov+IqrUyTqM1gWlNBbjs4F79UikzUhe+S7seLQ9RE3RTTmqbkpr9E8LnPnmys/OLJltqpZURN1E0xrWlKbvpx6lvJ3LveWeBETdRNMa1pSm7mVVr95AQYXsyfqI3gRNMAM6OOe573QNmJEDVRN8WJpgFmXnoZX7jNDfKI2gxONA0wfaJsPd1ec4M8ojaDE00DzLiX1vndwVZw5ckW96cmais40TTA1JNP+tE5J3sNjnY3hqiJuilONA0w415avw430I83uEGek6hPOBFZma5pukf+go7ndVhy1LUcY82lRl1fc6l0SVM8h2XAVVrVmkuNur7mv1keTTT/5/JQ3lKbGghUX6XFiyQQNVHXe26q374ZU6O+z8sZZZpETdT1npvqt2/G9JcIJupMk6iJut5zU/32zZh+Ly2lo9M5RE3UzqOunpUTXlgzuJdWtSZRE/WMJ+Msau6lNdIkaqKe8WREVp0KU8/9Zks90mwt4UV+M4iaqItMi1rtgsscoj4Zoibq+Zh6SOvgZnD5rYS3uaBjWRB1p6LeO/v2g/TNwx9fnHZNxejF/IcvN2bdf3qvztUYM26QxyGtVLO1hOv9ZszSJGr7UQejg0rb0y+UyqOObi0//eUB5446/JYrl9hSD4maqCueTMNVF0adzlW9vPnazKhjwrJnzWrNG/WU23KJQ9QnQ9Qdi/pyerPp/pm/PinqmZNa80fNIa2RZmsJ1/vNmKVJ1A6ifiO77fSFyRvkvRkEV75Oh9/xKxmcf5TdiX59/LvMF3UyrNeFqE+GqG1H3fDkk71gvR+Pvw/WbiW3st2IZ63OfR6/1lDhVrZJ1L9L70Q/fnx57n3qvtbrneQQNVGfvqiTrW7/zOeTN50PN9iPSjedj08XKY/E5456eF/tFU8yiJqovUfdcNWFUceFhqPveLOZ7uVG/4tfuTfamI5FHf8JKI2+59+nfvNitP1/LeYSh7SWBVF3Lep4LB1lGUWdTYuFG+S9bPd5LOr439Loe5HZb45TZ5qtJVzvN2OWJlG7iDr6bztMqlbUUdAT8+BzT5T9w6c5/4Pj1MuCqDsX9cub539388KwZtTh0Ls8+p5/n/rxgykPykLUJ0PUnYs6LPgnUZWlfer0YovSPnX0v4/L11bNf0iLq7RGmq0lXO83Y5YmUfuIei/ZoZ2c/b6wO3xcmv0OP3vlYvksFE4+IWqithX1y5vxhRrJceqbo1mr5M3LpeH3tHM797LJrqq22VJXa7aWcL3fjFmaRO0j6vi279mZIMUzyu4EwZXyPvW0EueNOtxBX7mr9NLAGUR9MkRtO2r9lzOa94UNpm2pf/xdDmllmkRN1DOejHrUg/tzntrJcepqTaIm6nrPTfo7Rq9qEG+o9wo51ot82vD722++4Q4dqSZRE3W95yb+LbeDc/GxZZmoW4CoiZqotSDqak2iJup6z0312zdjetSDx2+uBSuX7qq9qChREzVRazE16sONdAivdsCaqIm6U1GbYvrrfgcrr3/66ad31rQmv086IKBN5zSJmqhzpr/yyZnkko5DtZcgdFOLE02iJuqc6Xe9zGbO97Tuf+mmFieaRE3UOdUXdKhd2+GmFieaRE3UOUuLmokyJsqIWoelDb+JmqiJWocZE2XJ9lnvXh1ETdRErcWsQ1rvfPbNk080D2kRNVF3KGpTfzOm38p2jZNPUk2iJup6z0312zdjxmmin0Qv/X32HU4TJWqirvfcVL99M8ajHmwpvXh/GaImaqLWYjzq+BAWLzxY0CRqoq733FS/fTPKUYd70URd0CRqop71bCTOG1KhPPwOzr713bWVy29lvM1xaqIm6mlPxkvUYy+dwmuUETVRz/UztxX18MmP2VIXNYn6JIh6kZ+JCtyho1qTqE+CqGv/TA7vrAXBypXii3nGL94/890C2+k5I9l99aqYdu73nC8h3gSiJupTF/VX6TldK+/mj7UWNbfdyTWJ+iSIuubPZC8Ioo30t/frvtLvGAtGzfC7oEnUJ0HU9X4m8eHimIO1OQJjS03U7UHU9X4m/fyKx/jN/pm/2wjO/CIebx9uBCt/mt0fb7B1/uvo/fEvXzBqbpBX0CTqkzi1UTc8Tr2dbyrjMPtn/iQIzv8+ijq5gOryKOpk13t96pfPu6XmBnm5JlET9Ywn0yzq4hRYfDfLfnwNZFrxld3hoyAYRX3+weDj0uuTbI+SnHOfmpNPRppETdTNf+ZTFla8LW0ceDIcj948WIs/1B9FHdVevo3tglFzg7yCJlGfBFHX+plkN5IfvZ3eeD6sOLkd/TDfp462pBNRL7hP3QJETdSnLeriPjVRE/WJmq0lXOsXeKbmKY56cva77aijG+Sd+fzljx7Uf5LNIGqiPmVRl49T51FP7FOrRB3fIC+MWu3FRImaqE9b1OUzyvKoB1vBG7vDR2uqUYcxn/ub8K/J4L7aKw8SNVGftqijbJNzv+PzSvKoRy/0qRl1NA5IzhXdrjF/PhdETdSnLupwIx3Weza9SqsQdTw0Pve3a+t6UcfzdEnU6WhfHqImau9RS7/yyZ7Yzu6sCzqSqEvXdhz/ZrN39QfPxj99v/dh88USNVETdcrBWnTr6MMNsX3dRlHv9CJujH32q9tETdQ1NTsU9cRzm/9rs5O9r5QeL762WKOLNWfdIC/JefwGeUeb1x6G/1z9qPjZYehETdT1NIl6KoN4X/vd8sOSUYe78Od346gPx49p7cT57o9tqvd73yNqoq6pSdStUHFI6+d3xm+Qd3zv2pfDaLx9Pd+rfnX7xlOiXn7US6VjmnNhPurk5JOJG+SlNadtJ+xc+7Ic9fM6LHn91nKMNZcadX1NJz9N+5rzdmQ/6uHg0WuTN8ibEvXR5odDoibq7mgqJNY+DS7oCIfa8f93RlEf3wszn2v4vSBt/V1k+F2Hjmn6p1HU5S3102ginKgNRM1E2ZInykwxEfXg8VtvvX132qdORH20+f6QqIm6viZRt0I56vTc8nNTLrqcmP1+2kspzJy1A1GXNImaqHNKUUdNX37ru9Nfm6x8nJqoiZqoDVKKup+cQnY49Urq/V64D320WRpuM/wm6rqaRN0K5ftTp0em94Jpl2fl534XzkAhaqKuq0nUrTAe9egCjul3Bsmv0iJqoibqseem+u2bMSPqNu6ntQBEXdIkaqLOIerq5RA1Udd7bqrfvhlEXb0coibqes9N9ds3g6irl0PURF3vual++2YQdfVyiJqoZz0bsyeaT0T9WXwLrSfZG8q3tJ0Toi5pEnXbUVu+eqQcdVDC5gabqEuaRN1+1C0urCFEXb0coibq5k/GVNReIOqSJlGfhIWoD++sBcHKleIubfFe9JPvFthr8NqDRF29HKIm6uZPZvrCvspuu1N43VCiHkHUJU2iPonlR126QV5DiFpuOURN1M2fzLSFlW9l2xCillsOURN18yczbWETN50/83cbwZlfZDfIW/nT/Kbz57/eSG+NmUPUcsshaqKe8WQaHqfezl9vO75zZf/MnwTB+d/nt7K9PIo62fUef0UDopZbDlET9Ywn0yzq4hRYfJvafvyq+mnFV3aHj/L7UwfnHww+Lr2iAVHLLYeoibr5k5mysOL9puPAk+F49GZ6w+j+KOqo9vL9qYlabjlETdTNn8zULXUx6nhLnd10Pr0xdb5PPe2m80QttxyiJurmT2Zq1MV9aqKehKhLmkR9EsuOenL2m6jHIeqSJlGfxNKjLh+nzqOe2Kcmat3lEDVRN38ydc4oy6MebAVv7A4frRF1S8shaqJu/mSmL+xRdu53fF5JHnV2W5wTok6p0TZRVy+HqIm6+ZOZsbBv74f1nk2v0ipEHd8Q/tzfrq0TdSvLIWqinvFkpF/5ZG/aXXHmgqirl0PURD3jyYhFfbB25kG0tc6PeS0IUVcvh6iJut5zm/9rs5O9r5QeH4246w26c4i6ejlELRn1UpnvV6D2c1vgiwfxvva75YeJWqfuYNoAAA7qSURBVGk5RE3U9Z6b6rdvBlFXL4eo5aJeEFPdlDElR9TVyyFqoq6DKTmirl4OURO1O4i6ejlETdTuIOrq5RA1UbuDqKuX4yTq7k4rF59lSwtyD1FXL4eoidodRF29HBdRL/wsW1rQYjjRNABRVy+HqM3gRNMARF29HKI2gxNNAxB19XKI2gxONA1A1NXLIWozONE0AFFXL4eozeBE0wBEXb0cojaDE00DEHX1cojaDE40DUDU1cshajM40TQAUVcvh6jN4ETTAERdvRyiNoMTTQMQdfVyiNoMTjQNQNTVyyFqMzjRNABRVy+HqM3gRNMARF29HKI2gxNNAxB19XKI2gxONA1A1NXLIWozONE0AFFXL4eozeBE0wBEXb0cXifIDE40DUDU1cshajM40TQAUSuCpiRONA1A1IqgKYkTTQMQtSJoSuJE0wBErQiakjjRNABRK4KmJE40DUDUiqApiRNNAxC1ImhK4kTTAEStCJqSONE0gHzUz1tgdbWNpSwMmpK0oimewzJgS60ImpI40TQAUSuCpiRONA1A1IqgKYkTTQMQtSJoSuJE0wBErQiakjjRNABRK4KmJE40DUDUiqApiRNNAxC1ImhK4kTTAEStCJqSONE0AFErgqYkTjQNQNSKoCmJE00DELUiaEriRNMARK0ImpI40TQAUSuCpiRONA1A1IqgKYkTTQMQtSJoSuJE0wBErQiakjjRNABRK4KmJE40DUDUiqApiRNNAxC1ImhK4kTTAEStCJqSONE0AFErgqYkTjQNQNSKoCmJE00DELUiaEriRNMARK0ImpI40TQAUSuCpiRONA1A1IqgKYkTTQMQtSJoSuJE0wBErQiakjjRNABRK4KmJE40DUDUiqApiRNNAxC1ImhK4kTTAEStCJqSONE0AFErgqYkTjQNQNSKoCmJE00DELUiz58v26AWTn6aTjQNQNSKELUkTjQNQNSKELUkTjQNQNSKELUkTjQNQNSKELUkTjQNQNSKELUkTjQNQNSKELUkTjQNQNSKELUkTjQNQNSKELUkTjQNQNSKELUkTjQNQNSKELUkTjQNQNSKELUkTjQNQNSKELUkTjQNQNSKELUkTjQNQNSKELUkTjQNQNSKELUkTjQNQNSKELUkTjQNQNSKELUkTjQNQNSKELUkTjQNQNSKELUkTjQNQNSKELUkTjQNQNSKELUkTjQNQNSKELUkTjQNQNSKELUkTjQNQNSKELUkTjQNQNSKELUkTjQNQNSKELUkTjQNQNSKELUkTjQNQNSKELUkTjQN0Cjq499s9q7+4Fn+wIu/7PWuvvds9lco4WT9ErUkTjQN0CjqnV7EjdH7R5vxA9dbr9rJ+iVqSZxoGqBJ1Eeb1x6G/1z9KH3/+F7v+8+GLz7ova9hVoWT9UvUkjjRNECTqHd6H4b/7o821a9ux28dbd6Y/TU6OFm/RC2JE00DNIj6+N61L4dRyqXh9sQD+jhZv0QtiRNNAzSIOo03bTtnvze2pX7eAqurbSzltODkp9mKpkRTS2fxqI/vjXayY1r4yYMoRJ0jEtWyaRR1skXeGY96p/15Mi/jWieaTsa1TjQNsOiW+nin1/o0mZtanGg6qcWJpgEWjPr4Xm8J5554qcWJppNanGgaYLHZ7xe3lzD2HrqpxYmmk1qcaBpgkePUYd9XfyivVAMntTjRdFKLE00DNIl6v3f1o+jU0A+zB3byN9vFSS1ONJ3U4kTTAHOe+x2PwdNTv5dw8reTWpxoOqnFiaYB5rxKK456v0fUlTjRdFKLE00D+Lye2kktTjSd1OJE0wBErYgTTSe1ONE0AFEr4kTTSS1ONA1A1Io40XRSixNNAxC1Ik40ndTiRNMARK2IE00ntTjRNABRK+JE00ktTjQNQNSKONF0UosTTQMQtSJONJ3U4kTTAEStiBNNJ7U40TQAUSviRNNJLU40DUDUijjRdFKLE00DELUiTjSd1OJE0wBErYgTTSe1ONE0AFEr4kTTSS1ONA1A1Io40XRSixNNAxC1Ik40ndTiRNMARK2IE00ntTjRNABRK+JE00ktTjQNQNSKONF0UosTTQMQtSJONJ3U4kTTAEStiBNNJ7U40TQAUSviRNNJLU40DeAz6lUfK5ioJXGiaQCPUa8mLFvjZIhaEieaBiBqRYhaEieaBnAY9eqql6qJWhInmgYgakWcRI1mxyBqRZz8GqLZMRxGzT61MGh2DKJWxMmvIZodw2PUHKeWBc2O4TNqJ+sXTUmcaBqAqBVBUxInmgYgakXQlMSJpgGIWhE0JXGiaQCiVgRNSZxoGoCoFUFTEieaBiBqRdCUxImmAYhaETQlcaJpAKJWBE1JnGgagKgVQVMSJ5oGIGpF0JTEiaYBiFoRNCVxomkAolYETUmcaBqAqBVBUxInmgYgakXQlMSJpgGIWhE0JXGiaQCiVgRNSZxoGoCoFUFTEieaBiBqRdCUxImmAYhaETQlcaJpAKJWBE1JnGgagKgVQVMSJ5oGIGpF0JTEiaYBiFoRNCVxomkAolYETUmcaBqAqBVBUxInmgYgakXQlMSJpgGIWhEnmk7uTOZE0wBErYgLTSf3EHWiaQKiVsSFppNanGiagKgV8aC5uuoiFyeaNpCP+jl4YlTLskWqaUtTPIdlwJZaEQ+aTjaBTjRtQNSKuNB0EosTTRMQtSIuNJ3U4kTTBEStiBNNJ6040TQAUSuCpiRONA1A1IqgKYkTTQMQtSJoSuJE0wBErQiakjjRNABRK4KmJE40DUDUiqApiRNNAxC1ImhK4kTTAEStCJqSONE0AFErgqYkTjQNQNSKoCmJE00DELUiaEriRNMARK0ImpI40TQAUSuCpiRONA1A1IqgKYkTTQMQtSJoSuJE0wBErQiakjjRNABRK4KmJE40DUDUiqApiRNNAxC1ImhK4kTTAEStCJqSONE0AFErgqYkTjQNQNSKoCmJE00D+IwaAGZC1AAdg6gBOgZRA3QMogboGEQN0DGIGqBjEDVAxyBqgI5B1AAdg6gBOgZRA3QMogboGLai3v/j//gwffPFf/6zD6d8xtHmjeHxvWtfDoevPuj1bkz9LjtXPxp9rg4ynvu9aV8pzotfbfZ6V9/7v4WHErNZ7xbQ/1HmLOLZ0o/SCcai7vWuP0ve3OlNXU95LOEn9N6f+l1aiFrEs53fxH8MU4m4+sP8MYtRL+RJ1EXMRZ3+Fr26/b2ZscSEK/ijGd+llagFPFv5TQxVo43fv3wx/Y/PCbQX9WKeRF3EWtR/vpls1Z5e+y8nxZJtKydoI2oJzzZ+E1/dTn8YodGszVwFrUW9oCdRF7EW9feTBo7v3Xgar6fjLzbD/aw4ixd/Gf4x/6d0WLsfjdSu/yEZ2B5tjo1v24hawrON38Sn+dA/fvPptf/9Qe/af4vHsS8+6F39T9l+QvjH55+i98e/vLWoF/Qk6iLWon7/afxrdLT5YRxLNMsU8p0vo4eit/58LJZ/vh2n9fTq2Ai3jaglPNv4TdzJFxn/OJ5e+w+hz/+LYhkXPb6X7NK+P/XL1aNe0JOoi5iLOtmaPb32ZRzLTu/6w+GLe9H08U4v3BD+YbOXTkAlw9r4d6E8wt3pZShGLeDZwm9icWrpVfSX5WkvMYnriER7vVEs1x8e/32v7R+ljCdRFzEXdfybH45qh1Esr27H6zr639FmsrEbjyVOqzSqbSdqAc8WfhNf3c5/+WOdZJgbvVkSPb4XVVT8/Ii2ol7Uk6iLmIs6HqNG6yiKJRv1hRu6/Wy3dCyW+N/SqLad4beAZytb6mIs8RYwngGIdwzGRNOD6uWoWxp+L+pJ1EXsRR39txP/ra4RSxTKxPxyO1Ev7tlK1MV9VctRL+ZJ1EXsRR2ur3++HU2V1IolHNKWR7UtRb2451Jmv21GvagnURexF3X4i/Rfo1VU2ldNV2NpXzX639+XRrUtRb245zKOU+exTOyrLjXqBT2JuojBqPd7vdFqHZtVvvFs+H9Ks8rhZ1/9s/LZHS1FvbDnMs4oy2M5vtf7fmGafslRL+hJ1EUMRv3qdjzVmhz/vR1PvSbrsXi4chRL+HD5zOqWol7Ycz+bWVb9hfxDdk51fL5GHkt6/LdnJOrFPNv5UXrBYNThtq7wt7pwptavwj/m5X3VsSmWlJaiXtizpd/EfwnVen+cXv1UiCU6U6v3nf8V7umbiHohT6IuYivqOSivXqtY9dyfcQmZNbx4WsB71Mdf+PjjbM/zaPPaw2grODGAMIYXT0P4jjo6ETjeAI6GXzZHYBY9s5Oo3ys9bkgxxounIXxHHe7Wfid+CRLra9ii53G8D/vD8sOWFGO8eNrBedQAUIaoAToGUQN0DKIG6BhEDdAxiBqgYxA1QMcganMMHr+5FgQrl+4uWwScQtTWeBQWnXDuwbJdwCVEbYx+GPPd3eHw20/WgjOfL9sGPELUtjhYC9bTNw9vBheW6gJOIWpTDLYKIe+xqYZ5IGpTHKyt/HL0zssf/XQ3Snt9by04Fz48+ORiEJx9Zzf5xCT4lzeDW9HnnN/9KtwXf529cCBqY/TDOksP7QWXw1zDhw/SGbQ4+4mo/yr52K32ncEaRG2K7cnd6L2w6AfDb6J8z90dDr/eiAfl5aiD4Mru8HCDATsQtTG2R9NkI8Jg481vPxhlvD4l6vX8Y3DKIWpTZFGHdcasj6bLBltZr/1kLD4edbqFnjJ8h1MHUZsiG36PRR13mtQbERc8OVGWfwxOOURtirEtbbJxnog67nlG1NnDcJohalOMHdKaETVbaqiGqE0xdvLJWNQz9qkP1tinhhJEbYsw0jeyLB+vFaKemP1ONun9gNlvKEHUxngUBGff/W10AeZGEKz8LI86PU79ODkWHb33YDj4OMiijv4WcJwaIojaGgcb2aWX0fkkY5NghTPKok10xB+l+9TnNgofg9MNUdvj8Z0o30vvZHNf2W5y8dzveJMdbrpHE2W/v78WrFxhhxqIuhvsMT8GOUTdBYgaChB1FyBqKEDUXYCooQBRdwGihgJEDdAxiBqgYxA1QMcgaoCOQdQAHYOoAToGUQN0DKIG6BhEDdAxiBqgYxA1QMcgaoCO8a9EWeR7JhgkXgAAAABJRU5ErkJggg==;" parent="CiWgiKEQsSCrlubR7PXY-13" vertex="1">
          <mxGeometry width="129.12127908488233" height="118.46153846153848" as="geometry" />
        </mxCell>
        <mxCell id="CiWgiKEQsSCrlubR7PXY-10" value="" style="group" parent="CiWgiKEQsSCrlubR7PXY-13" vertex="1" connectable="0">
          <mxGeometry x="2.1666666666666665" y="20.65980728401111" width="65.93166666666667" height="27.845827208884536" as="geometry" />
        </mxCell>
        <mxCell id="CiWgiKEQsSCrlubR7PXY-11" value="&lt;font size=&quot;1&quot;&gt;*&lt;/font&gt;" style="text;html=1;align=center;verticalAlign=middle;whiteSpace=wrap;rounded=0;container=1;" parent="CiWgiKEQsSCrlubR7PXY-10" vertex="1">
          <mxGeometry x="22.598333333333347" width="43.333333333333314" height="26.94757471827536" as="geometry" />
        </mxCell>
        <mxCell id="CiWgiKEQsSCrlubR7PXY-12" value="&lt;font size=&quot;1&quot;&gt;*&lt;/font&gt;" style="text;html=1;align=center;verticalAlign=middle;whiteSpace=wrap;rounded=0;" parent="CiWgiKEQsSCrlubR7PXY-10" vertex="1">
          <mxGeometry y="0.8982524906091788" width="43.333333333333314" height="26.94757471827536" as="geometry" />
        </mxCell>
      </root>
    </mxGraphModel>
  </diagram>
</mxfile>
